G75*
%MOIN*%
%OFA0B0*%
%FSLAX25Y25*%
%IPPOS*%
%LPD*%
%AMOC8*
5,1,8,0,0,1.08239X$1,22.5*
%
%ADD10C,0.00787*%
%ADD11C,0.00800*%
%ADD12C,0.00400*%
D10*
X0018392Y0032555D02*
X0081384Y0032555D01*
X0081574Y0032557D01*
X0081764Y0032564D01*
X0081954Y0032576D01*
X0082144Y0032592D01*
X0082333Y0032612D01*
X0082522Y0032638D01*
X0082710Y0032667D01*
X0082897Y0032702D01*
X0083083Y0032741D01*
X0083268Y0032784D01*
X0083453Y0032832D01*
X0083636Y0032884D01*
X0083817Y0032940D01*
X0083997Y0033001D01*
X0084176Y0033067D01*
X0084353Y0033136D01*
X0084529Y0033210D01*
X0084702Y0033288D01*
X0084874Y0033371D01*
X0085043Y0033457D01*
X0085211Y0033547D01*
X0085376Y0033642D01*
X0085539Y0033740D01*
X0085699Y0033843D01*
X0085857Y0033949D01*
X0086012Y0034059D01*
X0086165Y0034172D01*
X0086315Y0034290D01*
X0086461Y0034411D01*
X0086605Y0034535D01*
X0086746Y0034663D01*
X0086884Y0034794D01*
X0087019Y0034929D01*
X0087150Y0035067D01*
X0087278Y0035208D01*
X0087402Y0035352D01*
X0087523Y0035498D01*
X0087641Y0035648D01*
X0087754Y0035801D01*
X0087864Y0035956D01*
X0087970Y0036114D01*
X0088073Y0036274D01*
X0088171Y0036437D01*
X0088266Y0036602D01*
X0088356Y0036770D01*
X0088442Y0036939D01*
X0088525Y0037111D01*
X0088603Y0037284D01*
X0088677Y0037460D01*
X0088746Y0037637D01*
X0088812Y0037816D01*
X0088873Y0037996D01*
X0088929Y0038177D01*
X0088981Y0038360D01*
X0089029Y0038545D01*
X0089072Y0038730D01*
X0089111Y0038916D01*
X0089146Y0039103D01*
X0089175Y0039291D01*
X0089201Y0039480D01*
X0089221Y0039669D01*
X0089237Y0039859D01*
X0089249Y0040049D01*
X0089256Y0040239D01*
X0089258Y0040429D01*
X0089258Y0103421D01*
X0089256Y0103611D01*
X0089249Y0103801D01*
X0089237Y0103991D01*
X0089221Y0104181D01*
X0089201Y0104370D01*
X0089175Y0104559D01*
X0089146Y0104747D01*
X0089111Y0104934D01*
X0089072Y0105120D01*
X0089029Y0105305D01*
X0088981Y0105490D01*
X0088929Y0105673D01*
X0088873Y0105854D01*
X0088812Y0106034D01*
X0088746Y0106213D01*
X0088677Y0106390D01*
X0088603Y0106566D01*
X0088525Y0106739D01*
X0088442Y0106911D01*
X0088356Y0107080D01*
X0088266Y0107248D01*
X0088171Y0107413D01*
X0088073Y0107576D01*
X0087970Y0107736D01*
X0087864Y0107894D01*
X0087754Y0108049D01*
X0087641Y0108202D01*
X0087523Y0108352D01*
X0087402Y0108498D01*
X0087278Y0108642D01*
X0087150Y0108783D01*
X0087019Y0108921D01*
X0086884Y0109056D01*
X0086746Y0109187D01*
X0086605Y0109315D01*
X0086461Y0109439D01*
X0086315Y0109560D01*
X0086165Y0109678D01*
X0086012Y0109791D01*
X0085857Y0109901D01*
X0085699Y0110007D01*
X0085539Y0110110D01*
X0085376Y0110208D01*
X0085211Y0110303D01*
X0085043Y0110393D01*
X0084874Y0110479D01*
X0084702Y0110562D01*
X0084529Y0110640D01*
X0084353Y0110714D01*
X0084176Y0110783D01*
X0083997Y0110849D01*
X0083817Y0110910D01*
X0083636Y0110966D01*
X0083453Y0111018D01*
X0083268Y0111066D01*
X0083083Y0111109D01*
X0082897Y0111148D01*
X0082710Y0111183D01*
X0082522Y0111212D01*
X0082333Y0111238D01*
X0082144Y0111258D01*
X0081954Y0111274D01*
X0081764Y0111286D01*
X0081574Y0111293D01*
X0081384Y0111295D01*
X0018392Y0111295D01*
X0018202Y0111293D01*
X0018012Y0111286D01*
X0017822Y0111274D01*
X0017632Y0111258D01*
X0017443Y0111238D01*
X0017254Y0111212D01*
X0017066Y0111183D01*
X0016879Y0111148D01*
X0016693Y0111109D01*
X0016508Y0111066D01*
X0016323Y0111018D01*
X0016140Y0110966D01*
X0015959Y0110910D01*
X0015779Y0110849D01*
X0015600Y0110783D01*
X0015423Y0110714D01*
X0015247Y0110640D01*
X0015074Y0110562D01*
X0014902Y0110479D01*
X0014733Y0110393D01*
X0014565Y0110303D01*
X0014400Y0110208D01*
X0014237Y0110110D01*
X0014077Y0110007D01*
X0013919Y0109901D01*
X0013764Y0109791D01*
X0013611Y0109678D01*
X0013461Y0109560D01*
X0013315Y0109439D01*
X0013171Y0109315D01*
X0013030Y0109187D01*
X0012892Y0109056D01*
X0012757Y0108921D01*
X0012626Y0108783D01*
X0012498Y0108642D01*
X0012374Y0108498D01*
X0012253Y0108352D01*
X0012135Y0108202D01*
X0012022Y0108049D01*
X0011912Y0107894D01*
X0011806Y0107736D01*
X0011703Y0107576D01*
X0011605Y0107413D01*
X0011510Y0107248D01*
X0011420Y0107080D01*
X0011334Y0106911D01*
X0011251Y0106739D01*
X0011173Y0106566D01*
X0011099Y0106390D01*
X0011030Y0106213D01*
X0010964Y0106034D01*
X0010903Y0105854D01*
X0010847Y0105673D01*
X0010795Y0105490D01*
X0010747Y0105305D01*
X0010704Y0105120D01*
X0010665Y0104934D01*
X0010630Y0104747D01*
X0010601Y0104559D01*
X0010575Y0104370D01*
X0010555Y0104181D01*
X0010539Y0103991D01*
X0010527Y0103801D01*
X0010520Y0103611D01*
X0010518Y0103421D01*
X0010518Y0040429D01*
X0010520Y0040239D01*
X0010527Y0040049D01*
X0010539Y0039859D01*
X0010555Y0039669D01*
X0010575Y0039480D01*
X0010601Y0039291D01*
X0010630Y0039103D01*
X0010665Y0038916D01*
X0010704Y0038730D01*
X0010747Y0038545D01*
X0010795Y0038360D01*
X0010847Y0038177D01*
X0010903Y0037996D01*
X0010964Y0037816D01*
X0011030Y0037637D01*
X0011099Y0037460D01*
X0011173Y0037284D01*
X0011251Y0037111D01*
X0011334Y0036939D01*
X0011420Y0036770D01*
X0011510Y0036602D01*
X0011605Y0036437D01*
X0011703Y0036274D01*
X0011806Y0036114D01*
X0011912Y0035956D01*
X0012022Y0035801D01*
X0012135Y0035648D01*
X0012253Y0035498D01*
X0012374Y0035352D01*
X0012498Y0035208D01*
X0012626Y0035067D01*
X0012757Y0034929D01*
X0012892Y0034794D01*
X0013030Y0034663D01*
X0013171Y0034535D01*
X0013315Y0034411D01*
X0013461Y0034290D01*
X0013611Y0034172D01*
X0013764Y0034059D01*
X0013919Y0033949D01*
X0014077Y0033843D01*
X0014237Y0033740D01*
X0014400Y0033642D01*
X0014565Y0033547D01*
X0014733Y0033457D01*
X0014902Y0033371D01*
X0015074Y0033288D01*
X0015247Y0033210D01*
X0015423Y0033136D01*
X0015600Y0033067D01*
X0015779Y0033001D01*
X0015959Y0032940D01*
X0016140Y0032884D01*
X0016323Y0032832D01*
X0016508Y0032784D01*
X0016693Y0032741D01*
X0016879Y0032702D01*
X0017066Y0032667D01*
X0017254Y0032638D01*
X0017443Y0032612D01*
X0017632Y0032592D01*
X0017822Y0032576D01*
X0018012Y0032564D01*
X0018202Y0032557D01*
X0018392Y0032555D01*
D11*
X0063601Y0105912D02*
X0062900Y0106613D01*
X0063601Y0105912D02*
X0065002Y0105912D01*
X0065703Y0106613D01*
X0065703Y0107314D01*
X0065002Y0108014D01*
X0063601Y0108014D01*
X0062900Y0108715D01*
X0062900Y0109415D01*
X0063601Y0110116D01*
X0065002Y0110116D01*
X0065703Y0109415D01*
X0072997Y0107931D02*
X0075799Y0107931D01*
X0074398Y0106530D02*
X0074398Y0109333D01*
X0082736Y0107732D02*
X0085539Y0107732D01*
D12*
X0076424Y0036867D02*
X0074851Y0036867D01*
X0074851Y0033721D01*
X0074851Y0034770D02*
X0076424Y0034770D01*
X0076949Y0035294D01*
X0076949Y0036343D01*
X0076424Y0036867D01*
X0075900Y0034770D02*
X0076949Y0033721D01*
X0073686Y0034246D02*
X0073162Y0033721D01*
X0072113Y0033721D01*
X0071589Y0034246D01*
X0071589Y0036343D01*
X0072113Y0036867D01*
X0073162Y0036867D01*
X0073686Y0036343D01*
X0073686Y0034246D01*
X0070424Y0036867D02*
X0068326Y0036867D01*
X0069375Y0036867D02*
X0069375Y0033721D01*
X0067161Y0034246D02*
X0066637Y0033721D01*
X0065588Y0033721D01*
X0065064Y0034246D01*
X0065064Y0036343D01*
X0065588Y0036867D01*
X0066637Y0036867D01*
X0067161Y0036343D01*
X0063898Y0036867D02*
X0061801Y0036867D01*
X0061801Y0033721D01*
X0063898Y0033721D01*
X0062850Y0035294D02*
X0061801Y0035294D01*
X0060636Y0036867D02*
X0058538Y0036867D01*
X0059587Y0036867D02*
X0059587Y0033721D01*
X0057373Y0033721D02*
X0055276Y0033721D01*
X0055276Y0036867D01*
X0057373Y0036867D01*
X0056324Y0035294D02*
X0055276Y0035294D01*
X0054110Y0034246D02*
X0053586Y0033721D01*
X0052013Y0033721D01*
X0052013Y0036867D01*
X0053586Y0036867D01*
X0054110Y0036343D01*
X0054110Y0034246D01*
X0047585Y0033721D02*
X0045488Y0033721D01*
X0045488Y0036867D01*
X0047585Y0036867D01*
X0046537Y0035294D02*
X0045488Y0035294D01*
X0044323Y0033721D02*
X0044323Y0036867D01*
X0042225Y0036867D02*
X0044323Y0033721D01*
X0042225Y0033721D02*
X0042225Y0036867D01*
X0041099Y0036867D02*
X0040050Y0036867D01*
X0040574Y0036867D02*
X0040574Y0033721D01*
X0040050Y0033721D02*
X0041099Y0033721D01*
X0038885Y0033721D02*
X0036788Y0033721D01*
X0036788Y0036867D01*
X0032360Y0036343D02*
X0031835Y0036867D01*
X0030787Y0036867D01*
X0030262Y0036343D01*
X0030262Y0034246D01*
X0030787Y0033721D01*
X0031835Y0033721D01*
X0032360Y0034246D01*
X0029097Y0033721D02*
X0029097Y0035819D01*
X0028048Y0036867D01*
X0027000Y0035819D01*
X0027000Y0033721D01*
X0027000Y0035294D02*
X0029097Y0035294D01*
M02*
