G75*
%MOIN*%
%OFA0B0*%
%FSLAX25Y25*%
%IPPOS*%
%LPD*%
%AMOC8*
5,1,8,0,0,1.08239X$1,22.5*
%
%ADD10R,0.06693X0.07480*%
%ADD11C,0.03937*%
%ADD12R,0.03937X0.04331*%
%ADD13R,0.04331X0.03937*%
%ADD14C,0.07400*%
%ADD15R,0.06299X0.07874*%
%ADD16R,0.03150X0.03150*%
%ADD17C,0.15811*%
%ADD18C,0.07100*%
%ADD19C,0.02000*%
%ADD20C,0.05000*%
%ADD21C,0.04165*%
%ADD22C,0.01000*%
D10*
X0017794Y0044436D03*
X0037873Y0044436D03*
X0037873Y0079869D03*
X0017794Y0079869D03*
D11*
X0014352Y0036684D03*
X0090555Y0111311D03*
D12*
X0094833Y0099681D03*
X0101526Y0099681D03*
X0101526Y0091610D03*
X0094833Y0091610D03*
D13*
X0052444Y0049200D03*
X0052444Y0042507D03*
D14*
X0058035Y0095362D03*
X0068035Y0095362D03*
X0078035Y0095362D03*
D15*
X0072592Y0080846D03*
X0062592Y0080846D03*
X0094469Y0078307D03*
X0094437Y0060644D03*
X0072592Y0043287D03*
X0062592Y0043287D03*
D16*
X0095226Y0106081D03*
X0101132Y0106081D03*
D17*
X0097728Y0120914D03*
X0097229Y0042863D03*
D18*
X0077255Y0104017D02*
X0077255Y0111117D01*
X0057570Y0111117D02*
X0057570Y0104017D01*
X0037633Y0103962D02*
X0037633Y0111062D01*
X0017948Y0111062D02*
X0017948Y0103962D01*
D19*
X0056147Y0083767D02*
X0056564Y0083350D01*
X0056564Y0082166D01*
X0057883Y0080846D01*
X0062592Y0080846D01*
X0065783Y0087614D02*
X0070077Y0087614D01*
X0072592Y0085098D01*
X0072592Y0080846D01*
X0072592Y0073422D01*
X0075738Y0070276D01*
X0075582Y0070276D01*
X0075738Y0070276D02*
X0084805Y0070276D01*
X0094437Y0060644D01*
X0093100Y0076938D02*
X0088140Y0076938D01*
X0093100Y0076938D02*
X0094469Y0078307D01*
X0100573Y0086703D02*
X0101526Y0087656D01*
X0101526Y0091610D01*
X0100573Y0086703D02*
X0076693Y0086703D01*
X0068035Y0095362D01*
X0065783Y0087614D02*
X0058035Y0095362D01*
X0057570Y0095826D01*
X0057570Y0107567D01*
X0077255Y0107567D02*
X0078035Y0106787D01*
X0078035Y0095362D01*
X0081786Y0091610D01*
X0094833Y0091610D01*
X0094833Y0099681D02*
X0093075Y0101131D01*
X0089768Y0101131D01*
X0101526Y0099681D02*
X0101526Y0105687D01*
X0101132Y0106081D01*
X0067864Y0052240D02*
X0056053Y0052240D01*
X0053013Y0049200D01*
X0052444Y0049200D01*
X0052444Y0042507D02*
X0039802Y0042507D01*
X0037873Y0044436D01*
X0025738Y0036492D02*
X0056053Y0036492D01*
X0062592Y0043031D01*
X0062592Y0043287D01*
X0072592Y0043287D02*
X0072592Y0047512D01*
X0067864Y0052240D01*
X0025738Y0036492D02*
X0017794Y0044436D01*
D20*
X0017794Y0079869D02*
X0017794Y0107358D01*
X0017948Y0107512D01*
X0037633Y0107512D02*
X0037633Y0080109D01*
X0037873Y0079869D01*
D21*
X0056147Y0083767D03*
X0088140Y0076938D03*
X0089768Y0101131D03*
D22*
X0095226Y0106081D02*
X0098257Y0103050D01*
X0098257Y0096977D01*
X0101526Y0093709D01*
X0101526Y0091610D01*
M02*
