G75*
%MOIN*%
%OFA0B0*%
%FSLAX25Y25*%
%IPPOS*%
%LPD*%
%AMOC8*
5,1,8,0,0,1.08239X$1,22.5*
%
%ADD10C,0.00787*%
%ADD11C,0.00800*%
%ADD12C,0.01100*%
%ADD13C,0.00400*%
%ADD14C,0.00299*%
%ADD15R,0.00400X0.00034*%
%ADD16R,0.00440X0.00034*%
%ADD17R,0.02730X0.00034*%
%ADD18R,0.03400X0.00034*%
%ADD19R,0.02770X0.00034*%
%ADD20R,0.02270X0.00034*%
%ADD21R,0.00600X0.00033*%
%ADD22R,0.00560X0.00033*%
%ADD23R,0.03070X0.00033*%
%ADD24R,0.03630X0.00033*%
%ADD25R,0.03030X0.00033*%
%ADD26R,0.02400X0.00033*%
%ADD27R,0.00800X0.00033*%
%ADD28R,0.00700X0.00033*%
%ADD29R,0.03270X0.00033*%
%ADD30R,0.03800X0.00033*%
%ADD31R,0.03300X0.00033*%
%ADD32R,0.02530X0.00033*%
%ADD33R,0.00870X0.00034*%
%ADD34R,0.00800X0.00034*%
%ADD35R,0.03470X0.00034*%
%ADD36R,0.03970X0.00034*%
%ADD37R,0.03460X0.00034*%
%ADD38R,0.02600X0.00034*%
%ADD39R,0.03500X0.00034*%
%ADD40R,0.00870X0.00033*%
%ADD41R,0.03600X0.00033*%
%ADD42R,0.04040X0.00033*%
%ADD43R,0.02670X0.00033*%
%ADD44R,0.00900X0.00033*%
%ADD45R,0.04100X0.00033*%
%ADD46R,0.03770X0.00033*%
%ADD47R,0.00370X0.00033*%
%ADD48R,0.00940X0.00034*%
%ADD49R,0.03930X0.00034*%
%ADD50R,0.04200X0.00034*%
%ADD51R,0.03900X0.00034*%
%ADD52R,0.00630X0.00034*%
%ADD53R,0.02670X0.00034*%
%ADD54R,0.00930X0.00033*%
%ADD55R,0.04070X0.00033*%
%ADD56R,0.04240X0.00033*%
%ADD57R,0.04030X0.00033*%
%ADD58R,0.00770X0.00033*%
%ADD59R,0.02640X0.00033*%
%ADD60R,0.04000X0.00033*%
%ADD61R,0.04130X0.00033*%
%ADD62R,0.04300X0.00033*%
%ADD63R,0.04170X0.00033*%
%ADD64R,0.00830X0.00033*%
%ADD65R,0.02560X0.00033*%
%ADD66R,0.04270X0.00034*%
%ADD67R,0.04340X0.00034*%
%ADD68R,0.04230X0.00034*%
%ADD69R,0.00860X0.00034*%
%ADD70R,0.02470X0.00034*%
%ADD71R,0.00960X0.00033*%
%ADD72R,0.04330X0.00033*%
%ADD73R,0.04400X0.00033*%
%ADD74R,0.04340X0.00033*%
%ADD75R,0.00860X0.00033*%
%ADD76R,0.02330X0.00033*%
%ADD77R,0.00970X0.00033*%
%ADD78R,0.04440X0.00033*%
%ADD79R,0.04370X0.00033*%
%ADD80R,0.02100X0.00033*%
%ADD81R,0.04360X0.00033*%
%ADD82R,0.00970X0.00034*%
%ADD83R,0.01070X0.00034*%
%ADD84R,0.01040X0.00034*%
%ADD85R,0.01030X0.00034*%
%ADD86R,0.01000X0.00034*%
%ADD87R,0.01000X0.00033*%
%ADD88R,0.00940X0.00033*%
%ADD89R,0.00930X0.00034*%
%ADD90R,0.00900X0.00034*%
%ADD91R,0.00960X0.00034*%
%ADD92R,0.00830X0.00034*%
%ADD93R,0.00700X0.00034*%
%ADD94R,0.00740X0.00034*%
%ADD95R,0.00530X0.00033*%
%ADD96R,0.00570X0.00033*%
%ADD97R,0.00270X0.00033*%
%ADD98R,0.00300X0.00033*%
%ADD99R,0.01070X0.00033*%
%ADD100R,0.01060X0.00033*%
%ADD101R,0.03430X0.00034*%
%ADD102R,0.04400X0.00034*%
%ADD103R,0.03670X0.00033*%
%ADD104R,0.03640X0.00033*%
%ADD105R,0.03730X0.00033*%
%ADD106R,0.03770X0.00034*%
%ADD107R,0.04170X0.00034*%
%ADD108R,0.04100X0.00034*%
%ADD109R,0.03830X0.00034*%
%ADD110R,0.04230X0.00033*%
%ADD111R,0.04200X0.00033*%
%ADD112R,0.04270X0.00033*%
%ADD113R,0.03760X0.00033*%
%ADD114R,0.04330X0.00034*%
%ADD115R,0.04300X0.00034*%
%ADD116R,0.03730X0.00034*%
%ADD117R,0.03500X0.00033*%
%ADD118R,0.01060X0.00034*%
%ADD119R,0.00230X0.00034*%
%ADD120R,0.00370X0.00034*%
%ADD121R,0.00630X0.00033*%
%ADD122R,0.00730X0.00033*%
%ADD123R,0.01030X0.00033*%
%ADD124R,0.04430X0.00034*%
%ADD125R,0.04440X0.00034*%
%ADD126R,0.04370X0.00034*%
%ADD127R,0.02160X0.00034*%
%ADD128R,0.02360X0.00033*%
%ADD129R,0.02470X0.00033*%
%ADD130R,0.04130X0.00034*%
%ADD131R,0.04140X0.00034*%
%ADD132R,0.02560X0.00034*%
%ADD133R,0.04430X0.00033*%
%ADD134R,0.03870X0.00033*%
%ADD135R,0.03900X0.00033*%
%ADD136R,0.03400X0.00033*%
%ADD137R,0.03940X0.00033*%
%ADD138R,0.02600X0.00033*%
%ADD139R,0.03760X0.00034*%
%ADD140R,0.03200X0.00034*%
%ADD141R,0.02500X0.00034*%
%ADD142R,0.03570X0.00033*%
%ADD143R,0.02930X0.00033*%
%ADD144R,0.03560X0.00033*%
%ADD145R,0.02970X0.00033*%
%ADD146R,0.03000X0.00033*%
%ADD147R,0.02630X0.00033*%
%ADD148R,0.02200X0.00033*%
%ADD149R,0.06630X0.00033*%
%ADD150R,0.00470X0.00033*%
%ADD151R,0.06830X0.00033*%
%ADD152R,0.04500X0.00033*%
%ADD153R,0.06970X0.00034*%
%ADD154R,0.04700X0.00034*%
%ADD155R,0.03960X0.00034*%
%ADD156R,0.07060X0.00033*%
%ADD157R,0.04870X0.00033*%
%ADD158R,0.01100X0.00033*%
%ADD159R,0.07200X0.00033*%
%ADD160R,0.05030X0.00033*%
%ADD161R,0.01140X0.00033*%
%ADD162R,0.01200X0.00033*%
%ADD163R,0.01170X0.00033*%
%ADD164R,0.07260X0.00034*%
%ADD165R,0.05170X0.00034*%
%ADD166R,0.01230X0.00034*%
%ADD167R,0.01260X0.00034*%
%ADD168R,0.04240X0.00034*%
%ADD169R,0.01270X0.00034*%
%ADD170R,0.07370X0.00033*%
%ADD171R,0.05300X0.00033*%
%ADD172R,0.01330X0.00033*%
%ADD173R,0.01340X0.00033*%
%ADD174R,0.01300X0.00033*%
%ADD175R,0.07400X0.00033*%
%ADD176R,0.05470X0.00033*%
%ADD177R,0.01400X0.00033*%
%ADD178R,0.01430X0.00033*%
%ADD179R,0.01370X0.00033*%
%ADD180R,0.07430X0.00034*%
%ADD181R,0.05540X0.00034*%
%ADD182R,0.01470X0.00034*%
%ADD183R,0.01500X0.00034*%
%ADD184R,0.04360X0.00034*%
%ADD185R,0.01400X0.00034*%
%ADD186R,0.07470X0.00033*%
%ADD187R,0.05630X0.00033*%
%ADD188R,0.01540X0.00033*%
%ADD189R,0.01600X0.00033*%
%ADD190R,0.01470X0.00033*%
%ADD191R,0.01460X0.00033*%
%ADD192R,0.07500X0.00033*%
%ADD193R,0.05730X0.00033*%
%ADD194R,0.01630X0.00033*%
%ADD195R,0.04470X0.00033*%
%ADD196R,0.01500X0.00033*%
%ADD197R,0.07500X0.00034*%
%ADD198R,0.05800X0.00034*%
%ADD199R,0.01640X0.00034*%
%ADD200R,0.01700X0.00034*%
%ADD201R,0.04500X0.00034*%
%ADD202R,0.01530X0.00034*%
%ADD203R,0.05870X0.00033*%
%ADD204R,0.01700X0.00033*%
%ADD205R,0.01730X0.00033*%
%ADD206R,0.05930X0.00033*%
%ADD207R,0.01770X0.00033*%
%ADD208R,0.01800X0.00033*%
%ADD209R,0.06000X0.00034*%
%ADD210R,0.01800X0.00034*%
%ADD211R,0.01860X0.00034*%
%ADD212R,0.04470X0.00034*%
%ADD213R,0.01660X0.00034*%
%ADD214R,0.06030X0.00033*%
%ADD215R,0.01870X0.00033*%
%ADD216R,0.01900X0.00033*%
%ADD217R,0.06100X0.00033*%
%ADD218R,0.01940X0.00033*%
%ADD219R,0.01960X0.00033*%
%ADD220R,0.07470X0.00034*%
%ADD221R,0.06170X0.00034*%
%ADD222R,0.01970X0.00034*%
%ADD223R,0.02030X0.00034*%
%ADD224R,0.01760X0.00034*%
%ADD225R,0.07440X0.00033*%
%ADD226R,0.06230X0.00033*%
%ADD227R,0.02040X0.00033*%
%ADD228R,0.02060X0.00033*%
%ADD229R,0.06270X0.00033*%
%ADD230R,0.02070X0.00033*%
%ADD231R,0.02130X0.00033*%
%ADD232R,0.01830X0.00033*%
%ADD233R,0.07400X0.00034*%
%ADD234R,0.06330X0.00034*%
%ADD235R,0.02140X0.00034*%
%ADD236R,0.02200X0.00034*%
%ADD237R,0.06400X0.00033*%
%ADD238R,0.02230X0.00033*%
%ADD239R,0.04160X0.00033*%
%ADD240R,0.07340X0.00033*%
%ADD241R,0.06430X0.00033*%
%ADD242R,0.02270X0.00033*%
%ADD243R,0.02300X0.00033*%
%ADD244R,0.01930X0.00033*%
%ADD245R,0.07270X0.00034*%
%ADD246R,0.06500X0.00034*%
%ADD247R,0.02300X0.00034*%
%ADD248R,0.02330X0.00034*%
%ADD249R,0.04000X0.00034*%
%ADD250R,0.01960X0.00034*%
%ADD251R,0.06570X0.00033*%
%ADD252R,0.02370X0.00033*%
%ADD253R,0.02000X0.00033*%
%ADD254R,0.07100X0.00033*%
%ADD255R,0.06600X0.00033*%
%ADD256R,0.02440X0.00033*%
%ADD257R,0.02430X0.00033*%
%ADD258R,0.02030X0.00033*%
%ADD259R,0.06630X0.00034*%
%ADD260R,0.02100X0.00034*%
%ADD261R,0.02540X0.00033*%
%ADD262R,0.02260X0.00033*%
%ADD263R,0.02160X0.00033*%
%ADD264R,0.02640X0.00034*%
%ADD265R,0.02660X0.00034*%
%ADD266R,0.02700X0.00033*%
%ADD267R,0.02740X0.00033*%
%ADD268R,0.02760X0.00033*%
%ADD269R,0.02800X0.00034*%
%ADD270R,0.02830X0.00034*%
%ADD271R,0.02870X0.00033*%
%ADD272R,0.02860X0.00033*%
%ADD273R,0.01970X0.00033*%
%ADD274R,0.02900X0.00033*%
%ADD275R,0.01900X0.00034*%
%ADD276R,0.02970X0.00034*%
%ADD277R,0.02960X0.00034*%
%ADD278R,0.02400X0.00034*%
%ADD279R,0.01860X0.00033*%
%ADD280R,0.03040X0.00033*%
%ADD281R,0.01840X0.00033*%
%ADD282R,0.03060X0.00033*%
%ADD283R,0.02460X0.00033*%
%ADD284R,0.01830X0.00034*%
%ADD285R,0.03140X0.00034*%
%ADD286R,0.03130X0.00034*%
%ADD287R,0.03200X0.00033*%
%ADD288R,0.03160X0.00033*%
%ADD289R,0.03240X0.00033*%
%ADD290R,0.03230X0.00033*%
%ADD291R,0.01730X0.00034*%
%ADD292R,0.03300X0.00034*%
%ADD293R,0.02630X0.00034*%
%ADD294R,0.03370X0.00033*%
%ADD295R,0.03330X0.00033*%
%ADD296R,0.02660X0.00033*%
%ADD297R,0.01670X0.00034*%
%ADD298R,0.01640X0.00033*%
%ADD299R,0.03540X0.00033*%
%ADD300R,0.02800X0.00033*%
%ADD301R,0.01570X0.00034*%
%ADD302R,0.02070X0.00034*%
%ADD303R,0.02000X0.00034*%
%ADD304R,0.01560X0.00033*%
%ADD305R,0.01530X0.00033*%
%ADD306R,0.01540X0.00034*%
%ADD307R,0.02930X0.00034*%
%ADD308R,0.02960X0.00033*%
%ADD309R,0.03700X0.00034*%
%ADD310R,0.03030X0.00034*%
%ADD311R,0.03100X0.00033*%
%ADD312R,0.03130X0.00033*%
%ADD313R,0.03360X0.00034*%
%ADD314R,0.03160X0.00034*%
%ADD315R,0.03100X0.00034*%
%ADD316R,0.01740X0.00033*%
%ADD317R,0.02760X0.00034*%
%ADD318R,0.02130X0.00034*%
%ADD319R,0.01740X0.00034*%
%ADD320R,0.01460X0.00034*%
%ADD321R,0.01230X0.00033*%
%ADD322R,0.01100X0.00034*%
%ADD323R,0.00570X0.00034*%
%ADD324R,0.05470X0.00034*%
%ADD325R,0.05600X0.00033*%
%ADD326R,0.05670X0.00033*%
%ADD327R,0.05770X0.00034*%
%ADD328R,0.05800X0.00033*%
%ADD329R,0.05840X0.00033*%
%ADD330R,0.05870X0.00034*%
%ADD331R,0.05900X0.00033*%
%ADD332R,0.05940X0.00033*%
%ADD333R,0.05940X0.00034*%
%ADD334R,0.05970X0.00033*%
%ADD335R,0.05970X0.00034*%
%ADD336R,0.05740X0.00034*%
%ADD337R,0.05570X0.00033*%
%ADD338R,0.03170X0.00034*%
%ADD339R,0.03140X0.00033*%
%ADD340R,0.03070X0.00034*%
%ADD341R,0.02940X0.00034*%
%ADD342R,0.01600X0.00034*%
%ADD343R,0.02840X0.00034*%
%ADD344R,0.02770X0.00033*%
%ADD345R,0.01440X0.00034*%
%ADD346R,0.02740X0.00034*%
%ADD347R,0.01440X0.00033*%
%ADD348R,0.02570X0.00033*%
%ADD349R,0.02540X0.00034*%
%ADD350R,0.01930X0.00034*%
%ADD351R,0.02340X0.00033*%
%ADD352R,0.02140X0.00033*%
%ADD353R,0.02240X0.00033*%
%ADD354R,0.02240X0.00034*%
%ADD355R,0.02170X0.00033*%
%ADD356R,0.02500X0.00033*%
%ADD357R,0.06670X0.00034*%
%ADD358R,0.03530X0.00034*%
%ADD359R,0.07140X0.00033*%
%ADD360R,0.07240X0.00033*%
%ADD361R,0.07300X0.00034*%
%ADD362R,0.06470X0.00033*%
%ADD363R,0.01870X0.00034*%
%ADD364R,0.06300X0.00033*%
%ADD365R,0.01770X0.00034*%
%ADD366R,0.06070X0.00033*%
%ADD367R,0.05700X0.00033*%
%ADD368R,0.07440X0.00034*%
%ADD369R,0.05570X0.00034*%
%ADD370R,0.01430X0.00034*%
%ADD371R,0.05440X0.00033*%
%ADD372R,0.01360X0.00033*%
%ADD373R,0.07330X0.00033*%
%ADD374R,0.01240X0.00034*%
%ADD375R,0.07170X0.00033*%
%ADD376R,0.05000X0.00033*%
%ADD377R,0.01130X0.00033*%
%ADD378R,0.04840X0.00033*%
%ADD379R,0.01040X0.00033*%
%ADD380R,0.04060X0.00033*%
%ADD381R,0.06940X0.00034*%
%ADD382R,0.04630X0.00034*%
%ADD383R,0.03940X0.00034*%
%ADD384R,0.06800X0.00033*%
%ADD385R,0.00500X0.00033*%
%ADD386R,0.00330X0.00033*%
%ADD387R,0.00100X0.00034*%
%ADD388R,0.00130X0.00034*%
%ADD389R,0.00140X0.00034*%
%ADD390R,0.02570X0.00034*%
%ADD391R,0.03230X0.00034*%
%ADD392R,0.03000X0.00034*%
%ADD393R,0.02440X0.00034*%
%ADD394R,0.03240X0.00034*%
%ADD395R,0.02530X0.00034*%
%ADD396R,0.00130X0.00033*%
%ADD397R,0.00140X0.00033*%
%ADD398R,0.00160X0.00033*%
%ADD399R,0.00100X0.00033*%
%ADD400R,0.03370X0.00034*%
%ADD401R,0.01240X0.00033*%
%ADD402R,0.00200X0.00033*%
%ADD403R,0.00360X0.00033*%
%ADD404R,0.00200X0.00034*%
%ADD405R,0.00300X0.00034*%
%ADD406R,0.00330X0.00034*%
%ADD407R,0.00260X0.00033*%
%ADD408R,0.00040X0.00033*%
%ADD409R,0.00230X0.00033*%
%ADD410R,0.00260X0.00034*%
%ADD411R,0.00030X0.00033*%
%ADD412R,0.00400X0.00033*%
%ADD413R,0.00170X0.00033*%
%ADD414R,0.00170X0.00034*%
%ADD415R,0.00530X0.00034*%
%ADD416R,0.00470X0.00034*%
%ADD417R,0.00760X0.00033*%
D10*
X0016683Y0032555D02*
X0099360Y0032555D01*
X0099550Y0032557D01*
X0099740Y0032564D01*
X0099930Y0032576D01*
X0100120Y0032592D01*
X0100309Y0032612D01*
X0100498Y0032638D01*
X0100686Y0032667D01*
X0100873Y0032702D01*
X0101059Y0032741D01*
X0101244Y0032784D01*
X0101429Y0032832D01*
X0101612Y0032884D01*
X0101793Y0032940D01*
X0101973Y0033001D01*
X0102152Y0033067D01*
X0102329Y0033136D01*
X0102505Y0033210D01*
X0102678Y0033288D01*
X0102850Y0033371D01*
X0103019Y0033457D01*
X0103187Y0033547D01*
X0103352Y0033642D01*
X0103515Y0033740D01*
X0103675Y0033843D01*
X0103833Y0033949D01*
X0103988Y0034059D01*
X0104141Y0034172D01*
X0104291Y0034290D01*
X0104437Y0034411D01*
X0104581Y0034535D01*
X0104722Y0034663D01*
X0104860Y0034794D01*
X0104995Y0034929D01*
X0105126Y0035067D01*
X0105254Y0035208D01*
X0105378Y0035352D01*
X0105499Y0035498D01*
X0105617Y0035648D01*
X0105730Y0035801D01*
X0105840Y0035956D01*
X0105946Y0036114D01*
X0106049Y0036274D01*
X0106147Y0036437D01*
X0106242Y0036602D01*
X0106332Y0036770D01*
X0106418Y0036939D01*
X0106501Y0037111D01*
X0106579Y0037284D01*
X0106653Y0037460D01*
X0106722Y0037637D01*
X0106788Y0037816D01*
X0106849Y0037996D01*
X0106905Y0038177D01*
X0106957Y0038360D01*
X0107005Y0038545D01*
X0107048Y0038730D01*
X0107087Y0038916D01*
X0107122Y0039103D01*
X0107151Y0039291D01*
X0107177Y0039480D01*
X0107197Y0039669D01*
X0107213Y0039859D01*
X0107225Y0040049D01*
X0107232Y0040239D01*
X0107234Y0040429D01*
X0107234Y0123106D01*
X0107232Y0123296D01*
X0107225Y0123486D01*
X0107213Y0123676D01*
X0107197Y0123866D01*
X0107177Y0124055D01*
X0107151Y0124244D01*
X0107122Y0124432D01*
X0107087Y0124619D01*
X0107048Y0124805D01*
X0107005Y0124990D01*
X0106957Y0125175D01*
X0106905Y0125358D01*
X0106849Y0125539D01*
X0106788Y0125719D01*
X0106722Y0125898D01*
X0106653Y0126075D01*
X0106579Y0126251D01*
X0106501Y0126424D01*
X0106418Y0126596D01*
X0106332Y0126765D01*
X0106242Y0126933D01*
X0106147Y0127098D01*
X0106049Y0127261D01*
X0105946Y0127421D01*
X0105840Y0127579D01*
X0105730Y0127734D01*
X0105617Y0127887D01*
X0105499Y0128037D01*
X0105378Y0128183D01*
X0105254Y0128327D01*
X0105126Y0128468D01*
X0104995Y0128606D01*
X0104860Y0128741D01*
X0104722Y0128872D01*
X0104581Y0129000D01*
X0104437Y0129124D01*
X0104291Y0129245D01*
X0104141Y0129363D01*
X0103988Y0129476D01*
X0103833Y0129586D01*
X0103675Y0129692D01*
X0103515Y0129795D01*
X0103352Y0129893D01*
X0103187Y0129988D01*
X0103019Y0130078D01*
X0102850Y0130164D01*
X0102678Y0130247D01*
X0102505Y0130325D01*
X0102329Y0130399D01*
X0102152Y0130468D01*
X0101973Y0130534D01*
X0101793Y0130595D01*
X0101612Y0130651D01*
X0101429Y0130703D01*
X0101244Y0130751D01*
X0101059Y0130794D01*
X0100873Y0130833D01*
X0100686Y0130868D01*
X0100498Y0130897D01*
X0100309Y0130923D01*
X0100120Y0130943D01*
X0099930Y0130959D01*
X0099740Y0130971D01*
X0099550Y0130978D01*
X0099360Y0130980D01*
X0016683Y0130980D01*
X0016493Y0130978D01*
X0016303Y0130971D01*
X0016113Y0130959D01*
X0015923Y0130943D01*
X0015734Y0130923D01*
X0015545Y0130897D01*
X0015357Y0130868D01*
X0015170Y0130833D01*
X0014984Y0130794D01*
X0014799Y0130751D01*
X0014614Y0130703D01*
X0014431Y0130651D01*
X0014250Y0130595D01*
X0014070Y0130534D01*
X0013891Y0130468D01*
X0013714Y0130399D01*
X0013538Y0130325D01*
X0013365Y0130247D01*
X0013193Y0130164D01*
X0013024Y0130078D01*
X0012856Y0129988D01*
X0012691Y0129893D01*
X0012528Y0129795D01*
X0012368Y0129692D01*
X0012210Y0129586D01*
X0012055Y0129476D01*
X0011902Y0129363D01*
X0011752Y0129245D01*
X0011606Y0129124D01*
X0011462Y0129000D01*
X0011321Y0128872D01*
X0011183Y0128741D01*
X0011048Y0128606D01*
X0010917Y0128468D01*
X0010789Y0128327D01*
X0010665Y0128183D01*
X0010544Y0128037D01*
X0010426Y0127887D01*
X0010313Y0127734D01*
X0010203Y0127579D01*
X0010097Y0127421D01*
X0009994Y0127261D01*
X0009896Y0127098D01*
X0009801Y0126933D01*
X0009711Y0126765D01*
X0009625Y0126596D01*
X0009542Y0126424D01*
X0009464Y0126251D01*
X0009390Y0126075D01*
X0009321Y0125898D01*
X0009255Y0125719D01*
X0009194Y0125539D01*
X0009138Y0125358D01*
X0009086Y0125175D01*
X0009038Y0124990D01*
X0008995Y0124805D01*
X0008956Y0124619D01*
X0008921Y0124432D01*
X0008892Y0124244D01*
X0008866Y0124055D01*
X0008846Y0123866D01*
X0008830Y0123676D01*
X0008818Y0123486D01*
X0008811Y0123296D01*
X0008809Y0123106D01*
X0008809Y0040429D01*
X0008811Y0040239D01*
X0008818Y0040049D01*
X0008830Y0039859D01*
X0008846Y0039669D01*
X0008866Y0039480D01*
X0008892Y0039291D01*
X0008921Y0039103D01*
X0008956Y0038916D01*
X0008995Y0038730D01*
X0009038Y0038545D01*
X0009086Y0038360D01*
X0009138Y0038177D01*
X0009194Y0037996D01*
X0009255Y0037816D01*
X0009321Y0037637D01*
X0009390Y0037460D01*
X0009464Y0037284D01*
X0009542Y0037111D01*
X0009625Y0036939D01*
X0009711Y0036770D01*
X0009801Y0036602D01*
X0009896Y0036437D01*
X0009994Y0036274D01*
X0010097Y0036114D01*
X0010203Y0035956D01*
X0010313Y0035801D01*
X0010426Y0035648D01*
X0010544Y0035498D01*
X0010665Y0035352D01*
X0010789Y0035208D01*
X0010917Y0035067D01*
X0011048Y0034929D01*
X0011183Y0034794D01*
X0011321Y0034663D01*
X0011462Y0034535D01*
X0011606Y0034411D01*
X0011752Y0034290D01*
X0011902Y0034172D01*
X0012055Y0034059D01*
X0012210Y0033949D01*
X0012368Y0033843D01*
X0012528Y0033740D01*
X0012691Y0033642D01*
X0012856Y0033547D01*
X0013024Y0033457D01*
X0013193Y0033371D01*
X0013365Y0033288D01*
X0013538Y0033210D01*
X0013714Y0033136D01*
X0013891Y0033067D01*
X0014070Y0033001D01*
X0014250Y0032940D01*
X0014431Y0032884D01*
X0014614Y0032832D01*
X0014799Y0032784D01*
X0014984Y0032741D01*
X0015170Y0032702D01*
X0015357Y0032667D01*
X0015545Y0032638D01*
X0015734Y0032612D01*
X0015923Y0032592D01*
X0016113Y0032576D01*
X0016303Y0032564D01*
X0016493Y0032557D01*
X0016683Y0032555D01*
D11*
X0015920Y0117873D02*
X0015920Y0122677D01*
X0019122Y0122677D02*
X0015920Y0117873D01*
X0019122Y0117873D02*
X0019122Y0122677D01*
X0020959Y0122677D02*
X0022560Y0122677D01*
X0021759Y0122677D02*
X0021759Y0117873D01*
X0020959Y0117873D02*
X0022560Y0117873D01*
X0024514Y0120275D02*
X0027716Y0120275D01*
X0029670Y0121876D02*
X0030471Y0122677D01*
X0032072Y0122677D01*
X0032873Y0121876D01*
X0032873Y0118673D01*
X0032072Y0117873D01*
X0030471Y0117873D01*
X0029670Y0118673D01*
X0034826Y0117873D02*
X0034826Y0121075D01*
X0036428Y0122677D01*
X0038029Y0121075D01*
X0038029Y0117873D01*
X0038029Y0120275D02*
X0034826Y0120275D01*
X0055897Y0120030D02*
X0058699Y0120030D01*
X0066040Y0119974D02*
X0068842Y0119974D01*
X0067441Y0118573D02*
X0067441Y0121376D01*
X0075499Y0121376D02*
X0076199Y0122076D01*
X0077601Y0122076D01*
X0078301Y0121376D01*
X0078301Y0120675D01*
X0077601Y0119974D01*
X0076199Y0119974D01*
X0075499Y0119274D01*
X0075499Y0118573D01*
X0076199Y0117873D01*
X0077601Y0117873D01*
X0078301Y0118573D01*
D12*
X0036611Y0097197D02*
X0035627Y0096213D01*
X0033659Y0098182D01*
X0032674Y0097197D01*
X0023049Y0097216D02*
X0022064Y0096232D01*
X0020096Y0098200D01*
X0019112Y0097216D01*
D13*
X0056434Y0072372D02*
X0056434Y0069750D01*
X0056959Y0069226D01*
X0057483Y0069226D01*
X0058007Y0070275D02*
X0056434Y0070275D01*
X0058007Y0070275D02*
X0058532Y0070799D01*
X0058532Y0071848D01*
X0058007Y0072372D01*
X0056434Y0072372D01*
X0059697Y0071848D02*
X0059697Y0070275D01*
X0059697Y0071848D02*
X0060221Y0072372D01*
X0061794Y0072372D01*
X0061794Y0070275D01*
X0062921Y0070275D02*
X0063969Y0070275D01*
X0063445Y0070275D02*
X0063445Y0072372D01*
X0063969Y0072372D01*
X0065135Y0072372D02*
X0066708Y0072372D01*
X0067232Y0071848D01*
X0066708Y0071323D01*
X0065659Y0071323D01*
X0065135Y0070799D01*
X0065659Y0070275D01*
X0067232Y0070275D01*
X0068397Y0070799D02*
X0068922Y0071323D01*
X0069970Y0071323D01*
X0070495Y0071848D01*
X0069970Y0072372D01*
X0068397Y0072372D01*
X0068397Y0070799D02*
X0068922Y0070275D01*
X0070495Y0070275D01*
X0071660Y0070799D02*
X0071660Y0071848D01*
X0072184Y0072372D01*
X0073233Y0072372D01*
X0073757Y0071848D01*
X0073757Y0070799D01*
X0073233Y0070275D01*
X0072184Y0070275D01*
X0071660Y0070799D01*
X0071393Y0068906D02*
X0071393Y0068381D01*
X0071393Y0067333D02*
X0071393Y0065235D01*
X0071917Y0065235D02*
X0070868Y0065235D01*
X0069742Y0065760D02*
X0069218Y0065235D01*
X0068169Y0065235D01*
X0067645Y0065760D01*
X0067645Y0066808D01*
X0068169Y0067333D01*
X0069218Y0067333D01*
X0069742Y0066808D01*
X0069742Y0065760D01*
X0071393Y0067333D02*
X0071917Y0067333D01*
X0073044Y0067333D02*
X0074092Y0067333D01*
X0073568Y0067857D02*
X0073568Y0065760D01*
X0073044Y0065235D01*
X0075257Y0065235D02*
X0076830Y0065235D01*
X0077355Y0065760D01*
X0077355Y0066808D01*
X0076830Y0067333D01*
X0075257Y0067333D01*
X0076476Y0070275D02*
X0076476Y0072372D01*
X0075428Y0072372D02*
X0074903Y0072372D01*
X0075428Y0072372D02*
X0076476Y0071323D01*
X0077641Y0070799D02*
X0078166Y0070275D01*
X0079214Y0070275D01*
X0079739Y0070799D01*
X0079739Y0072896D01*
X0079214Y0073421D01*
X0078166Y0073421D01*
X0077641Y0072896D01*
X0079044Y0067333D02*
X0078520Y0066808D01*
X0078520Y0066284D01*
X0080617Y0066284D01*
X0080617Y0065760D02*
X0080617Y0066808D01*
X0080093Y0067333D01*
X0079044Y0067333D01*
X0080617Y0065760D02*
X0080093Y0065235D01*
X0079044Y0065235D01*
X0081744Y0065235D02*
X0082268Y0065760D01*
X0082268Y0067857D01*
X0082793Y0067333D02*
X0081744Y0067333D01*
X0083958Y0066808D02*
X0083958Y0066284D01*
X0086055Y0066284D01*
X0086055Y0065760D02*
X0086055Y0066808D01*
X0085531Y0067333D01*
X0084482Y0067333D01*
X0083958Y0066808D01*
X0084482Y0065235D02*
X0085531Y0065235D01*
X0086055Y0065760D01*
X0087220Y0065760D02*
X0087745Y0065235D01*
X0089318Y0065235D01*
X0089318Y0068381D01*
X0087745Y0068381D01*
X0087220Y0067857D01*
X0087220Y0065760D01*
X0085740Y0070275D02*
X0084691Y0070275D01*
X0084167Y0070799D01*
X0084167Y0071848D01*
X0084691Y0072372D01*
X0085740Y0072372D01*
X0086264Y0071848D01*
X0086264Y0070799D01*
X0085740Y0070275D01*
X0087410Y0072372D02*
X0087934Y0072372D01*
X0088983Y0071323D01*
X0088983Y0070275D02*
X0088983Y0072372D01*
X0090148Y0071848D02*
X0090148Y0071323D01*
X0092246Y0071323D01*
X0092246Y0070799D02*
X0092246Y0071848D01*
X0091721Y0072372D01*
X0090673Y0072372D01*
X0090148Y0071848D01*
X0090673Y0070275D02*
X0091721Y0070275D01*
X0092246Y0070799D01*
X0093411Y0070275D02*
X0095508Y0070275D01*
X0095508Y0070799D01*
X0093411Y0072896D01*
X0093411Y0073421D01*
X0095508Y0073421D01*
X0090762Y0083595D02*
X0089713Y0083595D01*
X0089189Y0084120D01*
X0089189Y0084644D01*
X0089713Y0085168D01*
X0090762Y0085168D01*
X0091286Y0085693D01*
X0091286Y0086217D01*
X0090762Y0086741D01*
X0089713Y0086741D01*
X0089189Y0086217D01*
X0088024Y0085693D02*
X0086975Y0085693D01*
X0087499Y0086217D02*
X0087499Y0084120D01*
X0086975Y0083595D01*
X0085849Y0084120D02*
X0085324Y0084644D01*
X0083751Y0084644D01*
X0083751Y0085168D02*
X0083751Y0083595D01*
X0085324Y0083595D01*
X0085849Y0084120D01*
X0085324Y0085693D02*
X0084276Y0085693D01*
X0083751Y0085168D01*
X0082586Y0085693D02*
X0081537Y0085693D01*
X0082062Y0086217D02*
X0082062Y0084120D01*
X0081537Y0083595D01*
X0080411Y0084120D02*
X0079887Y0083595D01*
X0078314Y0083595D01*
X0078314Y0085693D01*
X0077148Y0085168D02*
X0076624Y0085693D01*
X0075051Y0085693D01*
X0075575Y0084644D02*
X0076624Y0084644D01*
X0077148Y0085168D01*
X0077148Y0083595D02*
X0075575Y0083595D01*
X0075051Y0084120D01*
X0075575Y0084644D01*
X0080411Y0084120D02*
X0080411Y0085693D01*
X0070623Y0086741D02*
X0070623Y0083595D01*
X0068526Y0083595D01*
X0067360Y0083595D02*
X0065263Y0083595D01*
X0064098Y0083595D02*
X0062525Y0083595D01*
X0062000Y0084120D01*
X0062000Y0086217D01*
X0062525Y0086741D01*
X0064098Y0086741D01*
X0064098Y0083595D01*
X0066312Y0085168D02*
X0067360Y0085168D01*
X0067360Y0086741D02*
X0067360Y0083595D01*
X0067360Y0086741D02*
X0065263Y0086741D01*
X0063445Y0073945D02*
X0063445Y0073421D01*
X0064906Y0067333D02*
X0064382Y0066808D01*
X0064382Y0065235D01*
X0066479Y0065235D02*
X0066479Y0067333D01*
X0064906Y0067333D01*
X0090762Y0083595D02*
X0091286Y0084120D01*
X0082893Y0037906D02*
X0081845Y0036858D01*
X0081845Y0034760D01*
X0080679Y0035285D02*
X0080155Y0034760D01*
X0079106Y0034760D01*
X0078582Y0035285D01*
X0080679Y0035285D02*
X0080679Y0037382D01*
X0080155Y0037906D01*
X0079106Y0037906D01*
X0078582Y0037382D01*
X0081845Y0036333D02*
X0083942Y0036333D01*
X0083942Y0036858D02*
X0082893Y0037906D01*
X0083942Y0036858D02*
X0083942Y0034760D01*
X0074154Y0034760D02*
X0072057Y0034760D01*
X0070891Y0034760D02*
X0069843Y0034760D01*
X0070367Y0034760D02*
X0070367Y0037906D01*
X0070891Y0037906D02*
X0069843Y0037906D01*
X0068716Y0037906D02*
X0066619Y0034760D01*
X0066619Y0037906D01*
X0065454Y0037906D02*
X0065454Y0034760D01*
X0063356Y0034760D01*
X0064405Y0036333D02*
X0065454Y0036333D01*
X0065454Y0037906D02*
X0063356Y0037906D01*
X0058929Y0037906D02*
X0058929Y0034760D01*
X0057356Y0034760D01*
X0056831Y0035285D01*
X0056831Y0037382D01*
X0057356Y0037906D01*
X0058929Y0037906D01*
X0055666Y0037906D02*
X0055666Y0034760D01*
X0053569Y0034760D01*
X0054617Y0036333D02*
X0055666Y0036333D01*
X0055666Y0037906D02*
X0053569Y0037906D01*
X0052403Y0037906D02*
X0050306Y0037906D01*
X0051355Y0037906D02*
X0051355Y0034760D01*
X0049141Y0034760D02*
X0049141Y0037906D01*
X0047043Y0037906D01*
X0045878Y0037382D02*
X0045878Y0035285D01*
X0045354Y0034760D01*
X0044305Y0034760D01*
X0043781Y0035285D01*
X0043781Y0037382D02*
X0044305Y0037906D01*
X0045354Y0037906D01*
X0045878Y0037382D01*
X0048092Y0036333D02*
X0049141Y0036333D01*
X0049141Y0034760D02*
X0047043Y0034760D01*
X0042615Y0037906D02*
X0040518Y0037906D01*
X0041567Y0037906D02*
X0041567Y0034760D01*
X0039353Y0035285D02*
X0038828Y0034760D01*
X0037780Y0034760D01*
X0037255Y0035285D01*
X0037255Y0037382D01*
X0037780Y0037906D01*
X0038828Y0037906D01*
X0039353Y0037382D01*
X0039353Y0035285D01*
X0036090Y0035809D02*
X0034517Y0035809D01*
X0033993Y0036333D01*
X0033993Y0037382D01*
X0034517Y0037906D01*
X0036090Y0037906D01*
X0036090Y0034760D01*
X0035042Y0035809D02*
X0033993Y0034760D01*
X0068716Y0034760D02*
X0068716Y0037906D01*
X0074154Y0037906D02*
X0074154Y0034760D01*
D14*
X0031706Y0063959D02*
X0030840Y0063053D01*
X0029698Y0063841D01*
X0029659Y0063841D01*
X0029619Y0063801D01*
X0029580Y0063801D01*
X0029541Y0063762D01*
X0029501Y0063762D01*
X0029462Y0063723D01*
X0029423Y0063723D01*
X0029383Y0063683D01*
X0029344Y0063683D01*
X0029304Y0063644D01*
X0029265Y0063644D01*
X0029226Y0063604D01*
X0029147Y0063604D01*
X0029108Y0063565D01*
X0028320Y0065691D01*
X0028438Y0065730D01*
X0028596Y0065809D01*
X0028674Y0065888D01*
X0028753Y0065927D01*
X0028832Y0066006D01*
X0028871Y0066085D01*
X0028950Y0066163D01*
X0029029Y0066321D01*
X0029068Y0066439D01*
X0029147Y0066597D01*
X0029147Y0066715D01*
X0029186Y0066833D01*
X0029186Y0067069D01*
X0029029Y0067541D01*
X0028871Y0067778D01*
X0028793Y0067856D01*
X0028674Y0067935D01*
X0028596Y0068014D01*
X0028478Y0068093D01*
X0028360Y0068132D01*
X0028241Y0068211D01*
X0028123Y0068211D01*
X0027966Y0068250D01*
X0027690Y0068250D01*
X0027572Y0068211D01*
X0027454Y0068211D01*
X0027336Y0068132D01*
X0027218Y0068093D01*
X0026982Y0067935D01*
X0026824Y0067778D01*
X0026667Y0067541D01*
X0026627Y0067423D01*
X0026548Y0067305D01*
X0026548Y0067187D01*
X0026509Y0067069D01*
X0026509Y0066715D01*
X0026548Y0066597D01*
X0026548Y0066518D01*
X0026588Y0066439D01*
X0026627Y0066321D01*
X0026667Y0066242D01*
X0026745Y0066163D01*
X0026785Y0066085D01*
X0026942Y0065927D01*
X0027021Y0065888D01*
X0027100Y0065809D01*
X0027336Y0065691D01*
X0026548Y0063565D01*
X0026548Y0063604D01*
X0026470Y0063604D01*
X0026430Y0063644D01*
X0026391Y0063644D01*
X0026352Y0063683D01*
X0026312Y0063683D01*
X0026273Y0063723D01*
X0026194Y0063723D01*
X0026155Y0063762D01*
X0026115Y0063762D01*
X0026037Y0063841D01*
X0025997Y0063841D01*
X0024856Y0063053D01*
X0023950Y0063959D01*
X0024777Y0065061D01*
X0024737Y0065140D01*
X0024698Y0065179D01*
X0024659Y0065258D01*
X0024659Y0065297D01*
X0024619Y0065376D01*
X0024580Y0065415D01*
X0024541Y0065494D01*
X0024541Y0065534D01*
X0024462Y0065691D01*
X0024462Y0065730D01*
X0024423Y0065809D01*
X0024423Y0065848D01*
X0024383Y0065927D01*
X0024383Y0066006D01*
X0024344Y0066045D01*
X0022966Y0066282D01*
X0022966Y0067541D01*
X0024383Y0067778D01*
X0024383Y0067935D01*
X0024423Y0067974D01*
X0024423Y0068053D01*
X0024462Y0068093D01*
X0024501Y0068171D01*
X0024501Y0068250D01*
X0024541Y0068289D01*
X0024541Y0068368D01*
X0024580Y0068408D01*
X0024619Y0068486D01*
X0024659Y0068526D01*
X0024659Y0068604D01*
X0024698Y0068644D01*
X0024737Y0068723D01*
X0024777Y0068762D01*
X0023950Y0069904D01*
X0024856Y0070770D01*
X0025997Y0069982D01*
X0026037Y0070022D01*
X0026115Y0070061D01*
X0026155Y0070061D01*
X0026234Y0070100D01*
X0026273Y0070140D01*
X0026352Y0070179D01*
X0026391Y0070179D01*
X0026470Y0070219D01*
X0026509Y0070258D01*
X0026588Y0070258D01*
X0026667Y0070297D01*
X0026706Y0070297D01*
X0026785Y0070337D01*
X0026824Y0070337D01*
X0026903Y0070376D01*
X0026982Y0070376D01*
X0027218Y0071754D01*
X0028478Y0071754D01*
X0028714Y0070376D01*
X0028753Y0070376D01*
X0028832Y0070337D01*
X0028911Y0070337D01*
X0028950Y0070297D01*
X0029029Y0070297D01*
X0029108Y0070258D01*
X0029147Y0070258D01*
X0029226Y0070219D01*
X0029265Y0070179D01*
X0029344Y0070179D01*
X0029383Y0070140D01*
X0029462Y0070100D01*
X0029501Y0070061D01*
X0029580Y0070061D01*
X0029619Y0070022D01*
X0029698Y0069982D01*
X0030840Y0070770D01*
X0031706Y0069904D01*
X0030919Y0068762D01*
X0030958Y0068723D01*
X0030958Y0068644D01*
X0030997Y0068604D01*
X0031037Y0068526D01*
X0031076Y0068486D01*
X0031076Y0068408D01*
X0031115Y0068368D01*
X0031155Y0068289D01*
X0031155Y0068250D01*
X0031234Y0068093D01*
X0031234Y0068053D01*
X0031273Y0067974D01*
X0031273Y0067935D01*
X0031312Y0067856D01*
X0031312Y0067778D01*
X0032690Y0067541D01*
X0032690Y0066282D01*
X0031312Y0066045D01*
X0031312Y0066006D01*
X0031273Y0065927D01*
X0031273Y0065848D01*
X0031234Y0065809D01*
X0031234Y0065730D01*
X0031194Y0065691D01*
X0031155Y0065612D01*
X0031155Y0065534D01*
X0031115Y0065494D01*
X0031115Y0065415D01*
X0031076Y0065376D01*
X0031037Y0065297D01*
X0030997Y0065258D01*
X0030958Y0065179D01*
X0030958Y0065140D01*
X0030919Y0065061D01*
X0031706Y0063959D01*
X0031595Y0064114D02*
X0028904Y0064114D01*
X0028794Y0064412D02*
X0031383Y0064412D01*
X0031170Y0064709D02*
X0028684Y0064709D01*
X0028573Y0065007D02*
X0030957Y0065007D01*
X0031040Y0065305D02*
X0028463Y0065305D01*
X0028353Y0065602D02*
X0031155Y0065602D01*
X0031273Y0065900D02*
X0028699Y0065900D01*
X0028967Y0066198D02*
X0032202Y0066198D01*
X0032690Y0066496D02*
X0029096Y0066496D01*
X0029173Y0066793D02*
X0032690Y0066793D01*
X0032690Y0067091D02*
X0029179Y0067091D01*
X0029080Y0067389D02*
X0032690Y0067389D01*
X0031844Y0067687D02*
X0028932Y0067687D01*
X0028625Y0067984D02*
X0031268Y0067984D01*
X0031155Y0068282D02*
X0024533Y0068282D01*
X0024423Y0067984D02*
X0027055Y0067984D01*
X0026763Y0067687D02*
X0023837Y0067687D01*
X0022966Y0067389D02*
X0026604Y0067389D01*
X0026516Y0067091D02*
X0022966Y0067091D01*
X0022966Y0066793D02*
X0026509Y0066793D01*
X0026560Y0066496D02*
X0022966Y0066496D01*
X0023454Y0066198D02*
X0026711Y0066198D01*
X0026996Y0065900D02*
X0024397Y0065900D01*
X0024506Y0065602D02*
X0027303Y0065602D01*
X0027193Y0065305D02*
X0024655Y0065305D01*
X0024736Y0065007D02*
X0027083Y0065007D01*
X0026972Y0064709D02*
X0024513Y0064709D01*
X0024290Y0064412D02*
X0026862Y0064412D01*
X0026752Y0064114D02*
X0024066Y0064114D01*
X0024093Y0063816D02*
X0025962Y0063816D01*
X0026061Y0063816D02*
X0026641Y0063816D01*
X0025530Y0063518D02*
X0024390Y0063518D01*
X0024688Y0063221D02*
X0025098Y0063221D01*
X0029015Y0063816D02*
X0029634Y0063816D01*
X0029734Y0063816D02*
X0031570Y0063816D01*
X0031285Y0063518D02*
X0030165Y0063518D01*
X0030597Y0063221D02*
X0031000Y0063221D01*
X0031010Y0068580D02*
X0024659Y0068580D01*
X0024693Y0068877D02*
X0030998Y0068877D01*
X0031204Y0069175D02*
X0024478Y0069175D01*
X0024262Y0069473D02*
X0031409Y0069473D01*
X0031614Y0069771D02*
X0024046Y0069771D01*
X0024122Y0070068D02*
X0025873Y0070068D01*
X0026169Y0070068D02*
X0029494Y0070068D01*
X0029823Y0070068D02*
X0031541Y0070068D01*
X0031244Y0070366D02*
X0030254Y0070366D01*
X0030686Y0070664D02*
X0030946Y0070664D01*
X0028773Y0070366D02*
X0026883Y0070366D01*
X0027031Y0070664D02*
X0028665Y0070664D01*
X0028613Y0070962D02*
X0027082Y0070962D01*
X0027133Y0071259D02*
X0028562Y0071259D01*
X0028511Y0071557D02*
X0027184Y0071557D01*
X0025441Y0070366D02*
X0024434Y0070366D01*
X0024745Y0070664D02*
X0025009Y0070664D01*
D15*
X0058511Y0053565D03*
X0058511Y0053465D03*
X0058511Y0053365D03*
X0058511Y0053265D03*
X0058511Y0053165D03*
X0076181Y0041265D03*
D16*
X0072561Y0041265D03*
D17*
X0069376Y0041265D03*
X0046446Y0041265D03*
X0041576Y0041265D03*
X0040646Y0046265D03*
D18*
X0042541Y0052865D03*
X0042541Y0052965D03*
X0042541Y0053065D03*
X0042541Y0053165D03*
X0042541Y0053265D03*
X0042541Y0053365D03*
X0064681Y0041265D03*
D19*
X0059326Y0041265D03*
D20*
X0050446Y0041265D03*
D21*
X0076181Y0041298D03*
D22*
X0072561Y0041298D03*
X0053961Y0053931D03*
D23*
X0058946Y0046031D03*
X0069376Y0041298D03*
D24*
X0064626Y0041298D03*
X0059326Y0041398D03*
X0046426Y0041398D03*
X0041926Y0042798D03*
X0041596Y0041398D03*
D25*
X0041596Y0041298D03*
X0046426Y0041298D03*
X0054496Y0045998D03*
X0059326Y0041298D03*
D26*
X0054181Y0045598D03*
X0050481Y0043998D03*
X0050441Y0041298D03*
D27*
X0046081Y0044831D03*
X0043411Y0041931D03*
X0043411Y0041898D03*
X0076181Y0041331D03*
D28*
X0072561Y0041331D03*
X0059761Y0051198D03*
X0046061Y0051198D03*
X0044631Y0042931D03*
D29*
X0069376Y0041331D03*
D30*
X0069381Y0041431D03*
X0064611Y0041331D03*
X0056741Y0046531D03*
X0049811Y0051198D03*
X0041541Y0042631D03*
X0041481Y0042598D03*
X0074711Y0042531D03*
D31*
X0074691Y0044031D03*
X0064691Y0044031D03*
X0059331Y0041331D03*
X0056761Y0046698D03*
X0046431Y0041331D03*
X0041591Y0041331D03*
D32*
X0040546Y0046098D03*
X0045246Y0051998D03*
X0045246Y0052031D03*
X0045246Y0052098D03*
X0045246Y0052131D03*
X0045246Y0052198D03*
X0045246Y0052231D03*
X0045246Y0052298D03*
X0054246Y0045698D03*
X0050446Y0041331D03*
D33*
X0050446Y0041665D03*
X0050446Y0041765D03*
X0050446Y0041865D03*
X0050446Y0041965D03*
X0050446Y0042065D03*
X0050446Y0042165D03*
X0050446Y0042265D03*
X0050446Y0042365D03*
X0050446Y0042465D03*
X0050446Y0042565D03*
X0050446Y0042665D03*
X0050446Y0042765D03*
X0050446Y0042865D03*
X0050446Y0042965D03*
X0050446Y0043065D03*
X0050446Y0043165D03*
X0050446Y0043265D03*
X0050446Y0043365D03*
X0050446Y0043465D03*
X0050446Y0043565D03*
X0048246Y0043465D03*
X0048246Y0043365D03*
X0048246Y0043265D03*
X0048246Y0043165D03*
X0048246Y0043065D03*
X0048246Y0042965D03*
X0048246Y0042865D03*
X0048246Y0042765D03*
X0048246Y0042665D03*
X0048246Y0042565D03*
X0048246Y0042465D03*
X0048246Y0042365D03*
X0048246Y0042265D03*
X0048246Y0042165D03*
X0048246Y0042065D03*
X0048246Y0041965D03*
X0048246Y0041865D03*
X0048246Y0041765D03*
X0044646Y0043065D03*
X0044646Y0043165D03*
X0044646Y0043265D03*
X0044646Y0043365D03*
X0044646Y0043465D03*
X0043376Y0043465D03*
X0043376Y0043365D03*
X0043376Y0043265D03*
X0043376Y0043165D03*
X0043376Y0043065D03*
X0043376Y0042965D03*
X0039776Y0043465D03*
X0059776Y0044865D03*
X0062546Y0043465D03*
X0062546Y0043365D03*
X0062546Y0043265D03*
X0062546Y0043165D03*
X0062546Y0043065D03*
X0062546Y0042965D03*
X0062546Y0042265D03*
X0062546Y0042165D03*
X0062546Y0042065D03*
X0062546Y0041965D03*
X0062546Y0041865D03*
X0062546Y0041765D03*
X0066146Y0041765D03*
X0066146Y0041865D03*
X0066146Y0041965D03*
X0066146Y0042065D03*
X0066146Y0042165D03*
X0066146Y0042265D03*
X0066146Y0042365D03*
X0066146Y0042865D03*
X0066146Y0042965D03*
X0066146Y0043065D03*
X0066146Y0043165D03*
X0066146Y0043265D03*
X0066146Y0043365D03*
X0066146Y0043465D03*
X0066146Y0043565D03*
X0067576Y0043465D03*
X0067576Y0043365D03*
X0067576Y0043265D03*
X0067576Y0043165D03*
X0067576Y0043065D03*
X0067576Y0042965D03*
X0067576Y0042865D03*
X0067576Y0042765D03*
X0067576Y0042665D03*
X0067576Y0042565D03*
X0067576Y0042465D03*
X0067576Y0042365D03*
X0067576Y0042265D03*
X0067576Y0042165D03*
X0067576Y0042065D03*
X0067576Y0041965D03*
X0067576Y0041865D03*
X0067576Y0041765D03*
X0066146Y0041665D03*
X0071176Y0041765D03*
X0071176Y0041865D03*
X0071176Y0041965D03*
X0071176Y0042065D03*
X0071176Y0042165D03*
X0071176Y0042265D03*
X0071176Y0042365D03*
X0071176Y0042465D03*
X0071176Y0042565D03*
X0071176Y0042665D03*
X0071176Y0042765D03*
X0071176Y0042865D03*
X0071176Y0042965D03*
X0071176Y0043065D03*
X0071176Y0043165D03*
X0071176Y0043265D03*
X0071176Y0043365D03*
X0071176Y0043465D03*
X0072576Y0043465D03*
X0072576Y0043365D03*
X0072576Y0043265D03*
X0072576Y0043165D03*
X0072576Y0043065D03*
X0072576Y0042965D03*
X0076176Y0042965D03*
X0076176Y0043065D03*
X0076176Y0043165D03*
X0076176Y0043265D03*
X0076176Y0043365D03*
X0076176Y0043465D03*
X0076176Y0043565D03*
X0076176Y0042865D03*
X0076176Y0042365D03*
X0076176Y0042265D03*
X0076176Y0042165D03*
X0076176Y0042065D03*
X0076176Y0041965D03*
X0076176Y0041865D03*
X0076176Y0041765D03*
X0076176Y0041665D03*
X0076176Y0041565D03*
X0076176Y0041465D03*
X0076176Y0041365D03*
X0061976Y0053865D03*
X0059746Y0051165D03*
D34*
X0072581Y0041365D03*
X0039781Y0043365D03*
D35*
X0046446Y0041365D03*
X0049776Y0045665D03*
X0058746Y0046265D03*
X0069376Y0041365D03*
D36*
X0064596Y0041365D03*
X0054296Y0043665D03*
D37*
X0059311Y0041365D03*
D38*
X0050441Y0041365D03*
X0060511Y0051965D03*
X0060511Y0052065D03*
X0060511Y0052165D03*
X0060511Y0052265D03*
D39*
X0041161Y0042465D03*
X0041591Y0041365D03*
D40*
X0043376Y0042998D03*
X0043376Y0043031D03*
X0043376Y0043098D03*
X0043376Y0043131D03*
X0043376Y0043198D03*
X0043376Y0043231D03*
X0043376Y0043298D03*
X0043376Y0043331D03*
X0043376Y0043398D03*
X0043376Y0043431D03*
X0043376Y0043498D03*
X0043376Y0043531D03*
X0044646Y0043531D03*
X0044646Y0043498D03*
X0044646Y0043431D03*
X0044646Y0043398D03*
X0044646Y0043331D03*
X0044646Y0043298D03*
X0044646Y0043231D03*
X0044646Y0043198D03*
X0044646Y0043131D03*
X0044646Y0043098D03*
X0044646Y0043031D03*
X0044646Y0042998D03*
X0044646Y0041831D03*
X0044646Y0041798D03*
X0048246Y0041798D03*
X0048246Y0041831D03*
X0048246Y0041898D03*
X0048246Y0041931D03*
X0048246Y0041998D03*
X0048246Y0042031D03*
X0048246Y0042098D03*
X0048246Y0042131D03*
X0048246Y0042198D03*
X0048246Y0042231D03*
X0048246Y0042298D03*
X0048246Y0042331D03*
X0048246Y0042398D03*
X0048246Y0042431D03*
X0048246Y0042498D03*
X0048246Y0042531D03*
X0048246Y0042598D03*
X0048246Y0042631D03*
X0048246Y0042698D03*
X0048246Y0042731D03*
X0048246Y0042798D03*
X0048246Y0042831D03*
X0048246Y0042898D03*
X0048246Y0042931D03*
X0048246Y0042998D03*
X0048246Y0043031D03*
X0048246Y0043098D03*
X0048246Y0043131D03*
X0048246Y0043198D03*
X0048246Y0043231D03*
X0048246Y0043298D03*
X0048246Y0043331D03*
X0048246Y0043398D03*
X0048246Y0043431D03*
X0048246Y0043498D03*
X0048246Y0043531D03*
X0050446Y0043531D03*
X0050446Y0043498D03*
X0050446Y0043431D03*
X0050446Y0043398D03*
X0050446Y0043331D03*
X0050446Y0043298D03*
X0050446Y0043231D03*
X0050446Y0043198D03*
X0050446Y0043131D03*
X0050446Y0043098D03*
X0050446Y0043031D03*
X0050446Y0042998D03*
X0050446Y0042931D03*
X0050446Y0042898D03*
X0050446Y0042831D03*
X0050446Y0042798D03*
X0050446Y0042731D03*
X0050446Y0042698D03*
X0050446Y0042631D03*
X0050446Y0042598D03*
X0050446Y0042531D03*
X0050446Y0042498D03*
X0050446Y0042431D03*
X0050446Y0042398D03*
X0050446Y0042331D03*
X0050446Y0042298D03*
X0050446Y0042231D03*
X0050446Y0042198D03*
X0050446Y0042131D03*
X0050446Y0042098D03*
X0050446Y0042031D03*
X0050446Y0041998D03*
X0050446Y0041931D03*
X0050446Y0041898D03*
X0050446Y0041831D03*
X0050446Y0041798D03*
X0050446Y0041731D03*
X0050446Y0041698D03*
X0050446Y0043598D03*
X0050446Y0043631D03*
X0039776Y0043431D03*
X0039776Y0043398D03*
X0062546Y0043398D03*
X0062546Y0043431D03*
X0062546Y0043498D03*
X0062546Y0043531D03*
X0062546Y0043331D03*
X0062546Y0043298D03*
X0062546Y0043231D03*
X0062546Y0043198D03*
X0062546Y0043131D03*
X0062546Y0043098D03*
X0062546Y0043031D03*
X0062546Y0042998D03*
X0062546Y0042331D03*
X0062546Y0042298D03*
X0062546Y0042231D03*
X0062546Y0042198D03*
X0062546Y0042131D03*
X0062546Y0042098D03*
X0062546Y0042031D03*
X0062546Y0041998D03*
X0062546Y0041931D03*
X0062546Y0041898D03*
X0062546Y0041831D03*
X0062546Y0041798D03*
X0066146Y0041798D03*
X0066146Y0041831D03*
X0066146Y0041898D03*
X0066146Y0041931D03*
X0066146Y0041998D03*
X0066146Y0042031D03*
X0066146Y0042098D03*
X0066146Y0042131D03*
X0066146Y0042198D03*
X0066146Y0042231D03*
X0066146Y0042298D03*
X0066146Y0042331D03*
X0066146Y0042398D03*
X0066146Y0042431D03*
X0066146Y0042898D03*
X0066146Y0042931D03*
X0066146Y0042998D03*
X0066146Y0043031D03*
X0066146Y0043098D03*
X0066146Y0043131D03*
X0066146Y0043198D03*
X0066146Y0043231D03*
X0066146Y0043298D03*
X0066146Y0043331D03*
X0066146Y0043398D03*
X0066146Y0043431D03*
X0066146Y0043498D03*
X0066146Y0043531D03*
X0066146Y0043598D03*
X0066146Y0043631D03*
X0067576Y0043531D03*
X0067576Y0043498D03*
X0067576Y0043431D03*
X0067576Y0043398D03*
X0067576Y0043331D03*
X0067576Y0043298D03*
X0067576Y0043231D03*
X0067576Y0043198D03*
X0067576Y0043131D03*
X0067576Y0043098D03*
X0067576Y0043031D03*
X0067576Y0042998D03*
X0067576Y0042931D03*
X0067576Y0042898D03*
X0067576Y0042831D03*
X0067576Y0042798D03*
X0067576Y0042731D03*
X0067576Y0042698D03*
X0067576Y0042631D03*
X0067576Y0042598D03*
X0067576Y0042531D03*
X0067576Y0042498D03*
X0067576Y0042431D03*
X0067576Y0042398D03*
X0067576Y0042331D03*
X0067576Y0042298D03*
X0067576Y0042231D03*
X0067576Y0042198D03*
X0067576Y0042131D03*
X0067576Y0042098D03*
X0067576Y0042031D03*
X0067576Y0041998D03*
X0067576Y0041931D03*
X0067576Y0041898D03*
X0067576Y0041831D03*
X0067576Y0041798D03*
X0066146Y0041731D03*
X0066146Y0041698D03*
X0071176Y0041798D03*
X0071176Y0041831D03*
X0071176Y0041898D03*
X0071176Y0041931D03*
X0071176Y0041998D03*
X0071176Y0042031D03*
X0071176Y0042098D03*
X0071176Y0042131D03*
X0071176Y0042198D03*
X0071176Y0042231D03*
X0071176Y0042298D03*
X0071176Y0042331D03*
X0071176Y0042398D03*
X0071176Y0042431D03*
X0071176Y0042498D03*
X0071176Y0042531D03*
X0071176Y0042598D03*
X0071176Y0042631D03*
X0071176Y0042698D03*
X0071176Y0042731D03*
X0071176Y0042798D03*
X0071176Y0042831D03*
X0071176Y0042898D03*
X0071176Y0042931D03*
X0071176Y0042998D03*
X0071176Y0043031D03*
X0071176Y0043098D03*
X0071176Y0043131D03*
X0071176Y0043198D03*
X0071176Y0043231D03*
X0071176Y0043298D03*
X0071176Y0043331D03*
X0071176Y0043398D03*
X0071176Y0043431D03*
X0071176Y0043498D03*
X0071176Y0043531D03*
X0072576Y0043531D03*
X0072576Y0043498D03*
X0072576Y0043431D03*
X0072576Y0043398D03*
X0072576Y0043331D03*
X0072576Y0043298D03*
X0072576Y0043231D03*
X0072576Y0043198D03*
X0072576Y0043131D03*
X0072576Y0043098D03*
X0072576Y0043031D03*
X0072576Y0042998D03*
X0072576Y0041398D03*
X0076176Y0041398D03*
X0076176Y0041431D03*
X0076176Y0041498D03*
X0076176Y0041531D03*
X0076176Y0041598D03*
X0076176Y0041631D03*
X0076176Y0041698D03*
X0076176Y0041731D03*
X0076176Y0041798D03*
X0076176Y0041831D03*
X0076176Y0041898D03*
X0076176Y0041931D03*
X0076176Y0041998D03*
X0076176Y0042031D03*
X0076176Y0042098D03*
X0076176Y0042131D03*
X0076176Y0042198D03*
X0076176Y0042231D03*
X0076176Y0042298D03*
X0076176Y0042331D03*
X0076176Y0042398D03*
X0076176Y0042431D03*
X0076176Y0042898D03*
X0076176Y0042931D03*
X0076176Y0042998D03*
X0076176Y0043031D03*
X0076176Y0043098D03*
X0076176Y0043131D03*
X0076176Y0043198D03*
X0076176Y0043231D03*
X0076176Y0043298D03*
X0076176Y0043331D03*
X0076176Y0043398D03*
X0076176Y0043431D03*
X0076176Y0043498D03*
X0076176Y0043531D03*
X0076176Y0043598D03*
X0076176Y0043631D03*
D41*
X0069381Y0043898D03*
X0069381Y0041398D03*
X0059311Y0043898D03*
X0056741Y0046598D03*
X0049811Y0051231D03*
X0046441Y0043898D03*
X0041581Y0043898D03*
D42*
X0064561Y0043898D03*
X0064561Y0042631D03*
X0064561Y0041398D03*
D43*
X0069376Y0044031D03*
X0050446Y0043898D03*
X0050446Y0043831D03*
X0050446Y0041431D03*
X0050446Y0041398D03*
X0041576Y0044031D03*
X0045446Y0049831D03*
D44*
X0043361Y0042931D03*
X0043391Y0041798D03*
X0039791Y0041798D03*
X0039791Y0041831D03*
X0039791Y0041898D03*
X0039791Y0041931D03*
X0039791Y0041998D03*
X0039791Y0042031D03*
X0039791Y0042098D03*
X0039791Y0042131D03*
X0039791Y0042198D03*
X0039791Y0042231D03*
X0039791Y0042298D03*
X0039791Y0042331D03*
X0039791Y0043498D03*
X0039791Y0043531D03*
X0048231Y0041731D03*
X0057531Y0043531D03*
X0061091Y0041731D03*
X0062561Y0041731D03*
X0062561Y0042931D03*
X0067591Y0041731D03*
X0071161Y0041731D03*
X0072591Y0041431D03*
X0072591Y0042931D03*
D45*
X0064531Y0041431D03*
X0066391Y0051231D03*
X0049761Y0045531D03*
D46*
X0046426Y0041431D03*
X0041596Y0041431D03*
X0041696Y0042698D03*
X0059326Y0041431D03*
D47*
X0054296Y0041431D03*
X0056796Y0047498D03*
D48*
X0048211Y0043565D03*
X0039811Y0043565D03*
X0039811Y0042365D03*
X0065411Y0052865D03*
X0065411Y0052965D03*
X0065411Y0053065D03*
X0065411Y0053165D03*
X0065411Y0053265D03*
X0065411Y0053365D03*
X0065411Y0053465D03*
X0065411Y0053565D03*
X0065411Y0053665D03*
X0072711Y0041565D03*
X0072611Y0041465D03*
D49*
X0074646Y0042565D03*
X0069376Y0041465D03*
X0046446Y0041465D03*
D50*
X0046441Y0041565D03*
X0049781Y0050565D03*
X0064481Y0041465D03*
D51*
X0059331Y0041465D03*
X0041591Y0041465D03*
D52*
X0054296Y0041465D03*
D53*
X0050446Y0041465D03*
X0050446Y0043865D03*
D54*
X0044676Y0041731D03*
X0043376Y0041731D03*
X0057546Y0041731D03*
X0072646Y0041498D03*
X0072676Y0041531D03*
X0072976Y0041798D03*
D55*
X0074576Y0042598D03*
X0069376Y0041498D03*
X0049776Y0044898D03*
X0049776Y0050498D03*
D56*
X0064461Y0043798D03*
X0064461Y0041498D03*
D57*
X0059326Y0041498D03*
X0059326Y0043798D03*
X0054296Y0044031D03*
X0046426Y0043798D03*
X0041596Y0043798D03*
X0041596Y0041498D03*
X0074596Y0043898D03*
D58*
X0056796Y0047431D03*
X0053726Y0044831D03*
X0054296Y0041498D03*
X0044626Y0041931D03*
X0039996Y0044831D03*
D59*
X0050461Y0043798D03*
X0050461Y0041498D03*
X0056761Y0046898D03*
D60*
X0046441Y0041498D03*
X0069381Y0043798D03*
D61*
X0069376Y0041531D03*
X0074546Y0042631D03*
X0049776Y0044931D03*
X0046446Y0041531D03*
X0041576Y0041531D03*
X0049776Y0050531D03*
D62*
X0049761Y0045431D03*
X0049761Y0044998D03*
X0046431Y0043698D03*
X0046461Y0041598D03*
X0041591Y0041598D03*
X0041591Y0043698D03*
X0054291Y0043731D03*
X0059331Y0043698D03*
X0064431Y0042531D03*
X0064431Y0041531D03*
D63*
X0064496Y0042598D03*
X0064496Y0043831D03*
X0059326Y0041531D03*
X0054296Y0043698D03*
X0049796Y0051098D03*
X0074526Y0043831D03*
D64*
X0054296Y0041531D03*
X0044626Y0041898D03*
D65*
X0050461Y0041531D03*
X0056761Y0046931D03*
D66*
X0064446Y0042565D03*
X0069376Y0041565D03*
D67*
X0064411Y0041565D03*
D68*
X0059326Y0041565D03*
X0049796Y0051065D03*
X0041596Y0041565D03*
D69*
X0043411Y0041865D03*
X0053711Y0044865D03*
X0054311Y0043565D03*
X0054311Y0043465D03*
X0054311Y0043365D03*
X0054311Y0043265D03*
X0054311Y0043165D03*
X0054311Y0043065D03*
X0054311Y0042965D03*
X0054311Y0042865D03*
X0054311Y0042765D03*
X0054311Y0042665D03*
X0054311Y0042565D03*
X0054311Y0042465D03*
X0054311Y0042365D03*
X0054311Y0042265D03*
X0054311Y0042165D03*
X0054311Y0042065D03*
X0054311Y0041965D03*
X0054311Y0041865D03*
X0054311Y0041765D03*
X0054311Y0041665D03*
X0054311Y0041565D03*
X0057511Y0041765D03*
X0057511Y0041865D03*
X0057511Y0041965D03*
X0057511Y0042065D03*
X0057511Y0042165D03*
X0057511Y0042265D03*
X0057511Y0042365D03*
X0057511Y0042465D03*
X0057511Y0042565D03*
X0057511Y0042665D03*
X0057511Y0042765D03*
X0057511Y0042865D03*
X0057511Y0042965D03*
X0057511Y0043065D03*
X0057511Y0043165D03*
X0057511Y0043265D03*
X0057511Y0043365D03*
X0057511Y0043465D03*
X0061111Y0043465D03*
X0061111Y0043365D03*
X0061111Y0043265D03*
X0061111Y0043165D03*
X0061111Y0043065D03*
X0061111Y0042965D03*
X0061111Y0042865D03*
X0061111Y0042765D03*
X0061111Y0042665D03*
X0061111Y0042565D03*
X0061111Y0042465D03*
X0061111Y0042365D03*
X0061111Y0042265D03*
X0061111Y0042165D03*
X0061111Y0042065D03*
X0061111Y0041965D03*
X0061111Y0041865D03*
X0061111Y0041765D03*
D70*
X0059246Y0045665D03*
X0056776Y0046965D03*
X0050446Y0041565D03*
D71*
X0039861Y0041698D03*
X0053961Y0053831D03*
X0061061Y0043598D03*
X0061061Y0041698D03*
X0072761Y0041598D03*
X0072861Y0041698D03*
X0073361Y0042131D03*
X0073461Y0042231D03*
X0073561Y0042331D03*
X0073661Y0042398D03*
D72*
X0069376Y0041598D03*
X0069376Y0043698D03*
X0049776Y0045031D03*
X0049776Y0050631D03*
X0049776Y0051031D03*
D73*
X0064381Y0043698D03*
X0064381Y0042831D03*
X0064381Y0041598D03*
X0069381Y0041631D03*
X0074411Y0042831D03*
X0074411Y0043698D03*
X0066341Y0051198D03*
D74*
X0064411Y0043731D03*
X0064411Y0042798D03*
X0064411Y0042498D03*
X0059311Y0041598D03*
D75*
X0057511Y0041798D03*
X0057511Y0041831D03*
X0057511Y0041898D03*
X0057511Y0041931D03*
X0057511Y0041998D03*
X0057511Y0042031D03*
X0057511Y0042098D03*
X0057511Y0042131D03*
X0057511Y0042198D03*
X0057511Y0042231D03*
X0057511Y0042298D03*
X0057511Y0042331D03*
X0057511Y0042398D03*
X0057511Y0042431D03*
X0057511Y0042498D03*
X0057511Y0042531D03*
X0057511Y0042598D03*
X0057511Y0042631D03*
X0057511Y0042698D03*
X0057511Y0042731D03*
X0057511Y0042798D03*
X0057511Y0042831D03*
X0057511Y0042898D03*
X0057511Y0042931D03*
X0057511Y0042998D03*
X0057511Y0043031D03*
X0057511Y0043098D03*
X0057511Y0043131D03*
X0057511Y0043198D03*
X0057511Y0043231D03*
X0057511Y0043298D03*
X0057511Y0043331D03*
X0057511Y0043398D03*
X0057511Y0043431D03*
X0057511Y0043498D03*
X0054311Y0043498D03*
X0054311Y0043531D03*
X0054311Y0043598D03*
X0054311Y0043631D03*
X0054311Y0043431D03*
X0054311Y0043398D03*
X0054311Y0043331D03*
X0054311Y0043298D03*
X0054311Y0043231D03*
X0054311Y0043198D03*
X0054311Y0043131D03*
X0054311Y0043098D03*
X0054311Y0043031D03*
X0054311Y0042998D03*
X0054311Y0042931D03*
X0054311Y0042898D03*
X0054311Y0042831D03*
X0054311Y0042798D03*
X0054311Y0042731D03*
X0054311Y0042698D03*
X0054311Y0042631D03*
X0054311Y0042598D03*
X0054311Y0042531D03*
X0054311Y0042498D03*
X0054311Y0042431D03*
X0054311Y0042398D03*
X0054311Y0042331D03*
X0054311Y0042298D03*
X0054311Y0042231D03*
X0054311Y0042198D03*
X0054311Y0042131D03*
X0054311Y0042098D03*
X0054311Y0042031D03*
X0054311Y0041998D03*
X0054311Y0041931D03*
X0054311Y0041898D03*
X0054311Y0041831D03*
X0054311Y0041798D03*
X0054311Y0041731D03*
X0054311Y0041698D03*
X0054311Y0041631D03*
X0054311Y0041598D03*
X0061111Y0041798D03*
X0061111Y0041831D03*
X0061111Y0041898D03*
X0061111Y0041931D03*
X0061111Y0041998D03*
X0061111Y0042031D03*
X0061111Y0042098D03*
X0061111Y0042131D03*
X0061111Y0042198D03*
X0061111Y0042231D03*
X0061111Y0042298D03*
X0061111Y0042331D03*
X0061111Y0042398D03*
X0061111Y0042431D03*
X0061111Y0042498D03*
X0061111Y0042531D03*
X0061111Y0042598D03*
X0061111Y0042631D03*
X0061111Y0042698D03*
X0061111Y0042731D03*
X0061111Y0042798D03*
X0061111Y0042831D03*
X0061111Y0042898D03*
X0061111Y0042931D03*
X0061111Y0042998D03*
X0061111Y0043031D03*
X0061111Y0043098D03*
X0061111Y0043131D03*
X0061111Y0043198D03*
X0061111Y0043231D03*
X0061111Y0043298D03*
X0061111Y0043331D03*
X0061111Y0043398D03*
X0061111Y0043431D03*
X0061111Y0043498D03*
X0061111Y0043531D03*
X0043411Y0041831D03*
D76*
X0040446Y0045898D03*
X0050446Y0041598D03*
X0063346Y0050298D03*
D77*
X0056796Y0047398D03*
X0057596Y0043598D03*
X0057596Y0041698D03*
X0062596Y0041698D03*
X0062626Y0042398D03*
X0071126Y0041698D03*
X0072796Y0041631D03*
X0073026Y0041831D03*
X0073096Y0041898D03*
X0073126Y0041931D03*
X0073196Y0041998D03*
X0073226Y0042031D03*
X0073326Y0042098D03*
X0073426Y0042198D03*
X0073526Y0042298D03*
X0073696Y0042431D03*
X0072626Y0042898D03*
X0071126Y0043598D03*
X0050526Y0052898D03*
X0050526Y0052931D03*
X0050526Y0052998D03*
X0050526Y0053031D03*
X0050526Y0053098D03*
X0050526Y0053131D03*
X0050526Y0053198D03*
X0050526Y0053231D03*
X0050526Y0053298D03*
X0050526Y0053331D03*
X0050526Y0053398D03*
X0050526Y0053431D03*
X0050526Y0053498D03*
X0050526Y0053531D03*
X0050526Y0053598D03*
X0050526Y0053631D03*
X0050526Y0053698D03*
X0044696Y0043598D03*
X0043326Y0043598D03*
X0043326Y0042898D03*
X0043326Y0041698D03*
X0044696Y0041698D03*
D78*
X0049761Y0045098D03*
X0049761Y0045331D03*
X0049761Y0050931D03*
X0064361Y0041631D03*
D79*
X0059326Y0041631D03*
X0054296Y0043931D03*
X0041596Y0041631D03*
X0074426Y0042798D03*
X0074426Y0043731D03*
D80*
X0063091Y0045831D03*
X0050461Y0041631D03*
X0040331Y0045698D03*
D81*
X0046461Y0041631D03*
X0049761Y0045398D03*
X0049761Y0050998D03*
D82*
X0050526Y0052865D03*
X0050526Y0052965D03*
X0050526Y0053065D03*
X0050526Y0053165D03*
X0050526Y0053265D03*
X0050526Y0053365D03*
X0050526Y0053465D03*
X0050526Y0053565D03*
X0050526Y0053665D03*
X0072826Y0041665D03*
X0073396Y0042165D03*
X0073496Y0042265D03*
X0073626Y0042365D03*
D83*
X0071076Y0041665D03*
X0067676Y0041665D03*
X0062676Y0042865D03*
X0043276Y0042865D03*
D84*
X0062661Y0041665D03*
D85*
X0061026Y0041665D03*
X0057626Y0041665D03*
X0048126Y0041665D03*
X0043296Y0041665D03*
X0039896Y0041665D03*
X0061996Y0053765D03*
D86*
X0061981Y0053665D03*
X0061981Y0053565D03*
X0061981Y0052865D03*
X0053941Y0052865D03*
X0053941Y0053565D03*
X0053941Y0053665D03*
X0053941Y0053765D03*
X0044741Y0041665D03*
D87*
X0048181Y0041698D03*
X0048181Y0043598D03*
X0053711Y0044898D03*
X0059781Y0044898D03*
X0062611Y0043598D03*
X0067641Y0043598D03*
X0067641Y0041698D03*
X0072641Y0043598D03*
X0061981Y0053598D03*
X0061981Y0053631D03*
X0061981Y0053698D03*
X0061981Y0053798D03*
X0061981Y0053831D03*
X0053941Y0053731D03*
X0053941Y0053698D03*
X0053941Y0053631D03*
X0053941Y0053598D03*
X0039841Y0043598D03*
X0039881Y0042398D03*
D88*
X0039811Y0041731D03*
X0062611Y0042898D03*
X0072911Y0041731D03*
X0065411Y0052898D03*
X0065411Y0052931D03*
X0065411Y0052998D03*
X0065411Y0053031D03*
X0065411Y0053098D03*
X0065411Y0053131D03*
X0065411Y0053198D03*
X0065411Y0053231D03*
X0065411Y0053298D03*
X0065411Y0053331D03*
X0065411Y0053398D03*
X0065411Y0053431D03*
X0065411Y0053498D03*
X0065411Y0053531D03*
X0065411Y0053598D03*
X0065411Y0053631D03*
X0065411Y0053698D03*
D89*
X0062576Y0043565D03*
X0062576Y0042365D03*
X0057546Y0043565D03*
X0072946Y0041765D03*
X0039976Y0044865D03*
D90*
X0039791Y0042265D03*
X0039791Y0042165D03*
X0039791Y0042065D03*
X0039791Y0041965D03*
X0039791Y0041865D03*
X0039791Y0041765D03*
X0043391Y0041765D03*
X0044661Y0041765D03*
X0044661Y0043565D03*
X0043361Y0043565D03*
X0046061Y0051165D03*
X0039991Y0051165D03*
X0053731Y0051165D03*
X0053961Y0053865D03*
X0061091Y0043565D03*
X0067591Y0043565D03*
X0071161Y0043565D03*
X0072591Y0043565D03*
D91*
X0073261Y0042065D03*
X0073161Y0041965D03*
X0073061Y0041865D03*
X0046061Y0044865D03*
D92*
X0044626Y0042965D03*
X0044626Y0041865D03*
D93*
X0044661Y0041965D03*
D94*
X0043411Y0041965D03*
D95*
X0044646Y0041998D03*
X0053746Y0044798D03*
X0059046Y0053231D03*
X0059046Y0053298D03*
X0059046Y0053331D03*
X0061976Y0053931D03*
D96*
X0059726Y0044798D03*
X0044626Y0042898D03*
X0043396Y0041998D03*
D97*
X0044646Y0042031D03*
D98*
X0043391Y0042031D03*
X0046061Y0051231D03*
D99*
X0039976Y0051131D03*
X0043276Y0043631D03*
X0044746Y0043631D03*
X0057646Y0043631D03*
X0062676Y0043631D03*
X0062676Y0042431D03*
X0071076Y0043631D03*
D100*
X0072711Y0043631D03*
X0067711Y0043631D03*
X0061011Y0043631D03*
X0053711Y0051131D03*
X0057511Y0053131D03*
X0057511Y0053198D03*
X0057511Y0053231D03*
X0057511Y0053298D03*
X0057511Y0053331D03*
X0057511Y0053398D03*
X0057511Y0053431D03*
X0057511Y0053498D03*
X0057511Y0053531D03*
X0039911Y0043631D03*
X0039911Y0042431D03*
D101*
X0054696Y0046265D03*
X0074896Y0042465D03*
D102*
X0069381Y0043665D03*
X0064381Y0042465D03*
X0049781Y0050665D03*
D103*
X0049776Y0044798D03*
X0074776Y0042498D03*
D104*
X0041261Y0042498D03*
D105*
X0041346Y0042531D03*
X0049776Y0045631D03*
D106*
X0046426Y0043865D03*
X0041596Y0043865D03*
X0041426Y0042565D03*
X0059326Y0043865D03*
X0064626Y0043965D03*
D107*
X0074526Y0042665D03*
X0046426Y0043765D03*
X0041596Y0043765D03*
D108*
X0064531Y0043865D03*
X0064531Y0042665D03*
X0074561Y0043865D03*
D109*
X0041626Y0042665D03*
D110*
X0041596Y0043731D03*
X0046426Y0043731D03*
X0054296Y0043998D03*
X0059326Y0043731D03*
X0074496Y0043798D03*
X0074496Y0042698D03*
D111*
X0069381Y0043731D03*
X0066381Y0044798D03*
X0064481Y0042698D03*
D112*
X0064446Y0042731D03*
X0074476Y0042731D03*
X0049776Y0050598D03*
D113*
X0049761Y0050398D03*
X0041761Y0042731D03*
D114*
X0074446Y0042765D03*
D115*
X0074461Y0043765D03*
X0064431Y0043765D03*
X0064431Y0042765D03*
X0054291Y0043965D03*
D116*
X0041846Y0042765D03*
X0069376Y0043865D03*
D117*
X0056761Y0046631D03*
X0054731Y0046298D03*
X0042031Y0042831D03*
D118*
X0057511Y0053165D03*
X0057511Y0053265D03*
X0057511Y0053365D03*
X0057511Y0053465D03*
X0057511Y0053565D03*
X0072711Y0042865D03*
D119*
X0062026Y0053065D03*
X0062026Y0053165D03*
X0062026Y0053265D03*
X0058896Y0053165D03*
X0058896Y0053465D03*
X0058896Y0053565D03*
X0044626Y0042865D03*
D120*
X0039796Y0043265D03*
D121*
X0039796Y0043298D03*
D122*
X0039776Y0043331D03*
X0039976Y0051198D03*
X0053746Y0051198D03*
X0059746Y0044831D03*
X0061976Y0053898D03*
D123*
X0061996Y0053731D03*
X0048126Y0043631D03*
X0039996Y0044898D03*
D124*
X0054296Y0043865D03*
X0074396Y0043665D03*
D125*
X0064361Y0043665D03*
X0049761Y0050965D03*
D126*
X0046426Y0043665D03*
X0041596Y0043665D03*
X0054296Y0043765D03*
X0059326Y0043665D03*
D127*
X0050461Y0043665D03*
D128*
X0050461Y0043698D03*
X0056761Y0046998D03*
X0040461Y0045931D03*
D129*
X0045546Y0049998D03*
X0050446Y0043731D03*
D130*
X0069376Y0043765D03*
D131*
X0059311Y0043765D03*
D132*
X0050461Y0043765D03*
D133*
X0054296Y0043798D03*
X0054296Y0043831D03*
X0054296Y0043898D03*
D134*
X0049776Y0044831D03*
X0049776Y0045598D03*
X0049776Y0050431D03*
X0069376Y0043831D03*
D135*
X0074631Y0043931D03*
X0059331Y0043831D03*
X0056761Y0046498D03*
X0046431Y0043831D03*
X0041591Y0043831D03*
D136*
X0041581Y0043931D03*
X0046441Y0043931D03*
X0054681Y0046231D03*
X0058781Y0046231D03*
X0059311Y0043931D03*
X0069381Y0043931D03*
X0042541Y0052898D03*
X0042541Y0052931D03*
X0042541Y0052998D03*
X0042541Y0053031D03*
X0042541Y0053098D03*
X0042541Y0053131D03*
X0042541Y0053198D03*
X0042541Y0053231D03*
X0042541Y0053298D03*
X0042541Y0053331D03*
D137*
X0064611Y0043931D03*
D138*
X0059181Y0045731D03*
X0054281Y0045731D03*
X0050441Y0043931D03*
X0045481Y0049898D03*
X0040581Y0046131D03*
X0060511Y0051998D03*
X0060511Y0052031D03*
X0060511Y0052098D03*
X0060511Y0052131D03*
X0060511Y0052198D03*
X0060511Y0052231D03*
X0060511Y0052298D03*
D139*
X0074661Y0043965D03*
D140*
X0069381Y0043965D03*
X0059311Y0043965D03*
X0046441Y0043965D03*
X0041581Y0043965D03*
D141*
X0040531Y0046065D03*
X0050461Y0043965D03*
X0054231Y0045665D03*
D142*
X0074696Y0043998D03*
D143*
X0069376Y0043998D03*
X0054446Y0045931D03*
D144*
X0064661Y0043998D03*
D145*
X0059326Y0043998D03*
X0046426Y0043998D03*
X0045296Y0049531D03*
D146*
X0045281Y0049498D03*
X0040781Y0046531D03*
X0041581Y0043998D03*
X0052281Y0051998D03*
X0052281Y0052031D03*
X0052281Y0052098D03*
X0052281Y0052131D03*
X0052281Y0052198D03*
X0052281Y0052231D03*
X0052281Y0052298D03*
X0063641Y0052298D03*
X0063641Y0052231D03*
X0063641Y0052198D03*
X0063641Y0052131D03*
X0063641Y0052098D03*
X0063641Y0052031D03*
X0063641Y0051998D03*
D147*
X0059326Y0044031D03*
X0046426Y0044031D03*
D148*
X0050481Y0044031D03*
X0059381Y0045498D03*
X0063181Y0050231D03*
D149*
X0072926Y0044798D03*
D150*
X0056676Y0053231D03*
X0056676Y0053298D03*
X0056676Y0053331D03*
X0046076Y0044798D03*
X0039976Y0044798D03*
D151*
X0072926Y0044831D03*
D152*
X0066331Y0044831D03*
X0049761Y0045198D03*
X0049761Y0045231D03*
X0049761Y0050798D03*
D153*
X0073196Y0050365D03*
X0073196Y0045665D03*
X0072926Y0044865D03*
D154*
X0066291Y0044865D03*
D155*
X0049761Y0044865D03*
D156*
X0072911Y0044898D03*
X0072911Y0051131D03*
D157*
X0066246Y0044898D03*
D158*
X0059791Y0044931D03*
X0046061Y0044898D03*
D159*
X0072911Y0044931D03*
X0073081Y0045598D03*
D160*
X0066226Y0044931D03*
D161*
X0053711Y0044931D03*
D162*
X0046041Y0044931D03*
D163*
X0039996Y0044931D03*
X0039996Y0051098D03*
X0053726Y0051098D03*
D164*
X0072911Y0044965D03*
D165*
X0066196Y0044965D03*
X0066226Y0051065D03*
D166*
X0059796Y0044965D03*
X0046796Y0052865D03*
X0046796Y0052965D03*
X0046796Y0053065D03*
X0046796Y0053165D03*
X0046796Y0053265D03*
X0046796Y0053365D03*
X0046796Y0053465D03*
X0046796Y0053565D03*
X0046796Y0053665D03*
X0046796Y0053765D03*
X0046796Y0053865D03*
X0046796Y0053965D03*
X0046796Y0054065D03*
X0039996Y0051065D03*
X0039996Y0044965D03*
D167*
X0053711Y0044965D03*
X0053711Y0051065D03*
D168*
X0049761Y0045465D03*
X0049761Y0044965D03*
D169*
X0046046Y0044965D03*
D170*
X0072926Y0044998D03*
X0072996Y0045498D03*
X0072996Y0050531D03*
D171*
X0066191Y0051031D03*
X0066161Y0044998D03*
D172*
X0059776Y0044998D03*
X0056776Y0047298D03*
X0046046Y0044998D03*
D173*
X0053711Y0044998D03*
X0053711Y0051031D03*
D174*
X0059761Y0051031D03*
X0046061Y0051031D03*
X0039991Y0051031D03*
X0039991Y0044998D03*
D175*
X0072941Y0045031D03*
X0072941Y0050998D03*
D176*
X0066146Y0045031D03*
D177*
X0059781Y0045031D03*
X0053711Y0050998D03*
X0046041Y0045031D03*
D178*
X0053726Y0045031D03*
X0039996Y0050931D03*
D179*
X0039996Y0050998D03*
X0039996Y0045031D03*
D180*
X0072926Y0045065D03*
D181*
X0066111Y0045065D03*
D182*
X0068176Y0045765D03*
X0068176Y0045865D03*
X0068176Y0045965D03*
X0068176Y0046065D03*
X0068176Y0046165D03*
X0068176Y0046265D03*
X0068176Y0046365D03*
X0068176Y0046465D03*
X0068176Y0046565D03*
X0068176Y0046665D03*
X0068176Y0046765D03*
X0068176Y0046865D03*
X0068176Y0046965D03*
X0068176Y0047065D03*
X0068176Y0047165D03*
X0068176Y0047265D03*
X0068176Y0047365D03*
X0068176Y0047465D03*
X0068176Y0047565D03*
X0068176Y0047665D03*
X0068176Y0047765D03*
X0068176Y0047865D03*
X0068176Y0047965D03*
X0068176Y0048065D03*
X0068176Y0048165D03*
X0068176Y0048265D03*
X0068176Y0048365D03*
X0068176Y0048465D03*
X0068176Y0048565D03*
X0068176Y0048665D03*
X0068176Y0048765D03*
X0068176Y0048865D03*
X0068176Y0048965D03*
X0068176Y0049065D03*
X0068176Y0049165D03*
X0068176Y0049265D03*
X0068176Y0049365D03*
X0068176Y0049465D03*
X0068176Y0049565D03*
X0068176Y0049665D03*
X0068176Y0049765D03*
X0068176Y0049865D03*
X0068176Y0049965D03*
X0068176Y0050065D03*
X0068176Y0050165D03*
X0068176Y0050265D03*
X0062146Y0049265D03*
X0062146Y0049165D03*
X0062146Y0049065D03*
X0062146Y0048965D03*
X0062146Y0048865D03*
X0062146Y0048765D03*
X0062146Y0048665D03*
X0062146Y0048565D03*
X0062146Y0048465D03*
X0062146Y0048365D03*
X0062146Y0048265D03*
X0062146Y0048165D03*
X0062146Y0048065D03*
X0062146Y0047965D03*
X0062146Y0047865D03*
X0062146Y0047765D03*
X0062146Y0047665D03*
X0062146Y0047565D03*
X0062146Y0047465D03*
X0062146Y0047365D03*
X0062146Y0047265D03*
X0062146Y0047165D03*
X0062146Y0047065D03*
X0062146Y0046965D03*
X0062146Y0046865D03*
X0062146Y0046765D03*
X0062176Y0046665D03*
X0062246Y0046565D03*
X0059746Y0046565D03*
X0059746Y0046665D03*
X0059746Y0046765D03*
X0059746Y0046865D03*
X0059746Y0046965D03*
X0059746Y0047065D03*
X0059746Y0047165D03*
X0059746Y0047265D03*
X0059746Y0047365D03*
X0059746Y0047465D03*
X0059746Y0047565D03*
X0059746Y0047665D03*
X0059746Y0047765D03*
X0059746Y0047865D03*
X0059746Y0047965D03*
X0059746Y0048065D03*
X0059746Y0048165D03*
X0059746Y0048265D03*
X0059746Y0048365D03*
X0059746Y0048465D03*
X0059746Y0048565D03*
X0059746Y0048665D03*
X0059746Y0048765D03*
X0059746Y0048865D03*
X0059746Y0048965D03*
X0059746Y0049065D03*
X0059746Y0049165D03*
X0059746Y0049265D03*
X0059746Y0049365D03*
X0059746Y0049465D03*
X0059746Y0049565D03*
X0059746Y0049665D03*
X0056776Y0047265D03*
X0059746Y0046465D03*
X0059746Y0046365D03*
X0059746Y0045065D03*
X0049776Y0045765D03*
X0049776Y0045865D03*
X0049776Y0045965D03*
X0049776Y0046065D03*
X0049776Y0046165D03*
X0049776Y0046265D03*
X0049776Y0046365D03*
X0049776Y0046465D03*
X0049776Y0046565D03*
X0049776Y0046665D03*
X0049776Y0046765D03*
X0049776Y0046865D03*
X0049776Y0046965D03*
X0049776Y0047065D03*
X0049776Y0047165D03*
X0049776Y0047265D03*
X0049776Y0047365D03*
X0049776Y0047465D03*
X0049776Y0047565D03*
X0049776Y0047665D03*
X0049776Y0047765D03*
X0049776Y0047865D03*
X0049776Y0047965D03*
X0049776Y0048065D03*
X0049776Y0048165D03*
X0049776Y0048265D03*
X0049776Y0048365D03*
X0049776Y0048465D03*
X0049776Y0048565D03*
X0049776Y0048665D03*
X0049776Y0048765D03*
X0049776Y0048865D03*
X0049776Y0048965D03*
X0049776Y0049065D03*
X0049776Y0049165D03*
X0049776Y0049265D03*
X0049776Y0049365D03*
X0049776Y0049465D03*
X0049776Y0049565D03*
X0049776Y0049665D03*
X0049776Y0049765D03*
X0049776Y0049865D03*
X0049776Y0049965D03*
X0049776Y0050065D03*
X0049776Y0050165D03*
X0049776Y0050265D03*
X0046046Y0047665D03*
X0046046Y0047565D03*
X0046046Y0047465D03*
X0046046Y0047365D03*
X0046046Y0047265D03*
X0046046Y0047165D03*
X0046046Y0047065D03*
X0046046Y0046965D03*
X0046046Y0046865D03*
X0046046Y0046765D03*
X0046046Y0046665D03*
X0046046Y0046565D03*
X0046046Y0046465D03*
X0046046Y0046365D03*
X0046046Y0046265D03*
X0046046Y0046165D03*
X0046046Y0046065D03*
X0046046Y0045965D03*
X0046046Y0045865D03*
X0046046Y0045765D03*
X0046046Y0045665D03*
X0046046Y0045565D03*
X0046046Y0045465D03*
X0046046Y0045365D03*
X0046046Y0045265D03*
X0046046Y0045165D03*
X0075946Y0045765D03*
X0075946Y0045865D03*
X0075946Y0045965D03*
X0075946Y0046065D03*
X0075946Y0046165D03*
X0075946Y0046265D03*
X0075946Y0046365D03*
X0075946Y0046465D03*
X0075946Y0046565D03*
X0075946Y0046665D03*
X0075946Y0046765D03*
X0075946Y0046865D03*
X0075946Y0046965D03*
X0075946Y0047065D03*
X0075946Y0047165D03*
X0075946Y0047265D03*
X0075946Y0047365D03*
X0075946Y0047465D03*
X0075946Y0048465D03*
X0075946Y0048565D03*
X0075946Y0048665D03*
X0075946Y0048765D03*
X0075946Y0048865D03*
X0075946Y0048965D03*
X0075946Y0049065D03*
X0075946Y0049165D03*
X0075946Y0049265D03*
X0075946Y0049365D03*
X0075946Y0049465D03*
X0075946Y0049565D03*
X0075946Y0049665D03*
X0075946Y0049765D03*
X0075946Y0049865D03*
X0075946Y0049965D03*
X0075946Y0050065D03*
X0075946Y0050165D03*
X0075946Y0050265D03*
D183*
X0062261Y0049465D03*
X0053731Y0049065D03*
X0053731Y0048965D03*
X0053731Y0048865D03*
X0053731Y0048765D03*
X0053731Y0048665D03*
X0053731Y0048565D03*
X0053731Y0048465D03*
X0053731Y0048365D03*
X0053731Y0048265D03*
X0053731Y0048165D03*
X0053731Y0048065D03*
X0053731Y0047965D03*
X0053731Y0047865D03*
X0053731Y0047765D03*
X0053731Y0047665D03*
X0053731Y0047565D03*
X0053731Y0047465D03*
X0053731Y0047365D03*
X0053731Y0047265D03*
X0053731Y0047165D03*
X0053731Y0047065D03*
X0053731Y0046965D03*
X0053731Y0046865D03*
X0053731Y0046765D03*
X0053731Y0046665D03*
X0053731Y0046565D03*
X0053731Y0046465D03*
X0053731Y0046365D03*
X0053761Y0045065D03*
X0046031Y0047765D03*
X0046031Y0047865D03*
X0046031Y0047965D03*
X0046031Y0048065D03*
X0046031Y0048165D03*
X0046031Y0048265D03*
X0046031Y0048365D03*
X0046031Y0048465D03*
X0046031Y0048565D03*
X0046031Y0048665D03*
X0046031Y0048765D03*
X0046031Y0048865D03*
X0046031Y0048965D03*
X0046031Y0049065D03*
X0046031Y0049165D03*
X0046031Y0049265D03*
X0040031Y0047165D03*
X0040031Y0047065D03*
X0040031Y0046965D03*
X0040031Y0046865D03*
X0040031Y0046765D03*
D184*
X0049761Y0045365D03*
X0049761Y0045065D03*
D185*
X0046041Y0045065D03*
X0040011Y0045065D03*
X0046041Y0050965D03*
X0053711Y0050965D03*
D186*
X0072946Y0050931D03*
X0072946Y0050898D03*
X0072946Y0050831D03*
X0072946Y0050798D03*
X0072946Y0050731D03*
X0072946Y0050698D03*
X0072946Y0045331D03*
X0072946Y0045098D03*
D187*
X0066096Y0045098D03*
X0066096Y0050931D03*
D188*
X0059711Y0045098D03*
X0046011Y0050898D03*
D189*
X0045981Y0050831D03*
X0040081Y0045198D03*
X0053781Y0045098D03*
X0056781Y0047231D03*
X0059681Y0045131D03*
X0062411Y0046331D03*
X0062381Y0049631D03*
D190*
X0062246Y0049431D03*
X0062176Y0049331D03*
X0062176Y0049298D03*
X0062146Y0049231D03*
X0062146Y0049198D03*
X0062146Y0049131D03*
X0062146Y0049098D03*
X0062146Y0049031D03*
X0062146Y0048998D03*
X0062146Y0048931D03*
X0062146Y0048898D03*
X0062146Y0048831D03*
X0062146Y0048798D03*
X0062146Y0048731D03*
X0062146Y0048698D03*
X0062146Y0048631D03*
X0062146Y0048598D03*
X0062146Y0048531D03*
X0062146Y0048498D03*
X0062146Y0048431D03*
X0062146Y0048398D03*
X0062146Y0048331D03*
X0062146Y0048298D03*
X0062146Y0048231D03*
X0062146Y0048198D03*
X0062146Y0048131D03*
X0062146Y0048098D03*
X0062146Y0048031D03*
X0062146Y0047998D03*
X0062146Y0047931D03*
X0062146Y0047898D03*
X0062146Y0047831D03*
X0062146Y0047798D03*
X0062146Y0047731D03*
X0062146Y0047698D03*
X0062146Y0047631D03*
X0062146Y0047598D03*
X0062146Y0047531D03*
X0062146Y0047498D03*
X0062146Y0047431D03*
X0062146Y0047398D03*
X0062146Y0047331D03*
X0062146Y0047298D03*
X0062146Y0047231D03*
X0062146Y0047198D03*
X0062146Y0047131D03*
X0062146Y0047098D03*
X0062146Y0047031D03*
X0062146Y0046998D03*
X0062146Y0046931D03*
X0062146Y0046898D03*
X0062146Y0046831D03*
X0062146Y0046798D03*
X0059746Y0046798D03*
X0059746Y0046831D03*
X0059746Y0046898D03*
X0059746Y0046931D03*
X0059746Y0046998D03*
X0059746Y0047031D03*
X0059746Y0047098D03*
X0059746Y0047131D03*
X0059746Y0047198D03*
X0059746Y0047231D03*
X0059746Y0047298D03*
X0059746Y0047331D03*
X0059746Y0047398D03*
X0059746Y0047431D03*
X0059746Y0047498D03*
X0059746Y0047531D03*
X0059746Y0047598D03*
X0059746Y0047631D03*
X0059746Y0047698D03*
X0059746Y0047731D03*
X0059746Y0047798D03*
X0059746Y0047831D03*
X0059746Y0047898D03*
X0059746Y0047931D03*
X0059746Y0047998D03*
X0059746Y0048031D03*
X0059746Y0048098D03*
X0059746Y0048131D03*
X0059746Y0048198D03*
X0059746Y0048231D03*
X0059746Y0048298D03*
X0059746Y0048331D03*
X0059746Y0048398D03*
X0059746Y0048431D03*
X0059746Y0048498D03*
X0059746Y0048531D03*
X0059746Y0048598D03*
X0059746Y0048631D03*
X0059746Y0048698D03*
X0059746Y0048731D03*
X0059746Y0048798D03*
X0059746Y0048831D03*
X0059746Y0048898D03*
X0059746Y0048931D03*
X0059746Y0048998D03*
X0059746Y0049031D03*
X0059746Y0049098D03*
X0059746Y0049131D03*
X0059746Y0049198D03*
X0059746Y0049231D03*
X0059746Y0049298D03*
X0059746Y0049331D03*
X0059746Y0049398D03*
X0059746Y0049431D03*
X0059746Y0049498D03*
X0059746Y0049531D03*
X0059746Y0049598D03*
X0059746Y0049631D03*
X0059746Y0049698D03*
X0059746Y0049731D03*
X0059746Y0050898D03*
X0059746Y0046731D03*
X0059746Y0046698D03*
X0059746Y0046631D03*
X0059746Y0046598D03*
X0059746Y0046531D03*
X0059746Y0046498D03*
X0059746Y0046431D03*
X0059746Y0046398D03*
X0059746Y0046331D03*
X0068176Y0046331D03*
X0068176Y0046298D03*
X0068176Y0046231D03*
X0068176Y0046198D03*
X0068176Y0046131D03*
X0068176Y0046098D03*
X0068176Y0046031D03*
X0068176Y0045998D03*
X0068176Y0045931D03*
X0068176Y0045898D03*
X0068176Y0045831D03*
X0068176Y0045798D03*
X0068176Y0045731D03*
X0068176Y0045698D03*
X0068176Y0046398D03*
X0068176Y0046431D03*
X0068176Y0046498D03*
X0068176Y0046531D03*
X0068176Y0046598D03*
X0068176Y0046631D03*
X0068176Y0046698D03*
X0068176Y0046731D03*
X0068176Y0046798D03*
X0068176Y0046831D03*
X0068176Y0046898D03*
X0068176Y0046931D03*
X0068176Y0046998D03*
X0068176Y0047031D03*
X0068176Y0047098D03*
X0068176Y0047131D03*
X0068176Y0047198D03*
X0068176Y0047231D03*
X0068176Y0047298D03*
X0068176Y0047331D03*
X0068176Y0047398D03*
X0068176Y0047431D03*
X0068176Y0047498D03*
X0068176Y0047531D03*
X0068176Y0047598D03*
X0068176Y0047631D03*
X0068176Y0047698D03*
X0068176Y0047731D03*
X0068176Y0047798D03*
X0068176Y0047831D03*
X0068176Y0047898D03*
X0068176Y0047931D03*
X0068176Y0047998D03*
X0068176Y0048031D03*
X0068176Y0048098D03*
X0068176Y0048131D03*
X0068176Y0048198D03*
X0068176Y0048231D03*
X0068176Y0048298D03*
X0068176Y0048331D03*
X0068176Y0048398D03*
X0068176Y0048431D03*
X0068176Y0048498D03*
X0068176Y0048531D03*
X0068176Y0048598D03*
X0068176Y0048631D03*
X0068176Y0048698D03*
X0068176Y0048731D03*
X0068176Y0048798D03*
X0068176Y0048831D03*
X0068176Y0048898D03*
X0068176Y0048931D03*
X0068176Y0048998D03*
X0068176Y0049031D03*
X0068176Y0049098D03*
X0068176Y0049131D03*
X0068176Y0049198D03*
X0068176Y0049231D03*
X0068176Y0049298D03*
X0068176Y0049331D03*
X0068176Y0049398D03*
X0068176Y0049431D03*
X0068176Y0049498D03*
X0068176Y0049531D03*
X0068176Y0049598D03*
X0068176Y0049631D03*
X0068176Y0049698D03*
X0068176Y0049731D03*
X0068176Y0049798D03*
X0068176Y0049831D03*
X0068176Y0049898D03*
X0068176Y0049931D03*
X0068176Y0049998D03*
X0068176Y0050031D03*
X0068176Y0050098D03*
X0068176Y0050131D03*
X0068176Y0050198D03*
X0068176Y0050231D03*
X0068176Y0050298D03*
X0068176Y0050331D03*
X0075946Y0050331D03*
X0075946Y0050298D03*
X0075946Y0050231D03*
X0075946Y0050198D03*
X0075946Y0050131D03*
X0075946Y0050098D03*
X0075946Y0050031D03*
X0075946Y0049998D03*
X0075946Y0049931D03*
X0075946Y0049898D03*
X0075946Y0049831D03*
X0075946Y0049798D03*
X0075946Y0049731D03*
X0075946Y0049698D03*
X0075946Y0049631D03*
X0075946Y0049598D03*
X0075946Y0049531D03*
X0075946Y0049498D03*
X0075946Y0049431D03*
X0075946Y0049398D03*
X0075946Y0049331D03*
X0075946Y0049298D03*
X0075946Y0049231D03*
X0075946Y0049198D03*
X0075946Y0049131D03*
X0075946Y0049098D03*
X0075946Y0049031D03*
X0075946Y0048998D03*
X0075946Y0048931D03*
X0075946Y0048898D03*
X0075946Y0048831D03*
X0075946Y0048798D03*
X0075946Y0048731D03*
X0075946Y0048698D03*
X0075946Y0048631D03*
X0075946Y0048598D03*
X0075946Y0048531D03*
X0075946Y0048498D03*
X0075946Y0047531D03*
X0075946Y0047498D03*
X0075946Y0047431D03*
X0075946Y0047398D03*
X0075946Y0047331D03*
X0075946Y0047298D03*
X0075946Y0047231D03*
X0075946Y0047198D03*
X0075946Y0047131D03*
X0075946Y0047098D03*
X0075946Y0047031D03*
X0075946Y0046998D03*
X0075946Y0046931D03*
X0075946Y0046898D03*
X0075946Y0046831D03*
X0075946Y0046798D03*
X0075946Y0046731D03*
X0075946Y0046698D03*
X0075946Y0046631D03*
X0075946Y0046598D03*
X0075946Y0046531D03*
X0075946Y0046498D03*
X0075946Y0046431D03*
X0075946Y0046398D03*
X0075946Y0046331D03*
X0075946Y0046298D03*
X0075946Y0046231D03*
X0075946Y0046198D03*
X0075946Y0046131D03*
X0075946Y0046098D03*
X0075946Y0046031D03*
X0075946Y0045998D03*
X0075946Y0045931D03*
X0075946Y0045898D03*
X0075946Y0045831D03*
X0075946Y0045798D03*
X0075946Y0045731D03*
X0075946Y0045698D03*
X0049776Y0045698D03*
X0049776Y0045731D03*
X0049776Y0045798D03*
X0049776Y0045831D03*
X0049776Y0045898D03*
X0049776Y0045931D03*
X0049776Y0045998D03*
X0049776Y0046031D03*
X0049776Y0046098D03*
X0049776Y0046131D03*
X0049776Y0046198D03*
X0049776Y0046231D03*
X0049776Y0046298D03*
X0049776Y0046331D03*
X0049776Y0046398D03*
X0049776Y0046431D03*
X0049776Y0046498D03*
X0049776Y0046531D03*
X0049776Y0046598D03*
X0049776Y0046631D03*
X0049776Y0046698D03*
X0049776Y0046731D03*
X0049776Y0046798D03*
X0049776Y0046831D03*
X0049776Y0046898D03*
X0049776Y0046931D03*
X0049776Y0046998D03*
X0049776Y0047031D03*
X0049776Y0047098D03*
X0049776Y0047131D03*
X0049776Y0047198D03*
X0049776Y0047231D03*
X0049776Y0047298D03*
X0049776Y0047331D03*
X0049776Y0047398D03*
X0049776Y0047431D03*
X0049776Y0047498D03*
X0049776Y0047531D03*
X0049776Y0047598D03*
X0049776Y0047631D03*
X0049776Y0047698D03*
X0049776Y0047731D03*
X0049776Y0047798D03*
X0049776Y0047831D03*
X0049776Y0047898D03*
X0049776Y0047931D03*
X0049776Y0047998D03*
X0049776Y0048031D03*
X0049776Y0048098D03*
X0049776Y0048131D03*
X0049776Y0048198D03*
X0049776Y0048231D03*
X0049776Y0048298D03*
X0049776Y0048331D03*
X0049776Y0048398D03*
X0049776Y0048431D03*
X0049776Y0048498D03*
X0049776Y0048531D03*
X0049776Y0048598D03*
X0049776Y0048631D03*
X0049776Y0048698D03*
X0049776Y0048731D03*
X0049776Y0048798D03*
X0049776Y0048831D03*
X0049776Y0048898D03*
X0049776Y0048931D03*
X0049776Y0048998D03*
X0049776Y0049031D03*
X0049776Y0049098D03*
X0049776Y0049131D03*
X0049776Y0049198D03*
X0049776Y0049231D03*
X0049776Y0049298D03*
X0049776Y0049331D03*
X0049776Y0049398D03*
X0049776Y0049431D03*
X0049776Y0049498D03*
X0049776Y0049531D03*
X0049776Y0049598D03*
X0049776Y0049631D03*
X0049776Y0049698D03*
X0049776Y0049731D03*
X0049776Y0049798D03*
X0049776Y0049831D03*
X0049776Y0049898D03*
X0049776Y0049931D03*
X0049776Y0049998D03*
X0049776Y0050031D03*
X0049776Y0050098D03*
X0049776Y0050131D03*
X0049776Y0050198D03*
X0049776Y0050231D03*
X0049776Y0050298D03*
X0049776Y0050331D03*
X0046046Y0050931D03*
X0046046Y0047698D03*
X0046046Y0047631D03*
X0046046Y0047598D03*
X0046046Y0047531D03*
X0046046Y0047498D03*
X0046046Y0047431D03*
X0046046Y0047398D03*
X0046046Y0047331D03*
X0046046Y0047298D03*
X0046046Y0047231D03*
X0046046Y0047198D03*
X0046046Y0047131D03*
X0046046Y0047098D03*
X0046046Y0047031D03*
X0046046Y0046998D03*
X0046046Y0046931D03*
X0046046Y0046898D03*
X0046046Y0046831D03*
X0046046Y0046798D03*
X0046046Y0046731D03*
X0046046Y0046698D03*
X0046046Y0046631D03*
X0046046Y0046598D03*
X0046046Y0046531D03*
X0046046Y0046498D03*
X0046046Y0046431D03*
X0046046Y0046398D03*
X0046046Y0046331D03*
X0046046Y0046298D03*
X0046046Y0046231D03*
X0046046Y0046198D03*
X0046046Y0046131D03*
X0046046Y0046098D03*
X0046046Y0046031D03*
X0046046Y0045998D03*
X0046046Y0045931D03*
X0046046Y0045898D03*
X0046046Y0045831D03*
X0046046Y0045798D03*
X0046046Y0045731D03*
X0046046Y0045698D03*
X0046046Y0045631D03*
X0046046Y0045598D03*
X0046046Y0045531D03*
X0046046Y0045498D03*
X0046046Y0045431D03*
X0046046Y0045398D03*
X0046046Y0045331D03*
X0046046Y0045298D03*
X0046046Y0045231D03*
X0046046Y0045198D03*
X0046046Y0045131D03*
X0046046Y0045098D03*
D191*
X0040011Y0045098D03*
X0040011Y0047231D03*
X0040011Y0047298D03*
X0040011Y0047331D03*
X0040011Y0047398D03*
X0040011Y0047431D03*
X0040011Y0047498D03*
X0040011Y0047531D03*
X0040011Y0047598D03*
X0040011Y0047631D03*
X0040011Y0047698D03*
X0040011Y0047731D03*
X0040011Y0047798D03*
X0040011Y0047831D03*
X0040011Y0047898D03*
X0040011Y0047931D03*
X0040011Y0047998D03*
X0040011Y0048031D03*
X0040011Y0048098D03*
X0040011Y0048131D03*
X0040011Y0048198D03*
X0040011Y0048231D03*
X0040011Y0048298D03*
X0040011Y0048331D03*
X0040011Y0048398D03*
X0040011Y0048431D03*
X0040011Y0048498D03*
X0040011Y0048531D03*
X0040011Y0048598D03*
X0040011Y0048631D03*
X0040011Y0048698D03*
X0040011Y0048731D03*
X0040011Y0048798D03*
X0040011Y0048831D03*
X0040011Y0048898D03*
X0040011Y0048931D03*
X0040011Y0048998D03*
X0040011Y0049031D03*
X0040011Y0049098D03*
X0040011Y0049131D03*
X0040011Y0049198D03*
X0040011Y0049231D03*
X0040011Y0049298D03*
X0040011Y0049331D03*
X0040011Y0049398D03*
X0040011Y0049431D03*
X0040011Y0049498D03*
X0040011Y0049531D03*
X0040011Y0049598D03*
X0040011Y0049631D03*
X0040011Y0049698D03*
X0040011Y0049731D03*
X0040011Y0049798D03*
X0040011Y0049831D03*
X0040011Y0049898D03*
X0040011Y0049931D03*
X0040011Y0049998D03*
X0040011Y0050031D03*
X0040011Y0050098D03*
X0040011Y0050131D03*
X0040011Y0050198D03*
X0040011Y0050231D03*
X0040011Y0050298D03*
X0040011Y0050331D03*
X0040011Y0050398D03*
X0040011Y0050431D03*
X0040011Y0050498D03*
X0040011Y0050531D03*
X0040011Y0050598D03*
X0040011Y0050631D03*
X0040011Y0050698D03*
X0040011Y0050731D03*
X0040011Y0050798D03*
X0040011Y0050831D03*
X0040011Y0050898D03*
X0053711Y0050898D03*
X0053711Y0050931D03*
X0053711Y0050831D03*
X0053711Y0050798D03*
X0053711Y0050731D03*
X0053711Y0050698D03*
X0053711Y0050631D03*
X0053711Y0050598D03*
X0053711Y0050531D03*
X0053711Y0050498D03*
X0053711Y0050431D03*
X0053711Y0050398D03*
X0053711Y0050331D03*
X0053711Y0050298D03*
X0053711Y0050231D03*
X0053711Y0050198D03*
X0053711Y0050131D03*
X0053711Y0050098D03*
X0053711Y0050031D03*
X0053711Y0049998D03*
X0053711Y0049931D03*
X0053711Y0049898D03*
X0053711Y0049831D03*
X0053711Y0049798D03*
X0053711Y0049731D03*
X0053711Y0049698D03*
X0053711Y0049631D03*
X0053711Y0049598D03*
X0053711Y0049531D03*
X0053711Y0049498D03*
X0053711Y0049431D03*
X0053711Y0049398D03*
X0053711Y0049331D03*
X0053711Y0049298D03*
X0053711Y0049231D03*
X0053711Y0049198D03*
X0062211Y0049398D03*
D192*
X0072931Y0045298D03*
X0072931Y0045231D03*
X0072931Y0045198D03*
X0072931Y0045131D03*
D193*
X0066046Y0045131D03*
D194*
X0062426Y0049698D03*
X0053796Y0045131D03*
X0040096Y0045231D03*
D195*
X0049776Y0045298D03*
X0049776Y0045131D03*
X0049776Y0050698D03*
X0049776Y0050731D03*
X0049776Y0050831D03*
X0049776Y0050898D03*
D196*
X0053731Y0049131D03*
X0053731Y0049098D03*
X0053731Y0049031D03*
X0053731Y0048998D03*
X0053731Y0048931D03*
X0053731Y0048898D03*
X0053731Y0048831D03*
X0053731Y0048798D03*
X0053731Y0048731D03*
X0053731Y0048698D03*
X0053731Y0048631D03*
X0053731Y0048598D03*
X0053731Y0048531D03*
X0053731Y0048498D03*
X0053731Y0048431D03*
X0053731Y0048398D03*
X0053731Y0048331D03*
X0053731Y0048298D03*
X0053731Y0048231D03*
X0053731Y0048198D03*
X0053731Y0048131D03*
X0053731Y0048098D03*
X0053731Y0048031D03*
X0053731Y0047998D03*
X0053731Y0047931D03*
X0053731Y0047898D03*
X0053731Y0047831D03*
X0053731Y0047798D03*
X0053731Y0047731D03*
X0053731Y0047698D03*
X0053731Y0047631D03*
X0053731Y0047598D03*
X0053731Y0047531D03*
X0053731Y0047498D03*
X0053731Y0047431D03*
X0053731Y0047398D03*
X0053731Y0047331D03*
X0053731Y0047298D03*
X0053731Y0047231D03*
X0053731Y0047198D03*
X0053731Y0047131D03*
X0053731Y0047098D03*
X0053731Y0047031D03*
X0053731Y0046998D03*
X0053731Y0046931D03*
X0053731Y0046898D03*
X0053731Y0046831D03*
X0053731Y0046798D03*
X0053731Y0046731D03*
X0053731Y0046698D03*
X0053731Y0046631D03*
X0053731Y0046598D03*
X0053731Y0046531D03*
X0053731Y0046498D03*
X0053731Y0046431D03*
X0053731Y0046398D03*
X0053731Y0046331D03*
X0046031Y0047731D03*
X0046031Y0047798D03*
X0046031Y0047831D03*
X0046031Y0047898D03*
X0046031Y0047931D03*
X0046031Y0047998D03*
X0046031Y0048031D03*
X0046031Y0048098D03*
X0046031Y0048131D03*
X0046031Y0048198D03*
X0046031Y0048231D03*
X0046031Y0048298D03*
X0046031Y0048331D03*
X0046031Y0048398D03*
X0046031Y0048431D03*
X0046031Y0048498D03*
X0046031Y0048531D03*
X0046031Y0048598D03*
X0046031Y0048631D03*
X0046031Y0048698D03*
X0046031Y0048731D03*
X0046031Y0048798D03*
X0046031Y0048831D03*
X0046031Y0048898D03*
X0046031Y0048931D03*
X0046031Y0048998D03*
X0046031Y0049031D03*
X0046031Y0049098D03*
X0046031Y0049131D03*
X0046031Y0049198D03*
X0046031Y0049231D03*
X0040031Y0047198D03*
X0040031Y0047131D03*
X0040031Y0047098D03*
X0040031Y0047031D03*
X0040031Y0046998D03*
X0040031Y0046931D03*
X0040031Y0046898D03*
X0040031Y0046831D03*
X0040031Y0046798D03*
X0040031Y0045131D03*
X0062161Y0046698D03*
X0062161Y0046731D03*
X0062191Y0046631D03*
X0062231Y0046598D03*
X0062261Y0046531D03*
X0062291Y0046498D03*
X0062291Y0049498D03*
X0062291Y0049531D03*
D197*
X0072931Y0045265D03*
X0072931Y0045165D03*
D198*
X0066011Y0045165D03*
X0066011Y0050865D03*
D199*
X0059661Y0045165D03*
D200*
X0053831Y0045165D03*
X0044161Y0049065D03*
X0043731Y0048665D03*
X0043291Y0048265D03*
X0042861Y0047865D03*
X0075731Y0051965D03*
X0075731Y0052065D03*
X0075731Y0052165D03*
X0075731Y0052265D03*
D201*
X0049761Y0050765D03*
X0049761Y0045165D03*
D202*
X0040046Y0045165D03*
D203*
X0065976Y0045198D03*
X0065976Y0050831D03*
D204*
X0062531Y0049798D03*
X0062531Y0046231D03*
X0062561Y0046198D03*
X0059631Y0045198D03*
X0045931Y0050731D03*
X0043761Y0048698D03*
X0043661Y0048598D03*
X0043261Y0048231D03*
X0043231Y0048198D03*
X0042791Y0047798D03*
X0042361Y0047398D03*
X0041931Y0046998D03*
X0040131Y0045298D03*
X0075731Y0051998D03*
X0075731Y0052031D03*
X0075731Y0052098D03*
X0075731Y0052131D03*
X0075731Y0052198D03*
X0075731Y0052231D03*
X0075731Y0052298D03*
D205*
X0062576Y0049831D03*
X0056776Y0047198D03*
X0053846Y0045198D03*
X0044346Y0049231D03*
X0044246Y0049131D03*
X0044076Y0048998D03*
X0043976Y0048898D03*
X0043876Y0048798D03*
X0043676Y0048631D03*
X0043576Y0048531D03*
X0043546Y0048498D03*
X0043476Y0048431D03*
X0043446Y0048398D03*
X0043376Y0048331D03*
X0043346Y0048298D03*
X0043146Y0048131D03*
X0043046Y0048031D03*
X0042946Y0047931D03*
X0042846Y0047831D03*
X0042676Y0047698D03*
X0042576Y0047598D03*
X0042476Y0047498D03*
X0042276Y0047331D03*
X0042246Y0047298D03*
X0042176Y0047231D03*
X0042146Y0047198D03*
X0042076Y0047131D03*
X0042046Y0047098D03*
X0041976Y0047031D03*
X0041846Y0046931D03*
X0041746Y0046831D03*
X0040146Y0045331D03*
D206*
X0065946Y0045231D03*
X0065946Y0050798D03*
D207*
X0062626Y0046131D03*
X0059596Y0045231D03*
D208*
X0062681Y0046098D03*
X0062641Y0049898D03*
X0053881Y0045231D03*
X0045881Y0050631D03*
X0040181Y0051998D03*
X0040181Y0052031D03*
X0040181Y0052098D03*
X0040181Y0052131D03*
X0040181Y0052198D03*
X0040181Y0052231D03*
X0040181Y0052298D03*
X0040181Y0045398D03*
D209*
X0065911Y0045265D03*
X0065911Y0050765D03*
D210*
X0059581Y0045265D03*
X0056781Y0047165D03*
X0040181Y0051965D03*
X0040181Y0052065D03*
X0040181Y0052165D03*
X0040181Y0052265D03*
D211*
X0040211Y0045465D03*
X0053911Y0045265D03*
D212*
X0049776Y0045265D03*
X0049776Y0050865D03*
D213*
X0040111Y0045265D03*
X0062511Y0049765D03*
D214*
X0065896Y0045298D03*
D215*
X0062776Y0049998D03*
X0059546Y0045298D03*
D216*
X0053931Y0045298D03*
X0045831Y0050531D03*
X0040231Y0045498D03*
X0062831Y0050031D03*
D217*
X0065861Y0050698D03*
X0065861Y0045331D03*
D218*
X0059511Y0045331D03*
X0045811Y0050498D03*
D219*
X0053961Y0045331D03*
D220*
X0072946Y0045365D03*
X0072946Y0050665D03*
X0072946Y0050765D03*
X0072946Y0050865D03*
D221*
X0065826Y0050665D03*
X0065826Y0045365D03*
D222*
X0059496Y0045365D03*
X0045796Y0050465D03*
D223*
X0053996Y0045365D03*
X0063026Y0045865D03*
D224*
X0040161Y0045365D03*
D225*
X0072961Y0045398D03*
X0072961Y0045431D03*
X0072961Y0050598D03*
X0072961Y0050631D03*
D226*
X0065796Y0050631D03*
X0065796Y0045398D03*
D227*
X0059461Y0045398D03*
X0056761Y0047098D03*
D228*
X0057811Y0046398D03*
X0054011Y0045398D03*
D229*
X0065776Y0045431D03*
D230*
X0059446Y0045431D03*
X0057776Y0046431D03*
X0045746Y0050398D03*
D231*
X0054046Y0045431D03*
D232*
X0062696Y0049931D03*
X0040196Y0045431D03*
D233*
X0072981Y0045465D03*
X0072981Y0050565D03*
D234*
X0065746Y0050565D03*
X0065746Y0045465D03*
D235*
X0059411Y0045465D03*
D236*
X0063241Y0045765D03*
X0054081Y0045465D03*
X0045681Y0050265D03*
X0040381Y0045765D03*
D237*
X0065711Y0045498D03*
X0065711Y0050531D03*
D238*
X0054096Y0045498D03*
X0040396Y0045798D03*
D239*
X0049761Y0045498D03*
D240*
X0073011Y0045531D03*
X0073011Y0050498D03*
D241*
X0065696Y0045531D03*
D242*
X0059346Y0045531D03*
X0056776Y0047031D03*
X0045646Y0050198D03*
D243*
X0054131Y0045531D03*
D244*
X0056776Y0047131D03*
X0040246Y0045531D03*
D245*
X0073046Y0045565D03*
X0072946Y0051065D03*
D246*
X0065661Y0050465D03*
X0065661Y0045565D03*
D247*
X0059331Y0045565D03*
X0045631Y0050165D03*
X0040431Y0045865D03*
D248*
X0054146Y0045565D03*
D249*
X0056741Y0046465D03*
X0049781Y0045565D03*
X0049781Y0050465D03*
D250*
X0040261Y0045565D03*
D251*
X0065626Y0045598D03*
X0065626Y0050431D03*
D252*
X0059296Y0045598D03*
X0045596Y0050098D03*
D253*
X0045781Y0050431D03*
X0040281Y0045598D03*
X0055541Y0046331D03*
X0055641Y0046398D03*
X0055681Y0046431D03*
X0062981Y0045898D03*
D254*
X0073131Y0045631D03*
D255*
X0072911Y0051231D03*
X0065611Y0050398D03*
X0065611Y0045631D03*
D256*
X0059261Y0045631D03*
X0055361Y0051998D03*
X0055361Y0052031D03*
X0055361Y0052098D03*
X0055361Y0052131D03*
X0055361Y0052198D03*
X0055361Y0052231D03*
X0055361Y0052298D03*
X0045561Y0050031D03*
D257*
X0040496Y0045998D03*
X0054196Y0045631D03*
X0063426Y0045698D03*
D258*
X0062996Y0050131D03*
X0057926Y0046331D03*
X0040296Y0045631D03*
D259*
X0065596Y0045665D03*
D260*
X0045731Y0050365D03*
X0040331Y0045665D03*
D261*
X0059211Y0045698D03*
D262*
X0063311Y0045731D03*
X0040411Y0045831D03*
D263*
X0040361Y0045731D03*
X0063161Y0045798D03*
D264*
X0059161Y0045765D03*
X0045461Y0049865D03*
D265*
X0054311Y0045765D03*
D266*
X0054331Y0045798D03*
X0059131Y0045798D03*
X0045431Y0049798D03*
X0040631Y0046231D03*
D267*
X0059111Y0045831D03*
D268*
X0054361Y0045831D03*
X0040661Y0046298D03*
D269*
X0059081Y0045865D03*
D270*
X0054396Y0045865D03*
X0040696Y0046365D03*
D271*
X0045346Y0049631D03*
X0059046Y0045898D03*
D272*
X0054411Y0045898D03*
X0040711Y0046398D03*
D273*
X0062926Y0045931D03*
X0062926Y0050098D03*
D274*
X0059031Y0045931D03*
X0056761Y0046831D03*
X0045331Y0049598D03*
X0040731Y0046431D03*
D275*
X0062861Y0045965D03*
D276*
X0058996Y0045965D03*
D277*
X0054461Y0045965D03*
D278*
X0045581Y0050065D03*
X0040481Y0045965D03*
D279*
X0062811Y0045998D03*
D280*
X0058961Y0045998D03*
D281*
X0062761Y0046031D03*
X0045861Y0050598D03*
D282*
X0054511Y0046031D03*
D283*
X0040511Y0046031D03*
D284*
X0062726Y0046065D03*
X0062726Y0049965D03*
D285*
X0058911Y0046065D03*
D286*
X0054546Y0046065D03*
D287*
X0058881Y0046098D03*
X0045181Y0049331D03*
X0040881Y0046698D03*
D288*
X0054561Y0046098D03*
X0056761Y0046731D03*
D289*
X0058861Y0046131D03*
X0048661Y0051998D03*
X0048661Y0052031D03*
X0048661Y0052098D03*
X0048661Y0052131D03*
X0048661Y0052198D03*
X0048661Y0052231D03*
X0048661Y0052298D03*
X0045161Y0049298D03*
D290*
X0040896Y0046731D03*
X0054596Y0046131D03*
X0067296Y0051998D03*
X0067296Y0052031D03*
X0067296Y0052098D03*
X0067296Y0052131D03*
X0067296Y0052198D03*
X0067296Y0052231D03*
X0067296Y0052298D03*
D291*
X0062576Y0046165D03*
X0044376Y0049265D03*
X0044276Y0049165D03*
X0044046Y0048965D03*
X0043946Y0048865D03*
X0043846Y0048765D03*
X0043176Y0048165D03*
X0043076Y0048065D03*
X0042976Y0047965D03*
X0042746Y0047765D03*
X0042646Y0047665D03*
X0042546Y0047565D03*
X0042446Y0047465D03*
X0041876Y0046965D03*
X0041776Y0046865D03*
X0041676Y0046765D03*
D292*
X0054631Y0046165D03*
X0058831Y0046165D03*
D293*
X0040596Y0046165D03*
D294*
X0058796Y0046198D03*
X0073426Y0052898D03*
X0073426Y0052931D03*
X0073426Y0052998D03*
X0073426Y0053031D03*
X0073426Y0053098D03*
X0073426Y0053131D03*
X0073426Y0053198D03*
X0073426Y0053231D03*
X0073426Y0053298D03*
X0073426Y0053331D03*
D295*
X0054646Y0046198D03*
D296*
X0040611Y0046198D03*
D297*
X0045946Y0050765D03*
X0062476Y0046265D03*
D298*
X0062461Y0046298D03*
X0062461Y0049731D03*
X0045961Y0050798D03*
D299*
X0058711Y0046298D03*
D300*
X0045381Y0049698D03*
X0040681Y0046331D03*
D301*
X0045996Y0050865D03*
X0062396Y0046365D03*
D302*
X0063046Y0050165D03*
X0057876Y0046365D03*
D303*
X0055581Y0046365D03*
D304*
X0062361Y0046398D03*
D305*
X0062346Y0046431D03*
X0062346Y0049598D03*
D306*
X0062311Y0049565D03*
X0062311Y0046465D03*
D307*
X0040746Y0046465D03*
D308*
X0040761Y0046498D03*
X0056761Y0046798D03*
D309*
X0056761Y0046565D03*
D310*
X0040796Y0046565D03*
D311*
X0040831Y0046598D03*
X0045231Y0049431D03*
D312*
X0040846Y0046631D03*
D313*
X0056761Y0046665D03*
D314*
X0040861Y0046665D03*
D315*
X0056761Y0046765D03*
D316*
X0045911Y0050698D03*
X0044311Y0049198D03*
X0044211Y0049098D03*
X0044111Y0049031D03*
X0044011Y0048931D03*
X0043911Y0048831D03*
X0043811Y0048731D03*
X0043111Y0048098D03*
X0043011Y0047998D03*
X0042911Y0047898D03*
X0042711Y0047731D03*
X0042611Y0047631D03*
X0042511Y0047531D03*
X0042411Y0047431D03*
X0041811Y0046898D03*
X0041711Y0046798D03*
D317*
X0056761Y0046865D03*
D318*
X0056776Y0047065D03*
D319*
X0062611Y0049865D03*
X0043611Y0048565D03*
X0043511Y0048465D03*
X0043411Y0048365D03*
X0042311Y0047365D03*
X0042211Y0047265D03*
X0042111Y0047165D03*
X0042011Y0047065D03*
D320*
X0040011Y0047265D03*
X0040011Y0047365D03*
X0040011Y0047465D03*
X0040011Y0047565D03*
X0040011Y0047665D03*
X0040011Y0047765D03*
X0040011Y0047865D03*
X0040011Y0047965D03*
X0040011Y0048065D03*
X0040011Y0048165D03*
X0040011Y0048265D03*
X0040011Y0048365D03*
X0040011Y0048465D03*
X0040011Y0048565D03*
X0040011Y0048665D03*
X0040011Y0048765D03*
X0040011Y0048865D03*
X0040011Y0048965D03*
X0040011Y0049065D03*
X0040011Y0049165D03*
X0040011Y0049265D03*
X0040011Y0049365D03*
X0040011Y0049465D03*
X0040011Y0049565D03*
X0040011Y0049665D03*
X0040011Y0049765D03*
X0040011Y0049865D03*
X0040011Y0049965D03*
X0040011Y0050065D03*
X0040011Y0050165D03*
X0040011Y0050265D03*
X0040011Y0050365D03*
X0040011Y0050465D03*
X0040011Y0050565D03*
X0040011Y0050665D03*
X0040011Y0050765D03*
X0040011Y0050865D03*
X0053711Y0050865D03*
X0053711Y0050765D03*
X0053711Y0050665D03*
X0053711Y0050565D03*
X0053711Y0050465D03*
X0053711Y0050365D03*
X0053711Y0050265D03*
X0053711Y0050165D03*
X0053711Y0050065D03*
X0053711Y0049965D03*
X0053711Y0049865D03*
X0053711Y0049765D03*
X0053711Y0049665D03*
X0053711Y0049565D03*
X0053711Y0049465D03*
X0053711Y0049365D03*
X0053711Y0049265D03*
X0053711Y0049165D03*
X0062211Y0049365D03*
D321*
X0056796Y0047331D03*
X0046796Y0052898D03*
X0046796Y0052931D03*
X0046796Y0052998D03*
X0046796Y0053031D03*
X0046796Y0053098D03*
X0046796Y0053131D03*
X0046796Y0053198D03*
X0046796Y0053231D03*
X0046796Y0053298D03*
X0046796Y0053331D03*
X0046796Y0053398D03*
X0046796Y0053431D03*
X0046796Y0053498D03*
X0046796Y0053531D03*
X0046796Y0053598D03*
X0046796Y0053631D03*
X0046796Y0053698D03*
X0046796Y0053731D03*
X0046796Y0053798D03*
X0046796Y0053831D03*
X0046796Y0053898D03*
X0046796Y0053931D03*
X0046796Y0053998D03*
X0046796Y0054031D03*
D322*
X0056791Y0047365D03*
D323*
X0056796Y0047465D03*
D324*
X0073946Y0047565D03*
D325*
X0073881Y0047598D03*
D326*
X0073846Y0047631D03*
X0073846Y0048398D03*
D327*
X0073796Y0047665D03*
D328*
X0073781Y0047698D03*
X0073781Y0048331D03*
D329*
X0073761Y0048298D03*
X0073761Y0047731D03*
D330*
X0073746Y0047765D03*
X0073746Y0048265D03*
D331*
X0073731Y0048231D03*
X0073731Y0047798D03*
D332*
X0073711Y0047831D03*
X0073711Y0048198D03*
D333*
X0073711Y0048165D03*
X0073711Y0047865D03*
D334*
X0073696Y0047898D03*
X0073696Y0047931D03*
X0073696Y0047998D03*
X0073696Y0048031D03*
X0073696Y0048098D03*
X0073696Y0048131D03*
D335*
X0073696Y0048065D03*
X0073696Y0047965D03*
D336*
X0073811Y0048365D03*
D337*
X0073896Y0048431D03*
D338*
X0045196Y0049365D03*
D339*
X0045211Y0049398D03*
D340*
X0045246Y0049465D03*
D341*
X0045311Y0049565D03*
D342*
X0062411Y0049665D03*
D343*
X0045361Y0049665D03*
D344*
X0045396Y0049731D03*
D345*
X0059761Y0049765D03*
X0059761Y0049865D03*
X0059761Y0049965D03*
X0059761Y0050065D03*
X0059761Y0050165D03*
X0059761Y0050265D03*
X0059761Y0050365D03*
X0059761Y0050465D03*
X0059761Y0050565D03*
X0059761Y0050665D03*
X0059761Y0050765D03*
X0059761Y0050865D03*
X0059761Y0050965D03*
D346*
X0045411Y0049765D03*
D347*
X0059761Y0049798D03*
X0059761Y0049831D03*
X0059761Y0049898D03*
X0059761Y0049931D03*
X0059761Y0049998D03*
X0059761Y0050031D03*
X0059761Y0050098D03*
X0059761Y0050131D03*
X0059761Y0050198D03*
X0059761Y0050231D03*
X0059761Y0050298D03*
X0059761Y0050331D03*
X0059761Y0050398D03*
X0059761Y0050431D03*
X0059761Y0050498D03*
X0059761Y0050531D03*
X0059761Y0050598D03*
X0059761Y0050631D03*
X0059761Y0050698D03*
X0059761Y0050731D03*
X0059761Y0050798D03*
X0059761Y0050831D03*
X0059761Y0050931D03*
D348*
X0070726Y0051998D03*
X0070726Y0052031D03*
X0070726Y0052098D03*
X0070726Y0052131D03*
X0070726Y0052198D03*
X0070726Y0052231D03*
X0070726Y0052298D03*
X0045496Y0049931D03*
D349*
X0045511Y0049965D03*
D350*
X0062876Y0050065D03*
D351*
X0045611Y0050131D03*
D352*
X0045711Y0050331D03*
X0063111Y0050198D03*
D353*
X0045661Y0050231D03*
D354*
X0063261Y0050265D03*
D355*
X0045696Y0050298D03*
D356*
X0063461Y0050331D03*
D357*
X0065576Y0050365D03*
D358*
X0049776Y0050365D03*
D359*
X0073111Y0050398D03*
D360*
X0073061Y0050431D03*
D361*
X0073031Y0050465D03*
D362*
X0065676Y0050498D03*
D363*
X0045846Y0050565D03*
D364*
X0065761Y0050598D03*
D365*
X0045896Y0050665D03*
D366*
X0065876Y0050731D03*
D367*
X0066061Y0050898D03*
D368*
X0072961Y0050965D03*
D369*
X0066126Y0050965D03*
D370*
X0039996Y0050965D03*
D371*
X0066161Y0050998D03*
D372*
X0059761Y0050998D03*
X0046061Y0050998D03*
D373*
X0072946Y0051031D03*
D374*
X0069161Y0052865D03*
X0069161Y0052965D03*
X0069161Y0053065D03*
X0069161Y0053165D03*
X0069161Y0053265D03*
X0069161Y0053365D03*
X0069161Y0053465D03*
X0069161Y0053565D03*
X0069161Y0053665D03*
X0069161Y0053765D03*
X0069161Y0053865D03*
X0069161Y0053965D03*
X0069161Y0054065D03*
X0059761Y0051065D03*
X0046061Y0051065D03*
D375*
X0072926Y0051098D03*
D376*
X0066241Y0051098D03*
D377*
X0059776Y0051098D03*
X0046046Y0051098D03*
D378*
X0066261Y0051131D03*
D379*
X0059761Y0051131D03*
X0053961Y0053798D03*
X0046061Y0051131D03*
D380*
X0049811Y0051131D03*
D381*
X0072911Y0051165D03*
D382*
X0066296Y0051165D03*
D383*
X0049811Y0051165D03*
D384*
X0072911Y0051198D03*
D385*
X0059761Y0051231D03*
X0053731Y0051231D03*
D386*
X0061976Y0052931D03*
X0039976Y0051231D03*
D387*
X0053731Y0051265D03*
X0058191Y0053165D03*
X0058191Y0053265D03*
X0058191Y0053365D03*
X0058191Y0053465D03*
X0058191Y0053565D03*
X0059261Y0053165D03*
X0059261Y0053065D03*
X0059261Y0052965D03*
X0059261Y0052865D03*
X0059261Y0052765D03*
X0059261Y0052665D03*
X0059261Y0052565D03*
X0059261Y0052465D03*
X0059261Y0052365D03*
D388*
X0061546Y0052965D03*
X0061546Y0053065D03*
X0061546Y0053165D03*
X0061546Y0053265D03*
X0061546Y0053365D03*
X0061546Y0053465D03*
X0061746Y0052765D03*
X0061746Y0052665D03*
X0061746Y0052565D03*
X0061746Y0052465D03*
X0061746Y0052365D03*
X0065076Y0052365D03*
X0065076Y0052465D03*
X0065076Y0052565D03*
X0065076Y0052665D03*
X0065076Y0052765D03*
X0065746Y0052765D03*
X0065746Y0052665D03*
X0065746Y0052565D03*
X0065746Y0052465D03*
X0065746Y0052365D03*
X0068846Y0052365D03*
X0068846Y0052465D03*
X0068846Y0052565D03*
X0068846Y0052665D03*
X0068846Y0052765D03*
X0071946Y0052765D03*
X0071946Y0052665D03*
X0071946Y0052565D03*
X0071946Y0052465D03*
X0071946Y0052365D03*
X0072346Y0052365D03*
X0072346Y0052465D03*
X0072346Y0052565D03*
X0072346Y0052665D03*
X0072346Y0052765D03*
X0072346Y0052265D03*
X0072346Y0052165D03*
X0072346Y0052065D03*
X0072346Y0051965D03*
X0073746Y0051965D03*
X0073746Y0052065D03*
X0073746Y0052165D03*
X0073746Y0052265D03*
X0073746Y0052365D03*
X0073746Y0052465D03*
X0073746Y0052565D03*
X0073746Y0052665D03*
X0073746Y0052765D03*
X0074176Y0052765D03*
X0074176Y0052665D03*
X0074176Y0052565D03*
X0074176Y0052465D03*
X0074176Y0052365D03*
X0074176Y0052265D03*
X0074176Y0052165D03*
X0074176Y0052065D03*
X0074176Y0051965D03*
X0074576Y0051965D03*
X0074576Y0052065D03*
X0074576Y0052165D03*
X0074576Y0052265D03*
X0074576Y0052365D03*
X0074576Y0052465D03*
X0074576Y0052565D03*
X0074576Y0052665D03*
X0074576Y0052765D03*
X0074946Y0052765D03*
X0074946Y0052665D03*
X0074946Y0052565D03*
X0074946Y0052465D03*
X0074946Y0052365D03*
X0053976Y0053465D03*
X0050846Y0052765D03*
X0050846Y0052665D03*
X0050846Y0052565D03*
X0050846Y0052465D03*
X0050846Y0052365D03*
X0050546Y0052365D03*
X0050546Y0052465D03*
X0050546Y0052565D03*
X0050546Y0052665D03*
X0050546Y0052765D03*
X0050546Y0052265D03*
X0050546Y0052165D03*
X0050546Y0052065D03*
X0050546Y0051965D03*
X0046446Y0052365D03*
X0046446Y0052465D03*
X0046446Y0052565D03*
X0046446Y0052665D03*
X0046446Y0052765D03*
X0044046Y0052765D03*
X0044046Y0052665D03*
X0044046Y0052565D03*
X0044046Y0052465D03*
X0044046Y0052365D03*
X0043146Y0052365D03*
X0043146Y0052465D03*
X0043146Y0052565D03*
X0043146Y0052665D03*
X0043146Y0052765D03*
X0042676Y0052765D03*
X0042676Y0052665D03*
X0042676Y0052565D03*
X0042676Y0052465D03*
X0042676Y0052365D03*
X0042676Y0052265D03*
X0042676Y0052165D03*
X0042676Y0052065D03*
X0042676Y0051965D03*
X0043146Y0051965D03*
X0043146Y0052065D03*
X0043146Y0052165D03*
X0043146Y0052265D03*
D389*
X0043611Y0052265D03*
X0043611Y0052365D03*
X0043611Y0052465D03*
X0043611Y0052565D03*
X0043611Y0052665D03*
X0043611Y0052765D03*
X0043611Y0052165D03*
X0043611Y0052065D03*
X0043611Y0051965D03*
X0042211Y0051965D03*
X0042211Y0052065D03*
X0042211Y0052165D03*
X0042211Y0052265D03*
X0042211Y0052365D03*
X0042211Y0052465D03*
X0042211Y0052565D03*
X0042211Y0052665D03*
X0042211Y0052765D03*
X0041811Y0052765D03*
X0041811Y0052665D03*
X0041811Y0052565D03*
X0041811Y0052465D03*
X0041811Y0052365D03*
X0041811Y0052265D03*
X0041811Y0052165D03*
X0041811Y0052065D03*
X0041811Y0051965D03*
X0041411Y0051965D03*
X0041411Y0052065D03*
X0041411Y0052165D03*
X0041411Y0052265D03*
X0041411Y0052365D03*
X0041411Y0052465D03*
X0041411Y0052565D03*
X0041411Y0052665D03*
X0041411Y0052765D03*
X0041011Y0052765D03*
X0041011Y0052665D03*
X0041011Y0052565D03*
X0041011Y0052465D03*
X0041011Y0052365D03*
X0047111Y0052365D03*
X0047111Y0052465D03*
X0047111Y0052565D03*
X0047111Y0052665D03*
X0047111Y0052765D03*
X0050211Y0052765D03*
X0050211Y0052665D03*
X0050211Y0052565D03*
X0050211Y0052465D03*
X0050211Y0052365D03*
X0053511Y0052965D03*
X0053511Y0053065D03*
X0053511Y0053165D03*
X0053511Y0053265D03*
X0053511Y0053365D03*
X0053511Y0053465D03*
X0053711Y0052765D03*
X0053711Y0052665D03*
X0053711Y0052565D03*
X0053711Y0052465D03*
X0053711Y0052365D03*
X0054211Y0052365D03*
X0054211Y0052465D03*
X0054211Y0052565D03*
X0054211Y0052665D03*
X0054211Y0052765D03*
X0056511Y0052765D03*
X0056511Y0052865D03*
X0056511Y0052965D03*
X0056511Y0053065D03*
X0056511Y0053165D03*
X0056511Y0052665D03*
X0056511Y0052565D03*
X0056511Y0052465D03*
X0056511Y0052365D03*
X0062211Y0052365D03*
X0062211Y0052465D03*
X0062211Y0052565D03*
X0062211Y0052665D03*
X0062211Y0052765D03*
X0065411Y0052765D03*
X0065411Y0052665D03*
X0065411Y0052565D03*
X0065411Y0052465D03*
X0065411Y0052365D03*
X0065411Y0052265D03*
X0065411Y0052165D03*
X0065411Y0052065D03*
X0065411Y0051965D03*
X0069511Y0052365D03*
X0069511Y0052465D03*
X0069511Y0052565D03*
X0069511Y0052665D03*
X0069511Y0052765D03*
X0072811Y0052765D03*
X0072811Y0052665D03*
X0072811Y0052565D03*
X0072811Y0052465D03*
X0072811Y0052365D03*
X0072811Y0052265D03*
X0072811Y0052165D03*
X0072811Y0052065D03*
X0072811Y0051965D03*
X0073311Y0051965D03*
X0073311Y0052065D03*
X0073311Y0052165D03*
X0073311Y0052265D03*
X0073311Y0052365D03*
X0073311Y0052465D03*
X0073311Y0052565D03*
X0073311Y0052665D03*
X0073311Y0052765D03*
D390*
X0070726Y0052265D03*
X0070726Y0052165D03*
X0070726Y0052065D03*
X0070726Y0051965D03*
D391*
X0067296Y0051965D03*
X0067296Y0052065D03*
X0067296Y0052165D03*
X0067296Y0052265D03*
D392*
X0063641Y0052265D03*
X0063641Y0052165D03*
X0063641Y0052065D03*
X0063641Y0051965D03*
X0052281Y0051965D03*
X0052281Y0052065D03*
X0052281Y0052165D03*
X0052281Y0052265D03*
D393*
X0055361Y0052265D03*
X0055361Y0052165D03*
X0055361Y0052065D03*
X0055361Y0051965D03*
D394*
X0048661Y0051965D03*
X0048661Y0052065D03*
X0048661Y0052165D03*
X0048661Y0052265D03*
D395*
X0045246Y0052265D03*
X0045246Y0052165D03*
X0045246Y0052065D03*
X0045246Y0051965D03*
D396*
X0044046Y0052331D03*
X0044046Y0052398D03*
X0044046Y0052431D03*
X0044046Y0052498D03*
X0044046Y0052531D03*
X0044046Y0052598D03*
X0044046Y0052631D03*
X0044046Y0052698D03*
X0044046Y0052731D03*
X0044046Y0052798D03*
X0044046Y0052831D03*
X0043146Y0052831D03*
X0043146Y0052798D03*
X0043146Y0052731D03*
X0043146Y0052698D03*
X0043146Y0052631D03*
X0043146Y0052598D03*
X0043146Y0052531D03*
X0043146Y0052498D03*
X0043146Y0052431D03*
X0043146Y0052398D03*
X0043146Y0052331D03*
X0043146Y0052298D03*
X0043146Y0052231D03*
X0043146Y0052198D03*
X0043146Y0052131D03*
X0043146Y0052098D03*
X0043146Y0052031D03*
X0043146Y0051998D03*
X0042676Y0051998D03*
X0042676Y0052031D03*
X0042676Y0052098D03*
X0042676Y0052131D03*
X0042676Y0052198D03*
X0042676Y0052231D03*
X0042676Y0052298D03*
X0042676Y0052331D03*
X0042676Y0052398D03*
X0042676Y0052431D03*
X0042676Y0052498D03*
X0042676Y0052531D03*
X0042676Y0052598D03*
X0042676Y0052631D03*
X0042676Y0052698D03*
X0042676Y0052731D03*
X0042676Y0052798D03*
X0042676Y0052831D03*
X0046446Y0052831D03*
X0046446Y0052798D03*
X0046446Y0052731D03*
X0046446Y0052698D03*
X0046446Y0052631D03*
X0046446Y0052598D03*
X0046446Y0052531D03*
X0046446Y0052498D03*
X0046446Y0052431D03*
X0046446Y0052398D03*
X0046446Y0052331D03*
X0050546Y0052331D03*
X0050546Y0052298D03*
X0050546Y0052231D03*
X0050546Y0052198D03*
X0050546Y0052131D03*
X0050546Y0052098D03*
X0050546Y0052031D03*
X0050546Y0051998D03*
X0050546Y0052398D03*
X0050546Y0052431D03*
X0050546Y0052498D03*
X0050546Y0052531D03*
X0050546Y0052598D03*
X0050546Y0052631D03*
X0050546Y0052698D03*
X0050546Y0052731D03*
X0050546Y0052798D03*
X0050546Y0052831D03*
X0050846Y0052831D03*
X0050846Y0052798D03*
X0050846Y0052731D03*
X0050846Y0052698D03*
X0050846Y0052631D03*
X0050846Y0052598D03*
X0050846Y0052531D03*
X0050846Y0052498D03*
X0050846Y0052431D03*
X0050846Y0052398D03*
X0050846Y0052331D03*
X0054076Y0053531D03*
X0061546Y0053531D03*
X0061546Y0053498D03*
X0061546Y0053431D03*
X0061546Y0053398D03*
X0061546Y0053331D03*
X0061546Y0053298D03*
X0061546Y0053231D03*
X0061546Y0053198D03*
X0061546Y0053131D03*
X0061546Y0053098D03*
X0061546Y0053031D03*
X0061546Y0052998D03*
X0061546Y0052931D03*
X0061546Y0052898D03*
X0061746Y0052831D03*
X0061746Y0052798D03*
X0061746Y0052731D03*
X0061746Y0052698D03*
X0061746Y0052631D03*
X0061746Y0052598D03*
X0061746Y0052531D03*
X0061746Y0052498D03*
X0061746Y0052431D03*
X0061746Y0052398D03*
X0061746Y0052331D03*
X0062046Y0053498D03*
X0062076Y0053531D03*
X0065076Y0052831D03*
X0065076Y0052798D03*
X0065076Y0052731D03*
X0065076Y0052698D03*
X0065076Y0052631D03*
X0065076Y0052598D03*
X0065076Y0052531D03*
X0065076Y0052498D03*
X0065076Y0052431D03*
X0065076Y0052398D03*
X0065076Y0052331D03*
X0065746Y0052331D03*
X0065746Y0052398D03*
X0065746Y0052431D03*
X0065746Y0052498D03*
X0065746Y0052531D03*
X0065746Y0052598D03*
X0065746Y0052631D03*
X0065746Y0052698D03*
X0065746Y0052731D03*
X0065746Y0052798D03*
X0065746Y0052831D03*
X0068846Y0052831D03*
X0068846Y0052798D03*
X0068846Y0052731D03*
X0068846Y0052698D03*
X0068846Y0052631D03*
X0068846Y0052598D03*
X0068846Y0052531D03*
X0068846Y0052498D03*
X0068846Y0052431D03*
X0068846Y0052398D03*
X0068846Y0052331D03*
X0071946Y0052331D03*
X0071946Y0052398D03*
X0071946Y0052431D03*
X0071946Y0052498D03*
X0071946Y0052531D03*
X0071946Y0052598D03*
X0071946Y0052631D03*
X0071946Y0052698D03*
X0071946Y0052731D03*
X0071946Y0052798D03*
X0071946Y0052831D03*
X0072346Y0052831D03*
X0072346Y0052798D03*
X0072346Y0052731D03*
X0072346Y0052698D03*
X0072346Y0052631D03*
X0072346Y0052598D03*
X0072346Y0052531D03*
X0072346Y0052498D03*
X0072346Y0052431D03*
X0072346Y0052398D03*
X0072346Y0052331D03*
X0072346Y0052298D03*
X0072346Y0052231D03*
X0072346Y0052198D03*
X0072346Y0052131D03*
X0072346Y0052098D03*
X0072346Y0052031D03*
X0072346Y0051998D03*
X0073746Y0051998D03*
X0073746Y0052031D03*
X0073746Y0052098D03*
X0073746Y0052131D03*
X0073746Y0052198D03*
X0073746Y0052231D03*
X0073746Y0052298D03*
X0073746Y0052331D03*
X0073746Y0052398D03*
X0073746Y0052431D03*
X0073746Y0052498D03*
X0073746Y0052531D03*
X0073746Y0052598D03*
X0073746Y0052631D03*
X0073746Y0052698D03*
X0073746Y0052731D03*
X0073746Y0052798D03*
X0073746Y0052831D03*
X0074176Y0052831D03*
X0074176Y0052798D03*
X0074176Y0052731D03*
X0074176Y0052698D03*
X0074176Y0052631D03*
X0074176Y0052598D03*
X0074176Y0052531D03*
X0074176Y0052498D03*
X0074176Y0052431D03*
X0074176Y0052398D03*
X0074176Y0052331D03*
X0074176Y0052298D03*
X0074176Y0052231D03*
X0074176Y0052198D03*
X0074176Y0052131D03*
X0074176Y0052098D03*
X0074176Y0052031D03*
X0074176Y0051998D03*
X0074576Y0051998D03*
X0074576Y0052031D03*
X0074576Y0052098D03*
X0074576Y0052131D03*
X0074576Y0052198D03*
X0074576Y0052231D03*
X0074576Y0052298D03*
X0074576Y0052331D03*
X0074576Y0052398D03*
X0074576Y0052431D03*
X0074576Y0052498D03*
X0074576Y0052531D03*
X0074576Y0052598D03*
X0074576Y0052631D03*
X0074576Y0052698D03*
X0074576Y0052731D03*
X0074576Y0052798D03*
X0074576Y0052831D03*
X0074946Y0052831D03*
X0074946Y0052798D03*
X0074946Y0052731D03*
X0074946Y0052698D03*
X0074946Y0052631D03*
X0074946Y0052598D03*
X0074946Y0052531D03*
X0074946Y0052498D03*
X0074946Y0052431D03*
X0074946Y0052398D03*
D397*
X0073311Y0052398D03*
X0073311Y0052431D03*
X0073311Y0052498D03*
X0073311Y0052531D03*
X0073311Y0052598D03*
X0073311Y0052631D03*
X0073311Y0052698D03*
X0073311Y0052731D03*
X0073311Y0052798D03*
X0073311Y0052831D03*
X0072811Y0052831D03*
X0072811Y0052798D03*
X0072811Y0052731D03*
X0072811Y0052698D03*
X0072811Y0052631D03*
X0072811Y0052598D03*
X0072811Y0052531D03*
X0072811Y0052498D03*
X0072811Y0052431D03*
X0072811Y0052398D03*
X0072811Y0052331D03*
X0072811Y0052298D03*
X0072811Y0052231D03*
X0072811Y0052198D03*
X0072811Y0052131D03*
X0072811Y0052098D03*
X0072811Y0052031D03*
X0072811Y0051998D03*
X0073311Y0051998D03*
X0073311Y0052031D03*
X0073311Y0052098D03*
X0073311Y0052131D03*
X0073311Y0052198D03*
X0073311Y0052231D03*
X0073311Y0052298D03*
X0073311Y0052331D03*
X0069511Y0052331D03*
X0069511Y0052398D03*
X0069511Y0052431D03*
X0069511Y0052498D03*
X0069511Y0052531D03*
X0069511Y0052598D03*
X0069511Y0052631D03*
X0069511Y0052698D03*
X0069511Y0052731D03*
X0069511Y0052798D03*
X0069511Y0052831D03*
X0065411Y0052831D03*
X0065411Y0052798D03*
X0065411Y0052731D03*
X0065411Y0052698D03*
X0065411Y0052631D03*
X0065411Y0052598D03*
X0065411Y0052531D03*
X0065411Y0052498D03*
X0065411Y0052431D03*
X0065411Y0052398D03*
X0065411Y0052331D03*
X0065411Y0052298D03*
X0065411Y0052231D03*
X0065411Y0052198D03*
X0065411Y0052131D03*
X0065411Y0052098D03*
X0065411Y0052031D03*
X0065411Y0051998D03*
X0062211Y0052331D03*
X0062211Y0052398D03*
X0062211Y0052431D03*
X0062211Y0052498D03*
X0062211Y0052531D03*
X0062211Y0052598D03*
X0062211Y0052631D03*
X0062211Y0052698D03*
X0062211Y0052731D03*
X0062211Y0052798D03*
X0062211Y0052831D03*
X0056511Y0052831D03*
X0056511Y0052798D03*
X0056511Y0052731D03*
X0056511Y0052698D03*
X0056511Y0052631D03*
X0056511Y0052598D03*
X0056511Y0052531D03*
X0056511Y0052498D03*
X0056511Y0052431D03*
X0056511Y0052398D03*
X0056511Y0052331D03*
X0056511Y0052898D03*
X0056511Y0052931D03*
X0056511Y0052998D03*
X0056511Y0053031D03*
X0056511Y0053098D03*
X0056511Y0053131D03*
X0056511Y0053198D03*
X0054211Y0052831D03*
X0054211Y0052798D03*
X0054211Y0052731D03*
X0054211Y0052698D03*
X0054211Y0052631D03*
X0054211Y0052598D03*
X0054211Y0052531D03*
X0054211Y0052498D03*
X0054211Y0052431D03*
X0054211Y0052398D03*
X0054211Y0052331D03*
X0053711Y0052331D03*
X0053711Y0052398D03*
X0053711Y0052431D03*
X0053711Y0052498D03*
X0053711Y0052531D03*
X0053711Y0052598D03*
X0053711Y0052631D03*
X0053711Y0052698D03*
X0053711Y0052731D03*
X0053711Y0052798D03*
X0053711Y0052831D03*
X0053511Y0052898D03*
X0053511Y0052931D03*
X0053511Y0052998D03*
X0053511Y0053031D03*
X0053511Y0053098D03*
X0053511Y0053131D03*
X0053511Y0053198D03*
X0053511Y0053231D03*
X0053511Y0053298D03*
X0053511Y0053331D03*
X0053511Y0053398D03*
X0053511Y0053431D03*
X0053511Y0053498D03*
X0053511Y0053531D03*
X0054011Y0053498D03*
X0050211Y0052831D03*
X0050211Y0052798D03*
X0050211Y0052731D03*
X0050211Y0052698D03*
X0050211Y0052631D03*
X0050211Y0052598D03*
X0050211Y0052531D03*
X0050211Y0052498D03*
X0050211Y0052431D03*
X0050211Y0052398D03*
X0050211Y0052331D03*
X0047111Y0052331D03*
X0047111Y0052398D03*
X0047111Y0052431D03*
X0047111Y0052498D03*
X0047111Y0052531D03*
X0047111Y0052598D03*
X0047111Y0052631D03*
X0047111Y0052698D03*
X0047111Y0052731D03*
X0047111Y0052798D03*
X0047111Y0052831D03*
X0043611Y0052831D03*
X0043611Y0052798D03*
X0043611Y0052731D03*
X0043611Y0052698D03*
X0043611Y0052631D03*
X0043611Y0052598D03*
X0043611Y0052531D03*
X0043611Y0052498D03*
X0043611Y0052431D03*
X0043611Y0052398D03*
X0043611Y0052331D03*
X0043611Y0052298D03*
X0043611Y0052231D03*
X0043611Y0052198D03*
X0043611Y0052131D03*
X0043611Y0052098D03*
X0043611Y0052031D03*
X0043611Y0051998D03*
X0042211Y0051998D03*
X0042211Y0052031D03*
X0042211Y0052098D03*
X0042211Y0052131D03*
X0042211Y0052198D03*
X0042211Y0052231D03*
X0042211Y0052298D03*
X0042211Y0052331D03*
X0042211Y0052398D03*
X0042211Y0052431D03*
X0042211Y0052498D03*
X0042211Y0052531D03*
X0042211Y0052598D03*
X0042211Y0052631D03*
X0042211Y0052698D03*
X0042211Y0052731D03*
X0042211Y0052798D03*
X0042211Y0052831D03*
X0041811Y0052831D03*
X0041811Y0052798D03*
X0041811Y0052731D03*
X0041811Y0052698D03*
X0041811Y0052631D03*
X0041811Y0052598D03*
X0041811Y0052531D03*
X0041811Y0052498D03*
X0041811Y0052431D03*
X0041811Y0052398D03*
X0041811Y0052331D03*
X0041811Y0052298D03*
X0041811Y0052231D03*
X0041811Y0052198D03*
X0041811Y0052131D03*
X0041811Y0052098D03*
X0041811Y0052031D03*
X0041811Y0051998D03*
X0041411Y0051998D03*
X0041411Y0052031D03*
X0041411Y0052098D03*
X0041411Y0052131D03*
X0041411Y0052198D03*
X0041411Y0052231D03*
X0041411Y0052298D03*
X0041411Y0052331D03*
X0041411Y0052398D03*
X0041411Y0052431D03*
X0041411Y0052498D03*
X0041411Y0052531D03*
X0041411Y0052598D03*
X0041411Y0052631D03*
X0041411Y0052698D03*
X0041411Y0052731D03*
X0041411Y0052798D03*
X0041411Y0052831D03*
X0041011Y0052831D03*
X0041011Y0052798D03*
X0041011Y0052731D03*
X0041011Y0052698D03*
X0041011Y0052631D03*
X0041011Y0052598D03*
X0041011Y0052531D03*
X0041011Y0052498D03*
X0041011Y0052431D03*
X0041011Y0052398D03*
X0041011Y0052331D03*
D398*
X0061961Y0053431D03*
X0074961Y0052331D03*
D399*
X0059261Y0052331D03*
X0059261Y0052398D03*
X0059261Y0052431D03*
X0059261Y0052498D03*
X0059261Y0052531D03*
X0059261Y0052598D03*
X0059261Y0052631D03*
X0059261Y0052698D03*
X0059261Y0052731D03*
X0059261Y0052798D03*
X0059261Y0052831D03*
X0059261Y0052898D03*
X0059261Y0052931D03*
X0059261Y0052998D03*
X0059261Y0053031D03*
X0059261Y0053098D03*
X0059261Y0053131D03*
X0059261Y0053198D03*
X0058191Y0053198D03*
X0058191Y0053231D03*
X0058191Y0053298D03*
X0058191Y0053331D03*
X0058191Y0053398D03*
X0058191Y0053431D03*
X0058191Y0053498D03*
X0058191Y0053531D03*
X0058191Y0053131D03*
D400*
X0073426Y0053165D03*
X0073426Y0053265D03*
X0073426Y0053365D03*
X0073426Y0053065D03*
X0073426Y0052965D03*
X0073426Y0052865D03*
D401*
X0069161Y0052898D03*
X0069161Y0052931D03*
X0069161Y0052998D03*
X0069161Y0053031D03*
X0069161Y0053098D03*
X0069161Y0053131D03*
X0069161Y0053198D03*
X0069161Y0053231D03*
X0069161Y0053298D03*
X0069161Y0053331D03*
X0069161Y0053398D03*
X0069161Y0053431D03*
X0069161Y0053498D03*
X0069161Y0053531D03*
X0069161Y0053598D03*
X0069161Y0053631D03*
X0069161Y0053698D03*
X0069161Y0053731D03*
X0069161Y0053798D03*
X0069161Y0053831D03*
X0069161Y0053898D03*
X0069161Y0053931D03*
X0069161Y0053998D03*
X0069161Y0054031D03*
D402*
X0062381Y0053531D03*
X0062381Y0053498D03*
X0062381Y0053431D03*
X0062381Y0053398D03*
X0062381Y0053331D03*
X0062381Y0053298D03*
X0062381Y0053231D03*
X0062381Y0053198D03*
X0062381Y0053131D03*
X0062381Y0053098D03*
X0062381Y0053031D03*
X0062381Y0052998D03*
X0062381Y0052931D03*
X0062381Y0052898D03*
X0061941Y0053398D03*
X0054341Y0053398D03*
X0054341Y0053431D03*
X0054341Y0053498D03*
X0054341Y0053531D03*
X0054341Y0053331D03*
X0054341Y0053298D03*
X0054341Y0053231D03*
X0054341Y0053198D03*
X0054341Y0053131D03*
X0054341Y0053098D03*
X0054341Y0053031D03*
X0054341Y0052998D03*
X0054341Y0052931D03*
X0054341Y0052898D03*
X0053941Y0053431D03*
D403*
X0053961Y0052931D03*
X0053961Y0052898D03*
X0061961Y0052898D03*
D404*
X0062381Y0052965D03*
X0062381Y0053065D03*
X0062381Y0053165D03*
X0062381Y0053265D03*
X0062381Y0053365D03*
X0062381Y0053465D03*
X0054341Y0053465D03*
X0054341Y0053365D03*
X0054341Y0053265D03*
X0054341Y0053165D03*
X0054341Y0053065D03*
X0054341Y0052965D03*
D405*
X0053991Y0053365D03*
X0061991Y0052965D03*
D406*
X0053976Y0052965D03*
D407*
X0054011Y0052998D03*
X0054011Y0053031D03*
X0054011Y0053098D03*
X0054011Y0053131D03*
X0054011Y0053198D03*
X0054011Y0053231D03*
X0054011Y0053298D03*
X0054011Y0053331D03*
X0062011Y0052998D03*
D408*
X0056961Y0052998D03*
D409*
X0058896Y0053131D03*
X0058896Y0053198D03*
X0058896Y0053398D03*
X0058896Y0053431D03*
X0058896Y0053498D03*
X0058896Y0053531D03*
X0062026Y0053331D03*
X0062026Y0053298D03*
X0062026Y0053231D03*
X0062026Y0053198D03*
X0062026Y0053131D03*
X0062026Y0053098D03*
X0062026Y0053031D03*
X0053926Y0053398D03*
D410*
X0054011Y0053265D03*
X0054011Y0053165D03*
X0054011Y0053065D03*
X0062011Y0053365D03*
D411*
X0056896Y0053098D03*
D412*
X0058511Y0053131D03*
X0058511Y0053198D03*
X0058511Y0053231D03*
X0058511Y0053298D03*
X0058511Y0053331D03*
X0058511Y0053398D03*
X0058511Y0053431D03*
X0058511Y0053498D03*
X0058511Y0053531D03*
D413*
X0056826Y0053531D03*
X0056826Y0053498D03*
X0056826Y0053431D03*
X0056826Y0053398D03*
X0056826Y0053198D03*
X0056826Y0053131D03*
D414*
X0056826Y0053165D03*
X0056826Y0053465D03*
X0056826Y0053565D03*
X0061996Y0053465D03*
D415*
X0059046Y0053365D03*
X0059046Y0053265D03*
D416*
X0056676Y0053265D03*
X0056676Y0053365D03*
D417*
X0053961Y0053898D03*
M02*
