G75*
%MOIN*%
%OFA0B0*%
%FSLAX25Y25*%
%IPPOS*%
%LPD*%
%AMOC8*
5,1,8,0,0,1.08239X$1,22.5*
%
%ADD10C,0.00787*%
%ADD11C,0.00800*%
%ADD12C,0.01100*%
%ADD13C,0.00299*%
%ADD14R,0.00400X0.00034*%
%ADD15R,0.00440X0.00034*%
%ADD16R,0.02730X0.00034*%
%ADD17R,0.03400X0.00034*%
%ADD18R,0.02770X0.00034*%
%ADD19R,0.02270X0.00034*%
%ADD20R,0.00600X0.00033*%
%ADD21R,0.00560X0.00033*%
%ADD22R,0.03070X0.00033*%
%ADD23R,0.03630X0.00033*%
%ADD24R,0.03030X0.00033*%
%ADD25R,0.02400X0.00033*%
%ADD26R,0.00800X0.00033*%
%ADD27R,0.00700X0.00033*%
%ADD28R,0.03270X0.00033*%
%ADD29R,0.03800X0.00033*%
%ADD30R,0.03300X0.00033*%
%ADD31R,0.02530X0.00033*%
%ADD32R,0.00870X0.00034*%
%ADD33R,0.00800X0.00034*%
%ADD34R,0.03470X0.00034*%
%ADD35R,0.03970X0.00034*%
%ADD36R,0.03460X0.00034*%
%ADD37R,0.02600X0.00034*%
%ADD38R,0.03500X0.00034*%
%ADD39R,0.00870X0.00033*%
%ADD40R,0.03600X0.00033*%
%ADD41R,0.04040X0.00033*%
%ADD42R,0.02670X0.00033*%
%ADD43R,0.00900X0.00033*%
%ADD44R,0.04100X0.00033*%
%ADD45R,0.03770X0.00033*%
%ADD46R,0.00370X0.00033*%
%ADD47R,0.00940X0.00034*%
%ADD48R,0.03930X0.00034*%
%ADD49R,0.04200X0.00034*%
%ADD50R,0.03900X0.00034*%
%ADD51R,0.00630X0.00034*%
%ADD52R,0.02670X0.00034*%
%ADD53R,0.00930X0.00033*%
%ADD54R,0.04070X0.00033*%
%ADD55R,0.04240X0.00033*%
%ADD56R,0.04030X0.00033*%
%ADD57R,0.00770X0.00033*%
%ADD58R,0.02640X0.00033*%
%ADD59R,0.04000X0.00033*%
%ADD60R,0.04130X0.00033*%
%ADD61R,0.04300X0.00033*%
%ADD62R,0.04170X0.00033*%
%ADD63R,0.00830X0.00033*%
%ADD64R,0.02560X0.00033*%
%ADD65R,0.04270X0.00034*%
%ADD66R,0.04340X0.00034*%
%ADD67R,0.04230X0.00034*%
%ADD68R,0.00860X0.00034*%
%ADD69R,0.02470X0.00034*%
%ADD70R,0.00960X0.00033*%
%ADD71R,0.04330X0.00033*%
%ADD72R,0.04400X0.00033*%
%ADD73R,0.04340X0.00033*%
%ADD74R,0.00860X0.00033*%
%ADD75R,0.02330X0.00033*%
%ADD76R,0.00970X0.00033*%
%ADD77R,0.04440X0.00033*%
%ADD78R,0.04370X0.00033*%
%ADD79R,0.02100X0.00033*%
%ADD80R,0.04360X0.00033*%
%ADD81R,0.00970X0.00034*%
%ADD82R,0.01070X0.00034*%
%ADD83R,0.01040X0.00034*%
%ADD84R,0.01030X0.00034*%
%ADD85R,0.01000X0.00034*%
%ADD86R,0.01000X0.00033*%
%ADD87R,0.00940X0.00033*%
%ADD88R,0.00930X0.00034*%
%ADD89R,0.00900X0.00034*%
%ADD90R,0.00960X0.00034*%
%ADD91R,0.00830X0.00034*%
%ADD92R,0.00700X0.00034*%
%ADD93R,0.00740X0.00034*%
%ADD94R,0.00530X0.00033*%
%ADD95R,0.00570X0.00033*%
%ADD96R,0.00270X0.00033*%
%ADD97R,0.00300X0.00033*%
%ADD98R,0.01070X0.00033*%
%ADD99R,0.01060X0.00033*%
%ADD100R,0.03430X0.00034*%
%ADD101R,0.04400X0.00034*%
%ADD102R,0.03670X0.00033*%
%ADD103R,0.03640X0.00033*%
%ADD104R,0.03730X0.00033*%
%ADD105R,0.03770X0.00034*%
%ADD106R,0.04170X0.00034*%
%ADD107R,0.04100X0.00034*%
%ADD108R,0.03830X0.00034*%
%ADD109R,0.04230X0.00033*%
%ADD110R,0.04200X0.00033*%
%ADD111R,0.04270X0.00033*%
%ADD112R,0.03760X0.00033*%
%ADD113R,0.04330X0.00034*%
%ADD114R,0.04300X0.00034*%
%ADD115R,0.03730X0.00034*%
%ADD116R,0.03500X0.00033*%
%ADD117R,0.01060X0.00034*%
%ADD118R,0.00230X0.00034*%
%ADD119R,0.00370X0.00034*%
%ADD120R,0.00630X0.00033*%
%ADD121R,0.00730X0.00033*%
%ADD122R,0.01030X0.00033*%
%ADD123R,0.04430X0.00034*%
%ADD124R,0.04440X0.00034*%
%ADD125R,0.04370X0.00034*%
%ADD126R,0.02160X0.00034*%
%ADD127R,0.02360X0.00033*%
%ADD128R,0.02470X0.00033*%
%ADD129R,0.04130X0.00034*%
%ADD130R,0.04140X0.00034*%
%ADD131R,0.02560X0.00034*%
%ADD132R,0.04430X0.00033*%
%ADD133R,0.03870X0.00033*%
%ADD134R,0.03900X0.00033*%
%ADD135R,0.03400X0.00033*%
%ADD136R,0.03940X0.00033*%
%ADD137R,0.02600X0.00033*%
%ADD138R,0.03760X0.00034*%
%ADD139R,0.03200X0.00034*%
%ADD140R,0.02500X0.00034*%
%ADD141R,0.03570X0.00033*%
%ADD142R,0.02930X0.00033*%
%ADD143R,0.03560X0.00033*%
%ADD144R,0.02970X0.00033*%
%ADD145R,0.03000X0.00033*%
%ADD146R,0.02630X0.00033*%
%ADD147R,0.02200X0.00033*%
%ADD148R,0.06630X0.00033*%
%ADD149R,0.00470X0.00033*%
%ADD150R,0.06830X0.00033*%
%ADD151R,0.04500X0.00033*%
%ADD152R,0.06970X0.00034*%
%ADD153R,0.04700X0.00034*%
%ADD154R,0.03960X0.00034*%
%ADD155R,0.07060X0.00033*%
%ADD156R,0.04870X0.00033*%
%ADD157R,0.01100X0.00033*%
%ADD158R,0.07200X0.00033*%
%ADD159R,0.05030X0.00033*%
%ADD160R,0.01140X0.00033*%
%ADD161R,0.01200X0.00033*%
%ADD162R,0.01170X0.00033*%
%ADD163R,0.07260X0.00034*%
%ADD164R,0.05170X0.00034*%
%ADD165R,0.01230X0.00034*%
%ADD166R,0.01260X0.00034*%
%ADD167R,0.04240X0.00034*%
%ADD168R,0.01270X0.00034*%
%ADD169R,0.07370X0.00033*%
%ADD170R,0.05300X0.00033*%
%ADD171R,0.01330X0.00033*%
%ADD172R,0.01340X0.00033*%
%ADD173R,0.01300X0.00033*%
%ADD174R,0.07400X0.00033*%
%ADD175R,0.05470X0.00033*%
%ADD176R,0.01400X0.00033*%
%ADD177R,0.01430X0.00033*%
%ADD178R,0.01370X0.00033*%
%ADD179R,0.07430X0.00034*%
%ADD180R,0.05540X0.00034*%
%ADD181R,0.01470X0.00034*%
%ADD182R,0.01500X0.00034*%
%ADD183R,0.04360X0.00034*%
%ADD184R,0.01400X0.00034*%
%ADD185R,0.07470X0.00033*%
%ADD186R,0.05630X0.00033*%
%ADD187R,0.01540X0.00033*%
%ADD188R,0.01600X0.00033*%
%ADD189R,0.01470X0.00033*%
%ADD190R,0.01460X0.00033*%
%ADD191R,0.07500X0.00033*%
%ADD192R,0.05730X0.00033*%
%ADD193R,0.01630X0.00033*%
%ADD194R,0.04470X0.00033*%
%ADD195R,0.01500X0.00033*%
%ADD196R,0.07500X0.00034*%
%ADD197R,0.05800X0.00034*%
%ADD198R,0.01640X0.00034*%
%ADD199R,0.01700X0.00034*%
%ADD200R,0.04500X0.00034*%
%ADD201R,0.01530X0.00034*%
%ADD202R,0.05870X0.00033*%
%ADD203R,0.01700X0.00033*%
%ADD204R,0.01730X0.00033*%
%ADD205R,0.05930X0.00033*%
%ADD206R,0.01770X0.00033*%
%ADD207R,0.01800X0.00033*%
%ADD208R,0.06000X0.00034*%
%ADD209R,0.01800X0.00034*%
%ADD210R,0.01860X0.00034*%
%ADD211R,0.04470X0.00034*%
%ADD212R,0.01660X0.00034*%
%ADD213R,0.06030X0.00033*%
%ADD214R,0.01870X0.00033*%
%ADD215R,0.01900X0.00033*%
%ADD216R,0.06100X0.00033*%
%ADD217R,0.01940X0.00033*%
%ADD218R,0.01960X0.00033*%
%ADD219R,0.07470X0.00034*%
%ADD220R,0.06170X0.00034*%
%ADD221R,0.01970X0.00034*%
%ADD222R,0.02030X0.00034*%
%ADD223R,0.01760X0.00034*%
%ADD224R,0.07440X0.00033*%
%ADD225R,0.06230X0.00033*%
%ADD226R,0.02040X0.00033*%
%ADD227R,0.02060X0.00033*%
%ADD228R,0.06270X0.00033*%
%ADD229R,0.02070X0.00033*%
%ADD230R,0.02130X0.00033*%
%ADD231R,0.01830X0.00033*%
%ADD232R,0.07400X0.00034*%
%ADD233R,0.06330X0.00034*%
%ADD234R,0.02140X0.00034*%
%ADD235R,0.02200X0.00034*%
%ADD236R,0.06400X0.00033*%
%ADD237R,0.02230X0.00033*%
%ADD238R,0.04160X0.00033*%
%ADD239R,0.07340X0.00033*%
%ADD240R,0.06430X0.00033*%
%ADD241R,0.02270X0.00033*%
%ADD242R,0.02300X0.00033*%
%ADD243R,0.01930X0.00033*%
%ADD244R,0.07270X0.00034*%
%ADD245R,0.06500X0.00034*%
%ADD246R,0.02300X0.00034*%
%ADD247R,0.02330X0.00034*%
%ADD248R,0.04000X0.00034*%
%ADD249R,0.01960X0.00034*%
%ADD250R,0.06570X0.00033*%
%ADD251R,0.02370X0.00033*%
%ADD252R,0.02000X0.00033*%
%ADD253R,0.07100X0.00033*%
%ADD254R,0.06600X0.00033*%
%ADD255R,0.02440X0.00033*%
%ADD256R,0.02430X0.00033*%
%ADD257R,0.02030X0.00033*%
%ADD258R,0.06630X0.00034*%
%ADD259R,0.02100X0.00034*%
%ADD260R,0.02540X0.00033*%
%ADD261R,0.02260X0.00033*%
%ADD262R,0.02160X0.00033*%
%ADD263R,0.02640X0.00034*%
%ADD264R,0.02660X0.00034*%
%ADD265R,0.02700X0.00033*%
%ADD266R,0.02740X0.00033*%
%ADD267R,0.02760X0.00033*%
%ADD268R,0.02800X0.00034*%
%ADD269R,0.02830X0.00034*%
%ADD270R,0.02870X0.00033*%
%ADD271R,0.02860X0.00033*%
%ADD272R,0.01970X0.00033*%
%ADD273R,0.02900X0.00033*%
%ADD274R,0.01900X0.00034*%
%ADD275R,0.02970X0.00034*%
%ADD276R,0.02960X0.00034*%
%ADD277R,0.02400X0.00034*%
%ADD278R,0.01860X0.00033*%
%ADD279R,0.03040X0.00033*%
%ADD280R,0.01840X0.00033*%
%ADD281R,0.03060X0.00033*%
%ADD282R,0.02460X0.00033*%
%ADD283R,0.01830X0.00034*%
%ADD284R,0.03140X0.00034*%
%ADD285R,0.03130X0.00034*%
%ADD286R,0.03200X0.00033*%
%ADD287R,0.03160X0.00033*%
%ADD288R,0.03240X0.00033*%
%ADD289R,0.03230X0.00033*%
%ADD290R,0.01730X0.00034*%
%ADD291R,0.03300X0.00034*%
%ADD292R,0.02630X0.00034*%
%ADD293R,0.03370X0.00033*%
%ADD294R,0.03330X0.00033*%
%ADD295R,0.02660X0.00033*%
%ADD296R,0.01670X0.00034*%
%ADD297R,0.01640X0.00033*%
%ADD298R,0.03540X0.00033*%
%ADD299R,0.02800X0.00033*%
%ADD300R,0.01570X0.00034*%
%ADD301R,0.02070X0.00034*%
%ADD302R,0.02000X0.00034*%
%ADD303R,0.01560X0.00033*%
%ADD304R,0.01530X0.00033*%
%ADD305R,0.01540X0.00034*%
%ADD306R,0.02930X0.00034*%
%ADD307R,0.02960X0.00033*%
%ADD308R,0.03700X0.00034*%
%ADD309R,0.03030X0.00034*%
%ADD310R,0.03100X0.00033*%
%ADD311R,0.03130X0.00033*%
%ADD312R,0.03360X0.00034*%
%ADD313R,0.03160X0.00034*%
%ADD314R,0.03100X0.00034*%
%ADD315R,0.01740X0.00033*%
%ADD316R,0.02760X0.00034*%
%ADD317R,0.02130X0.00034*%
%ADD318R,0.01740X0.00034*%
%ADD319R,0.01460X0.00034*%
%ADD320R,0.01230X0.00033*%
%ADD321R,0.01100X0.00034*%
%ADD322R,0.00570X0.00034*%
%ADD323R,0.05470X0.00034*%
%ADD324R,0.05600X0.00033*%
%ADD325R,0.05670X0.00033*%
%ADD326R,0.05770X0.00034*%
%ADD327R,0.05800X0.00033*%
%ADD328R,0.05840X0.00033*%
%ADD329R,0.05870X0.00034*%
%ADD330R,0.05900X0.00033*%
%ADD331R,0.05940X0.00033*%
%ADD332R,0.05940X0.00034*%
%ADD333R,0.05970X0.00033*%
%ADD334R,0.05970X0.00034*%
%ADD335R,0.05740X0.00034*%
%ADD336R,0.05570X0.00033*%
%ADD337R,0.03170X0.00034*%
%ADD338R,0.03140X0.00033*%
%ADD339R,0.03070X0.00034*%
%ADD340R,0.02940X0.00034*%
%ADD341R,0.01600X0.00034*%
%ADD342R,0.02840X0.00034*%
%ADD343R,0.02770X0.00033*%
%ADD344R,0.01440X0.00034*%
%ADD345R,0.02740X0.00034*%
%ADD346R,0.01440X0.00033*%
%ADD347R,0.02570X0.00033*%
%ADD348R,0.02540X0.00034*%
%ADD349R,0.01930X0.00034*%
%ADD350R,0.02340X0.00033*%
%ADD351R,0.02140X0.00033*%
%ADD352R,0.02240X0.00033*%
%ADD353R,0.02240X0.00034*%
%ADD354R,0.02170X0.00033*%
%ADD355R,0.02500X0.00033*%
%ADD356R,0.06670X0.00034*%
%ADD357R,0.03530X0.00034*%
%ADD358R,0.07140X0.00033*%
%ADD359R,0.07240X0.00033*%
%ADD360R,0.07300X0.00034*%
%ADD361R,0.06470X0.00033*%
%ADD362R,0.01870X0.00034*%
%ADD363R,0.06300X0.00033*%
%ADD364R,0.01770X0.00034*%
%ADD365R,0.06070X0.00033*%
%ADD366R,0.05700X0.00033*%
%ADD367R,0.07440X0.00034*%
%ADD368R,0.05570X0.00034*%
%ADD369R,0.01430X0.00034*%
%ADD370R,0.05440X0.00033*%
%ADD371R,0.01360X0.00033*%
%ADD372R,0.07330X0.00033*%
%ADD373R,0.01240X0.00034*%
%ADD374R,0.07170X0.00033*%
%ADD375R,0.05000X0.00033*%
%ADD376R,0.01130X0.00033*%
%ADD377R,0.04840X0.00033*%
%ADD378R,0.01040X0.00033*%
%ADD379R,0.04060X0.00033*%
%ADD380R,0.06940X0.00034*%
%ADD381R,0.04630X0.00034*%
%ADD382R,0.03940X0.00034*%
%ADD383R,0.06800X0.00033*%
%ADD384R,0.00500X0.00033*%
%ADD385R,0.00330X0.00033*%
%ADD386R,0.00100X0.00034*%
%ADD387R,0.00130X0.00034*%
%ADD388R,0.00140X0.00034*%
%ADD389R,0.02570X0.00034*%
%ADD390R,0.03230X0.00034*%
%ADD391R,0.03000X0.00034*%
%ADD392R,0.02440X0.00034*%
%ADD393R,0.03240X0.00034*%
%ADD394R,0.02530X0.00034*%
%ADD395R,0.00130X0.00033*%
%ADD396R,0.00140X0.00033*%
%ADD397R,0.00160X0.00033*%
%ADD398R,0.00100X0.00033*%
%ADD399R,0.03370X0.00034*%
%ADD400R,0.01240X0.00033*%
%ADD401R,0.00200X0.00033*%
%ADD402R,0.00360X0.00033*%
%ADD403R,0.00200X0.00034*%
%ADD404R,0.00300X0.00034*%
%ADD405R,0.00330X0.00034*%
%ADD406R,0.00260X0.00033*%
%ADD407R,0.00040X0.00033*%
%ADD408R,0.00230X0.00033*%
%ADD409R,0.00260X0.00034*%
%ADD410R,0.00030X0.00033*%
%ADD411R,0.00400X0.00033*%
%ADD412R,0.00170X0.00033*%
%ADD413R,0.00170X0.00034*%
%ADD414R,0.00530X0.00034*%
%ADD415R,0.00470X0.00034*%
%ADD416R,0.00760X0.00033*%
D10*
X0018392Y0032555D02*
X0069573Y0032555D01*
X0069763Y0032557D01*
X0069953Y0032564D01*
X0070143Y0032576D01*
X0070333Y0032592D01*
X0070522Y0032612D01*
X0070711Y0032638D01*
X0070899Y0032667D01*
X0071086Y0032702D01*
X0071272Y0032741D01*
X0071457Y0032784D01*
X0071642Y0032832D01*
X0071825Y0032884D01*
X0072006Y0032940D01*
X0072186Y0033001D01*
X0072365Y0033067D01*
X0072542Y0033136D01*
X0072718Y0033210D01*
X0072891Y0033288D01*
X0073063Y0033371D01*
X0073232Y0033457D01*
X0073400Y0033547D01*
X0073565Y0033642D01*
X0073728Y0033740D01*
X0073888Y0033843D01*
X0074046Y0033949D01*
X0074201Y0034059D01*
X0074354Y0034172D01*
X0074504Y0034290D01*
X0074650Y0034411D01*
X0074794Y0034535D01*
X0074935Y0034663D01*
X0075073Y0034794D01*
X0075208Y0034929D01*
X0075339Y0035067D01*
X0075467Y0035208D01*
X0075591Y0035352D01*
X0075712Y0035498D01*
X0075830Y0035648D01*
X0075943Y0035801D01*
X0076053Y0035956D01*
X0076159Y0036114D01*
X0076262Y0036274D01*
X0076360Y0036437D01*
X0076455Y0036602D01*
X0076545Y0036770D01*
X0076631Y0036939D01*
X0076714Y0037111D01*
X0076792Y0037284D01*
X0076866Y0037460D01*
X0076935Y0037637D01*
X0077001Y0037816D01*
X0077062Y0037996D01*
X0077118Y0038177D01*
X0077170Y0038360D01*
X0077218Y0038545D01*
X0077261Y0038730D01*
X0077300Y0038916D01*
X0077335Y0039103D01*
X0077364Y0039291D01*
X0077390Y0039480D01*
X0077410Y0039669D01*
X0077426Y0039859D01*
X0077438Y0040049D01*
X0077445Y0040239D01*
X0077447Y0040429D01*
X0077447Y0103421D01*
X0077445Y0103611D01*
X0077438Y0103801D01*
X0077426Y0103991D01*
X0077410Y0104181D01*
X0077390Y0104370D01*
X0077364Y0104559D01*
X0077335Y0104747D01*
X0077300Y0104934D01*
X0077261Y0105120D01*
X0077218Y0105305D01*
X0077170Y0105490D01*
X0077118Y0105673D01*
X0077062Y0105854D01*
X0077001Y0106034D01*
X0076935Y0106213D01*
X0076866Y0106390D01*
X0076792Y0106566D01*
X0076714Y0106739D01*
X0076631Y0106911D01*
X0076545Y0107080D01*
X0076455Y0107248D01*
X0076360Y0107413D01*
X0076262Y0107576D01*
X0076159Y0107736D01*
X0076053Y0107894D01*
X0075943Y0108049D01*
X0075830Y0108202D01*
X0075712Y0108352D01*
X0075591Y0108498D01*
X0075467Y0108642D01*
X0075339Y0108783D01*
X0075208Y0108921D01*
X0075073Y0109056D01*
X0074935Y0109187D01*
X0074794Y0109315D01*
X0074650Y0109439D01*
X0074504Y0109560D01*
X0074354Y0109678D01*
X0074201Y0109791D01*
X0074046Y0109901D01*
X0073888Y0110007D01*
X0073728Y0110110D01*
X0073565Y0110208D01*
X0073400Y0110303D01*
X0073232Y0110393D01*
X0073063Y0110479D01*
X0072891Y0110562D01*
X0072718Y0110640D01*
X0072542Y0110714D01*
X0072365Y0110783D01*
X0072186Y0110849D01*
X0072006Y0110910D01*
X0071825Y0110966D01*
X0071642Y0111018D01*
X0071457Y0111066D01*
X0071272Y0111109D01*
X0071086Y0111148D01*
X0070899Y0111183D01*
X0070711Y0111212D01*
X0070522Y0111238D01*
X0070333Y0111258D01*
X0070143Y0111274D01*
X0069953Y0111286D01*
X0069763Y0111293D01*
X0069573Y0111295D01*
X0018392Y0111295D01*
X0018202Y0111293D01*
X0018012Y0111286D01*
X0017822Y0111274D01*
X0017632Y0111258D01*
X0017443Y0111238D01*
X0017254Y0111212D01*
X0017066Y0111183D01*
X0016879Y0111148D01*
X0016693Y0111109D01*
X0016508Y0111066D01*
X0016323Y0111018D01*
X0016140Y0110966D01*
X0015959Y0110910D01*
X0015779Y0110849D01*
X0015600Y0110783D01*
X0015423Y0110714D01*
X0015247Y0110640D01*
X0015074Y0110562D01*
X0014902Y0110479D01*
X0014733Y0110393D01*
X0014565Y0110303D01*
X0014400Y0110208D01*
X0014237Y0110110D01*
X0014077Y0110007D01*
X0013919Y0109901D01*
X0013764Y0109791D01*
X0013611Y0109678D01*
X0013461Y0109560D01*
X0013315Y0109439D01*
X0013171Y0109315D01*
X0013030Y0109187D01*
X0012892Y0109056D01*
X0012757Y0108921D01*
X0012626Y0108783D01*
X0012498Y0108642D01*
X0012374Y0108498D01*
X0012253Y0108352D01*
X0012135Y0108202D01*
X0012022Y0108049D01*
X0011912Y0107894D01*
X0011806Y0107736D01*
X0011703Y0107576D01*
X0011605Y0107413D01*
X0011510Y0107248D01*
X0011420Y0107080D01*
X0011334Y0106911D01*
X0011251Y0106739D01*
X0011173Y0106566D01*
X0011099Y0106390D01*
X0011030Y0106213D01*
X0010964Y0106034D01*
X0010903Y0105854D01*
X0010847Y0105673D01*
X0010795Y0105490D01*
X0010747Y0105305D01*
X0010704Y0105120D01*
X0010665Y0104934D01*
X0010630Y0104747D01*
X0010601Y0104559D01*
X0010575Y0104370D01*
X0010555Y0104181D01*
X0010539Y0103991D01*
X0010527Y0103801D01*
X0010520Y0103611D01*
X0010518Y0103421D01*
X0010518Y0040429D01*
X0010520Y0040239D01*
X0010527Y0040049D01*
X0010539Y0039859D01*
X0010555Y0039669D01*
X0010575Y0039480D01*
X0010601Y0039291D01*
X0010630Y0039103D01*
X0010665Y0038916D01*
X0010704Y0038730D01*
X0010747Y0038545D01*
X0010795Y0038360D01*
X0010847Y0038177D01*
X0010903Y0037996D01*
X0010964Y0037816D01*
X0011030Y0037637D01*
X0011099Y0037460D01*
X0011173Y0037284D01*
X0011251Y0037111D01*
X0011334Y0036939D01*
X0011420Y0036770D01*
X0011510Y0036602D01*
X0011605Y0036437D01*
X0011703Y0036274D01*
X0011806Y0036114D01*
X0011912Y0035956D01*
X0012022Y0035801D01*
X0012135Y0035648D01*
X0012253Y0035498D01*
X0012374Y0035352D01*
X0012498Y0035208D01*
X0012626Y0035067D01*
X0012757Y0034929D01*
X0012892Y0034794D01*
X0013030Y0034663D01*
X0013171Y0034535D01*
X0013315Y0034411D01*
X0013461Y0034290D01*
X0013611Y0034172D01*
X0013764Y0034059D01*
X0013919Y0033949D01*
X0014077Y0033843D01*
X0014237Y0033740D01*
X0014400Y0033642D01*
X0014565Y0033547D01*
X0014733Y0033457D01*
X0014902Y0033371D01*
X0015074Y0033288D01*
X0015247Y0033210D01*
X0015423Y0033136D01*
X0015600Y0033067D01*
X0015779Y0033001D01*
X0015959Y0032940D01*
X0016140Y0032884D01*
X0016323Y0032832D01*
X0016508Y0032784D01*
X0016693Y0032741D01*
X0016879Y0032702D01*
X0017066Y0032667D01*
X0017254Y0032638D01*
X0017443Y0032612D01*
X0017632Y0032592D01*
X0017822Y0032576D01*
X0018012Y0032564D01*
X0018202Y0032557D01*
X0018392Y0032555D01*
D11*
X0019234Y0103890D02*
X0019234Y0108694D01*
X0022436Y0108694D02*
X0019234Y0103890D01*
X0022436Y0103890D02*
X0022436Y0108694D01*
X0024273Y0108694D02*
X0025874Y0108694D01*
X0025073Y0108694D02*
X0025073Y0103890D01*
X0024273Y0103890D02*
X0025874Y0103890D01*
X0027828Y0106292D02*
X0031030Y0106292D01*
X0032984Y0107893D02*
X0033785Y0108694D01*
X0035386Y0108694D01*
X0036187Y0107893D01*
X0036187Y0104690D01*
X0035386Y0103890D01*
X0033785Y0103890D01*
X0032984Y0104690D01*
X0038140Y0103890D02*
X0038140Y0107092D01*
X0039742Y0108694D01*
X0041343Y0107092D01*
X0041343Y0103890D01*
X0041343Y0106292D02*
X0038140Y0106292D01*
D12*
X0036545Y0090090D02*
X0038513Y0088121D01*
X0039498Y0089106D01*
X0036545Y0090090D02*
X0035561Y0089106D01*
X0025753Y0089164D02*
X0024769Y0088180D01*
X0022801Y0090149D01*
X0021817Y0089164D01*
D13*
X0043174Y0067389D02*
X0043481Y0067389D01*
X0043303Y0067512D02*
X0044444Y0066724D01*
X0044484Y0066764D01*
X0044562Y0066803D01*
X0044602Y0066803D01*
X0044681Y0066843D01*
X0044720Y0066882D01*
X0044799Y0066921D01*
X0044838Y0066921D01*
X0044917Y0066961D01*
X0044956Y0067000D01*
X0045035Y0067000D01*
X0045114Y0067039D01*
X0045153Y0067039D01*
X0045232Y0067079D01*
X0045271Y0067079D01*
X0045350Y0067118D01*
X0045429Y0067118D01*
X0045665Y0068496D01*
X0046925Y0068496D01*
X0047161Y0067118D01*
X0047200Y0067118D01*
X0047279Y0067079D01*
X0047358Y0067079D01*
X0047397Y0067039D01*
X0047476Y0067039D01*
X0047555Y0067000D01*
X0047594Y0067000D01*
X0047673Y0066961D01*
X0047712Y0066921D01*
X0047791Y0066921D01*
X0047830Y0066882D01*
X0047909Y0066843D01*
X0047948Y0066803D01*
X0048027Y0066803D01*
X0048066Y0066764D01*
X0048145Y0066724D01*
X0049287Y0067512D01*
X0050153Y0066646D01*
X0049366Y0065504D01*
X0049405Y0065465D01*
X0049405Y0065386D01*
X0049444Y0065347D01*
X0049484Y0065268D01*
X0049523Y0065228D01*
X0049523Y0065150D01*
X0049562Y0065110D01*
X0049602Y0065032D01*
X0049602Y0064992D01*
X0049681Y0064835D01*
X0049681Y0064795D01*
X0049720Y0064717D01*
X0049720Y0064677D01*
X0049759Y0064598D01*
X0049759Y0064520D01*
X0051137Y0064284D01*
X0051137Y0063024D01*
X0049759Y0062787D01*
X0049759Y0062748D01*
X0049720Y0062669D01*
X0049720Y0062591D01*
X0049681Y0062551D01*
X0049681Y0062473D01*
X0049641Y0062433D01*
X0049602Y0062354D01*
X0049602Y0062276D01*
X0049562Y0062236D01*
X0049562Y0062158D01*
X0049523Y0062118D01*
X0049484Y0062039D01*
X0049444Y0062000D01*
X0049405Y0061921D01*
X0049405Y0061882D01*
X0049366Y0061803D01*
X0050153Y0060701D01*
X0049287Y0059795D01*
X0048145Y0060583D01*
X0048106Y0060583D01*
X0048066Y0060543D01*
X0048027Y0060543D01*
X0047988Y0060504D01*
X0047948Y0060504D01*
X0047909Y0060465D01*
X0047870Y0060465D01*
X0047830Y0060425D01*
X0047791Y0060425D01*
X0047751Y0060386D01*
X0047712Y0060386D01*
X0047673Y0060347D01*
X0047594Y0060347D01*
X0047555Y0060307D01*
X0046767Y0062433D01*
X0046885Y0062473D01*
X0047043Y0062551D01*
X0047122Y0062630D01*
X0047200Y0062669D01*
X0047279Y0062748D01*
X0047318Y0062827D01*
X0047397Y0062906D01*
X0047476Y0063063D01*
X0047515Y0063181D01*
X0047594Y0063339D01*
X0047594Y0063457D01*
X0047633Y0063575D01*
X0047633Y0063811D01*
X0047476Y0064284D01*
X0047318Y0064520D01*
X0047240Y0064598D01*
X0047122Y0064677D01*
X0047043Y0064756D01*
X0046925Y0064835D01*
X0046807Y0064874D01*
X0046688Y0064953D01*
X0046570Y0064953D01*
X0046413Y0064992D01*
X0046137Y0064992D01*
X0046019Y0064953D01*
X0045901Y0064953D01*
X0045783Y0064874D01*
X0045665Y0064835D01*
X0045429Y0064677D01*
X0045271Y0064520D01*
X0045114Y0064284D01*
X0045074Y0064165D01*
X0044996Y0064047D01*
X0044996Y0063929D01*
X0044956Y0063811D01*
X0044956Y0063457D01*
X0044996Y0063339D01*
X0044996Y0063260D01*
X0045035Y0063181D01*
X0045074Y0063063D01*
X0045114Y0062984D01*
X0045192Y0062906D01*
X0045232Y0062827D01*
X0045389Y0062669D01*
X0045468Y0062630D01*
X0045547Y0062551D01*
X0045783Y0062433D01*
X0044996Y0060307D01*
X0044996Y0060347D01*
X0044917Y0060347D01*
X0044877Y0060386D01*
X0044838Y0060386D01*
X0044799Y0060425D01*
X0044759Y0060425D01*
X0044720Y0060465D01*
X0044641Y0060465D01*
X0044602Y0060504D01*
X0044562Y0060504D01*
X0044484Y0060583D01*
X0044444Y0060583D01*
X0043303Y0059795D01*
X0042397Y0060701D01*
X0043224Y0061803D01*
X0043185Y0061882D01*
X0043145Y0061921D01*
X0043106Y0062000D01*
X0043106Y0062039D01*
X0043066Y0062118D01*
X0043027Y0062158D01*
X0042988Y0062236D01*
X0042988Y0062276D01*
X0042909Y0062433D01*
X0042909Y0062473D01*
X0042870Y0062551D01*
X0042870Y0062591D01*
X0042830Y0062669D01*
X0042830Y0062748D01*
X0042791Y0062787D01*
X0041413Y0063024D01*
X0041413Y0064284D01*
X0042830Y0064520D01*
X0042830Y0064677D01*
X0042870Y0064717D01*
X0042870Y0064795D01*
X0042909Y0064835D01*
X0042948Y0064913D01*
X0042948Y0064992D01*
X0042988Y0065032D01*
X0042988Y0065110D01*
X0043027Y0065150D01*
X0043066Y0065228D01*
X0043106Y0065268D01*
X0043106Y0065347D01*
X0043145Y0065386D01*
X0043185Y0065465D01*
X0043224Y0065504D01*
X0042397Y0066646D01*
X0043303Y0067512D01*
X0042863Y0067091D02*
X0043913Y0067091D01*
X0044344Y0066793D02*
X0042551Y0066793D01*
X0042506Y0066496D02*
X0050050Y0066496D01*
X0050005Y0066793D02*
X0048245Y0066793D01*
X0048037Y0066793D02*
X0044543Y0066793D01*
X0045296Y0067091D02*
X0047254Y0067091D01*
X0047114Y0067389D02*
X0045475Y0067389D01*
X0045526Y0067687D02*
X0047063Y0067687D01*
X0047012Y0067984D02*
X0045577Y0067984D01*
X0045628Y0068282D02*
X0046961Y0068282D01*
X0048677Y0067091D02*
X0049708Y0067091D01*
X0049410Y0067389D02*
X0049108Y0067389D01*
X0049844Y0066198D02*
X0042721Y0066198D01*
X0042937Y0065900D02*
X0049639Y0065900D01*
X0049434Y0065602D02*
X0043153Y0065602D01*
X0043106Y0065305D02*
X0049465Y0065305D01*
X0049602Y0065007D02*
X0042963Y0065007D01*
X0042862Y0064709D02*
X0045477Y0064709D01*
X0045199Y0064412D02*
X0042181Y0064412D01*
X0041413Y0064114D02*
X0045040Y0064114D01*
X0044958Y0063816D02*
X0041413Y0063816D01*
X0041413Y0063518D02*
X0044956Y0063518D01*
X0045015Y0063221D02*
X0041413Y0063221D01*
X0042001Y0062923D02*
X0045175Y0062923D01*
X0045473Y0062625D02*
X0042852Y0062625D01*
X0042962Y0062328D02*
X0045744Y0062328D01*
X0045634Y0062030D02*
X0043106Y0062030D01*
X0043171Y0061732D02*
X0045523Y0061732D01*
X0045413Y0061434D02*
X0042947Y0061434D01*
X0042724Y0061137D02*
X0045303Y0061137D01*
X0045192Y0060839D02*
X0042501Y0060839D01*
X0042557Y0060541D02*
X0044384Y0060541D01*
X0044525Y0060541D02*
X0045082Y0060541D01*
X0043952Y0060243D02*
X0042855Y0060243D01*
X0043152Y0059946D02*
X0043521Y0059946D01*
X0047137Y0061434D02*
X0049629Y0061434D01*
X0049842Y0061137D02*
X0047247Y0061137D01*
X0047358Y0060839D02*
X0050054Y0060839D01*
X0050000Y0060541D02*
X0048205Y0060541D01*
X0048025Y0060541D02*
X0047468Y0060541D01*
X0048637Y0060243D02*
X0049715Y0060243D01*
X0049431Y0059946D02*
X0049069Y0059946D01*
X0049416Y0061732D02*
X0047027Y0061732D01*
X0046917Y0062030D02*
X0049474Y0062030D01*
X0049602Y0062328D02*
X0046806Y0062328D01*
X0047117Y0062625D02*
X0049720Y0062625D01*
X0050550Y0062923D02*
X0047406Y0062923D01*
X0047535Y0063221D02*
X0051137Y0063221D01*
X0051137Y0063518D02*
X0047615Y0063518D01*
X0047632Y0063816D02*
X0051137Y0063816D01*
X0051137Y0064114D02*
X0047532Y0064114D01*
X0047390Y0064412D02*
X0050390Y0064412D01*
X0049720Y0064709D02*
X0047089Y0064709D01*
D14*
X0045617Y0049796D03*
X0045617Y0049696D03*
X0045617Y0049596D03*
X0045617Y0049496D03*
X0045617Y0049396D03*
X0063287Y0037496D03*
D15*
X0059667Y0037496D03*
D16*
X0056482Y0037496D03*
X0033552Y0037496D03*
X0028682Y0037496D03*
X0027752Y0042496D03*
D17*
X0029647Y0049096D03*
X0029647Y0049196D03*
X0029647Y0049296D03*
X0029647Y0049396D03*
X0029647Y0049496D03*
X0029647Y0049596D03*
X0051787Y0037496D03*
D18*
X0046432Y0037496D03*
D19*
X0037552Y0037496D03*
D20*
X0063287Y0037530D03*
D21*
X0059667Y0037530D03*
X0041067Y0050163D03*
D22*
X0046052Y0042263D03*
X0056482Y0037530D03*
D23*
X0051732Y0037530D03*
X0046432Y0037630D03*
X0033532Y0037630D03*
X0029032Y0039030D03*
X0028702Y0037630D03*
D24*
X0028702Y0037530D03*
X0033532Y0037530D03*
X0041602Y0042230D03*
X0046432Y0037530D03*
D25*
X0041287Y0041830D03*
X0037587Y0040230D03*
X0037547Y0037530D03*
D26*
X0033187Y0041063D03*
X0030517Y0038163D03*
X0030517Y0038130D03*
X0063287Y0037563D03*
D27*
X0059667Y0037563D03*
X0046867Y0047430D03*
X0033167Y0047430D03*
X0031737Y0039163D03*
D28*
X0056482Y0037563D03*
D29*
X0056487Y0037663D03*
X0051717Y0037563D03*
X0043847Y0042763D03*
X0036917Y0047430D03*
X0028647Y0038863D03*
X0028587Y0038830D03*
X0061817Y0038763D03*
D30*
X0061797Y0040263D03*
X0051797Y0040263D03*
X0046437Y0037563D03*
X0043867Y0042930D03*
X0033537Y0037563D03*
X0028697Y0037563D03*
D31*
X0027652Y0042330D03*
X0032352Y0048230D03*
X0032352Y0048263D03*
X0032352Y0048330D03*
X0032352Y0048363D03*
X0032352Y0048430D03*
X0032352Y0048463D03*
X0032352Y0048530D03*
X0041352Y0041930D03*
X0037552Y0037563D03*
D32*
X0037552Y0037896D03*
X0037552Y0037996D03*
X0037552Y0038096D03*
X0037552Y0038196D03*
X0037552Y0038296D03*
X0037552Y0038396D03*
X0037552Y0038496D03*
X0037552Y0038596D03*
X0037552Y0038696D03*
X0037552Y0038796D03*
X0037552Y0038896D03*
X0037552Y0038996D03*
X0037552Y0039096D03*
X0037552Y0039196D03*
X0037552Y0039296D03*
X0037552Y0039396D03*
X0037552Y0039496D03*
X0037552Y0039596D03*
X0037552Y0039696D03*
X0037552Y0039796D03*
X0035352Y0039696D03*
X0035352Y0039596D03*
X0035352Y0039496D03*
X0035352Y0039396D03*
X0035352Y0039296D03*
X0035352Y0039196D03*
X0035352Y0039096D03*
X0035352Y0038996D03*
X0035352Y0038896D03*
X0035352Y0038796D03*
X0035352Y0038696D03*
X0035352Y0038596D03*
X0035352Y0038496D03*
X0035352Y0038396D03*
X0035352Y0038296D03*
X0035352Y0038196D03*
X0035352Y0038096D03*
X0035352Y0037996D03*
X0031752Y0039296D03*
X0031752Y0039396D03*
X0031752Y0039496D03*
X0031752Y0039596D03*
X0031752Y0039696D03*
X0030482Y0039696D03*
X0030482Y0039596D03*
X0030482Y0039496D03*
X0030482Y0039396D03*
X0030482Y0039296D03*
X0030482Y0039196D03*
X0026882Y0039696D03*
X0046882Y0041096D03*
X0049652Y0039696D03*
X0049652Y0039596D03*
X0049652Y0039496D03*
X0049652Y0039396D03*
X0049652Y0039296D03*
X0049652Y0039196D03*
X0049652Y0038496D03*
X0049652Y0038396D03*
X0049652Y0038296D03*
X0049652Y0038196D03*
X0049652Y0038096D03*
X0049652Y0037996D03*
X0053252Y0037996D03*
X0053252Y0037896D03*
X0053252Y0038096D03*
X0053252Y0038196D03*
X0053252Y0038296D03*
X0053252Y0038396D03*
X0053252Y0038496D03*
X0053252Y0038596D03*
X0053252Y0039096D03*
X0053252Y0039196D03*
X0053252Y0039296D03*
X0053252Y0039396D03*
X0053252Y0039496D03*
X0053252Y0039596D03*
X0053252Y0039696D03*
X0053252Y0039796D03*
X0054682Y0039696D03*
X0054682Y0039596D03*
X0054682Y0039496D03*
X0054682Y0039396D03*
X0054682Y0039296D03*
X0054682Y0039196D03*
X0054682Y0039096D03*
X0054682Y0038996D03*
X0054682Y0038896D03*
X0054682Y0038796D03*
X0054682Y0038696D03*
X0054682Y0038596D03*
X0054682Y0038496D03*
X0054682Y0038396D03*
X0054682Y0038296D03*
X0054682Y0038196D03*
X0054682Y0038096D03*
X0054682Y0037996D03*
X0058282Y0037996D03*
X0058282Y0038096D03*
X0058282Y0038196D03*
X0058282Y0038296D03*
X0058282Y0038396D03*
X0058282Y0038496D03*
X0058282Y0038596D03*
X0058282Y0038696D03*
X0058282Y0038796D03*
X0058282Y0038896D03*
X0058282Y0038996D03*
X0058282Y0039096D03*
X0058282Y0039196D03*
X0058282Y0039296D03*
X0058282Y0039396D03*
X0058282Y0039496D03*
X0058282Y0039596D03*
X0058282Y0039696D03*
X0059682Y0039696D03*
X0059682Y0039596D03*
X0059682Y0039496D03*
X0059682Y0039396D03*
X0059682Y0039296D03*
X0059682Y0039196D03*
X0063282Y0039196D03*
X0063282Y0039096D03*
X0063282Y0039296D03*
X0063282Y0039396D03*
X0063282Y0039496D03*
X0063282Y0039596D03*
X0063282Y0039696D03*
X0063282Y0039796D03*
X0063282Y0038596D03*
X0063282Y0038496D03*
X0063282Y0038396D03*
X0063282Y0038296D03*
X0063282Y0038196D03*
X0063282Y0038096D03*
X0063282Y0037996D03*
X0063282Y0037896D03*
X0063282Y0037796D03*
X0063282Y0037696D03*
X0063282Y0037596D03*
X0049082Y0050096D03*
X0046852Y0047396D03*
D33*
X0059687Y0037596D03*
X0026887Y0039596D03*
D34*
X0033552Y0037596D03*
X0036882Y0041896D03*
X0045852Y0042496D03*
X0056482Y0037596D03*
D35*
X0051702Y0037596D03*
X0041402Y0039896D03*
D36*
X0046417Y0037596D03*
D37*
X0037547Y0037596D03*
X0047617Y0048196D03*
X0047617Y0048296D03*
X0047617Y0048396D03*
X0047617Y0048496D03*
D38*
X0028697Y0037596D03*
X0028267Y0038696D03*
D39*
X0026882Y0039630D03*
X0026882Y0039663D03*
X0030482Y0039663D03*
X0030482Y0039630D03*
X0030482Y0039563D03*
X0030482Y0039530D03*
X0030482Y0039463D03*
X0030482Y0039430D03*
X0030482Y0039363D03*
X0030482Y0039330D03*
X0030482Y0039263D03*
X0030482Y0039230D03*
X0030482Y0039730D03*
X0030482Y0039763D03*
X0031752Y0039763D03*
X0031752Y0039730D03*
X0031752Y0039663D03*
X0031752Y0039630D03*
X0031752Y0039563D03*
X0031752Y0039530D03*
X0031752Y0039463D03*
X0031752Y0039430D03*
X0031752Y0039363D03*
X0031752Y0039330D03*
X0031752Y0039263D03*
X0031752Y0039230D03*
X0031752Y0038063D03*
X0031752Y0038030D03*
X0035352Y0038030D03*
X0035352Y0038063D03*
X0035352Y0038130D03*
X0035352Y0038163D03*
X0035352Y0038230D03*
X0035352Y0038263D03*
X0035352Y0038330D03*
X0035352Y0038363D03*
X0035352Y0038430D03*
X0035352Y0038463D03*
X0035352Y0038530D03*
X0035352Y0038563D03*
X0035352Y0038630D03*
X0035352Y0038663D03*
X0035352Y0038730D03*
X0035352Y0038763D03*
X0035352Y0038830D03*
X0035352Y0038863D03*
X0035352Y0038930D03*
X0035352Y0038963D03*
X0035352Y0039030D03*
X0035352Y0039063D03*
X0035352Y0039130D03*
X0035352Y0039163D03*
X0035352Y0039230D03*
X0035352Y0039263D03*
X0035352Y0039330D03*
X0035352Y0039363D03*
X0035352Y0039430D03*
X0035352Y0039463D03*
X0035352Y0039530D03*
X0035352Y0039563D03*
X0035352Y0039630D03*
X0035352Y0039663D03*
X0035352Y0039730D03*
X0035352Y0039763D03*
X0037552Y0039763D03*
X0037552Y0039730D03*
X0037552Y0039663D03*
X0037552Y0039630D03*
X0037552Y0039563D03*
X0037552Y0039530D03*
X0037552Y0039463D03*
X0037552Y0039430D03*
X0037552Y0039363D03*
X0037552Y0039330D03*
X0037552Y0039263D03*
X0037552Y0039230D03*
X0037552Y0039163D03*
X0037552Y0039130D03*
X0037552Y0039063D03*
X0037552Y0039030D03*
X0037552Y0038963D03*
X0037552Y0038930D03*
X0037552Y0038863D03*
X0037552Y0038830D03*
X0037552Y0038763D03*
X0037552Y0038730D03*
X0037552Y0038663D03*
X0037552Y0038630D03*
X0037552Y0038563D03*
X0037552Y0038530D03*
X0037552Y0038463D03*
X0037552Y0038430D03*
X0037552Y0038363D03*
X0037552Y0038330D03*
X0037552Y0038263D03*
X0037552Y0038230D03*
X0037552Y0038163D03*
X0037552Y0038130D03*
X0037552Y0038063D03*
X0037552Y0038030D03*
X0037552Y0037963D03*
X0037552Y0037930D03*
X0037552Y0039830D03*
X0037552Y0039863D03*
X0049652Y0039763D03*
X0049652Y0039730D03*
X0049652Y0039663D03*
X0049652Y0039630D03*
X0049652Y0039563D03*
X0049652Y0039530D03*
X0049652Y0039463D03*
X0049652Y0039430D03*
X0049652Y0039363D03*
X0049652Y0039330D03*
X0049652Y0039263D03*
X0049652Y0039230D03*
X0049652Y0038563D03*
X0049652Y0038530D03*
X0049652Y0038463D03*
X0049652Y0038430D03*
X0049652Y0038363D03*
X0049652Y0038330D03*
X0049652Y0038263D03*
X0049652Y0038230D03*
X0049652Y0038163D03*
X0049652Y0038130D03*
X0049652Y0038063D03*
X0049652Y0038030D03*
X0053252Y0038030D03*
X0053252Y0038063D03*
X0053252Y0038130D03*
X0053252Y0038163D03*
X0053252Y0038230D03*
X0053252Y0038263D03*
X0053252Y0038330D03*
X0053252Y0038363D03*
X0053252Y0038430D03*
X0053252Y0038463D03*
X0053252Y0038530D03*
X0053252Y0038563D03*
X0053252Y0038630D03*
X0053252Y0038663D03*
X0053252Y0039130D03*
X0053252Y0039163D03*
X0053252Y0039230D03*
X0053252Y0039263D03*
X0053252Y0039330D03*
X0053252Y0039363D03*
X0053252Y0039430D03*
X0053252Y0039463D03*
X0053252Y0039530D03*
X0053252Y0039563D03*
X0053252Y0039630D03*
X0053252Y0039663D03*
X0053252Y0039730D03*
X0053252Y0039763D03*
X0053252Y0039830D03*
X0053252Y0039863D03*
X0054682Y0039763D03*
X0054682Y0039730D03*
X0054682Y0039663D03*
X0054682Y0039630D03*
X0054682Y0039563D03*
X0054682Y0039530D03*
X0054682Y0039463D03*
X0054682Y0039430D03*
X0054682Y0039363D03*
X0054682Y0039330D03*
X0054682Y0039263D03*
X0054682Y0039230D03*
X0054682Y0039163D03*
X0054682Y0039130D03*
X0054682Y0039063D03*
X0054682Y0039030D03*
X0054682Y0038963D03*
X0054682Y0038930D03*
X0054682Y0038863D03*
X0054682Y0038830D03*
X0054682Y0038763D03*
X0054682Y0038730D03*
X0054682Y0038663D03*
X0054682Y0038630D03*
X0054682Y0038563D03*
X0054682Y0038530D03*
X0054682Y0038463D03*
X0054682Y0038430D03*
X0054682Y0038363D03*
X0054682Y0038330D03*
X0054682Y0038263D03*
X0054682Y0038230D03*
X0054682Y0038163D03*
X0054682Y0038130D03*
X0054682Y0038063D03*
X0054682Y0038030D03*
X0053252Y0037963D03*
X0053252Y0037930D03*
X0058282Y0038030D03*
X0058282Y0038063D03*
X0058282Y0038130D03*
X0058282Y0038163D03*
X0058282Y0038230D03*
X0058282Y0038263D03*
X0058282Y0038330D03*
X0058282Y0038363D03*
X0058282Y0038430D03*
X0058282Y0038463D03*
X0058282Y0038530D03*
X0058282Y0038563D03*
X0058282Y0038630D03*
X0058282Y0038663D03*
X0058282Y0038730D03*
X0058282Y0038763D03*
X0058282Y0038830D03*
X0058282Y0038863D03*
X0058282Y0038930D03*
X0058282Y0038963D03*
X0058282Y0039030D03*
X0058282Y0039063D03*
X0058282Y0039130D03*
X0058282Y0039163D03*
X0058282Y0039230D03*
X0058282Y0039263D03*
X0058282Y0039330D03*
X0058282Y0039363D03*
X0058282Y0039430D03*
X0058282Y0039463D03*
X0058282Y0039530D03*
X0058282Y0039563D03*
X0058282Y0039630D03*
X0058282Y0039663D03*
X0058282Y0039730D03*
X0058282Y0039763D03*
X0059682Y0039763D03*
X0059682Y0039730D03*
X0059682Y0039663D03*
X0059682Y0039630D03*
X0059682Y0039563D03*
X0059682Y0039530D03*
X0059682Y0039463D03*
X0059682Y0039430D03*
X0059682Y0039363D03*
X0059682Y0039330D03*
X0059682Y0039263D03*
X0059682Y0039230D03*
X0059682Y0037630D03*
X0063282Y0037630D03*
X0063282Y0037663D03*
X0063282Y0037730D03*
X0063282Y0037763D03*
X0063282Y0037830D03*
X0063282Y0037863D03*
X0063282Y0037930D03*
X0063282Y0037963D03*
X0063282Y0038030D03*
X0063282Y0038063D03*
X0063282Y0038130D03*
X0063282Y0038163D03*
X0063282Y0038230D03*
X0063282Y0038263D03*
X0063282Y0038330D03*
X0063282Y0038363D03*
X0063282Y0038430D03*
X0063282Y0038463D03*
X0063282Y0038530D03*
X0063282Y0038563D03*
X0063282Y0038630D03*
X0063282Y0038663D03*
X0063282Y0039130D03*
X0063282Y0039163D03*
X0063282Y0039230D03*
X0063282Y0039263D03*
X0063282Y0039330D03*
X0063282Y0039363D03*
X0063282Y0039430D03*
X0063282Y0039463D03*
X0063282Y0039530D03*
X0063282Y0039563D03*
X0063282Y0039630D03*
X0063282Y0039663D03*
X0063282Y0039730D03*
X0063282Y0039763D03*
X0063282Y0039830D03*
X0063282Y0039863D03*
D40*
X0056487Y0040130D03*
X0056487Y0037630D03*
X0046417Y0040130D03*
X0043847Y0042830D03*
X0036917Y0047463D03*
X0033547Y0040130D03*
X0028687Y0040130D03*
D41*
X0051667Y0040130D03*
X0051667Y0038863D03*
X0051667Y0037630D03*
D42*
X0056482Y0040263D03*
X0037552Y0040130D03*
X0037552Y0040063D03*
X0037552Y0037663D03*
X0037552Y0037630D03*
X0028682Y0040263D03*
X0032552Y0046063D03*
D43*
X0030467Y0039163D03*
X0030497Y0038030D03*
X0026897Y0038030D03*
X0026897Y0038063D03*
X0026897Y0038130D03*
X0026897Y0038163D03*
X0026897Y0038230D03*
X0026897Y0038263D03*
X0026897Y0038330D03*
X0026897Y0038363D03*
X0026897Y0038430D03*
X0026897Y0038463D03*
X0026897Y0038530D03*
X0026897Y0038563D03*
X0026897Y0039730D03*
X0026897Y0039763D03*
X0035337Y0037963D03*
X0044637Y0039763D03*
X0048197Y0037963D03*
X0049667Y0037963D03*
X0049667Y0039163D03*
X0054697Y0037963D03*
X0058267Y0037963D03*
X0059697Y0037663D03*
X0059697Y0039163D03*
D44*
X0051637Y0037663D03*
X0053497Y0047463D03*
X0036867Y0041763D03*
D45*
X0033532Y0037663D03*
X0028702Y0037663D03*
X0028802Y0038930D03*
X0046432Y0037663D03*
D46*
X0041402Y0037663D03*
X0043902Y0043730D03*
D47*
X0035317Y0039796D03*
X0026917Y0039796D03*
X0026917Y0038596D03*
X0052517Y0049096D03*
X0052517Y0049196D03*
X0052517Y0049296D03*
X0052517Y0049396D03*
X0052517Y0049496D03*
X0052517Y0049596D03*
X0052517Y0049696D03*
X0052517Y0049796D03*
X0052517Y0049896D03*
X0059817Y0037796D03*
X0059717Y0037696D03*
D48*
X0061752Y0038796D03*
X0056482Y0037696D03*
X0033552Y0037696D03*
D49*
X0033547Y0037796D03*
X0036887Y0046796D03*
X0051587Y0037696D03*
D50*
X0046437Y0037696D03*
X0028697Y0037696D03*
D51*
X0041402Y0037696D03*
D52*
X0037552Y0037696D03*
X0037552Y0040096D03*
D53*
X0031782Y0037963D03*
X0030482Y0037963D03*
X0044652Y0037963D03*
X0059752Y0037730D03*
X0059782Y0037763D03*
X0060082Y0038030D03*
D54*
X0061682Y0038830D03*
X0056482Y0037730D03*
X0036882Y0041130D03*
X0036882Y0046730D03*
D55*
X0051567Y0040030D03*
X0051567Y0037730D03*
D56*
X0046432Y0037730D03*
X0046432Y0040030D03*
X0041402Y0040263D03*
X0033532Y0040030D03*
X0028702Y0040030D03*
X0028702Y0037730D03*
X0061702Y0040130D03*
D57*
X0043902Y0043663D03*
X0040832Y0041063D03*
X0041402Y0037730D03*
X0031732Y0038163D03*
X0027102Y0041063D03*
D58*
X0037567Y0040030D03*
X0037567Y0037730D03*
X0043867Y0043130D03*
D59*
X0033547Y0037730D03*
X0056487Y0040030D03*
D60*
X0056482Y0037763D03*
X0061652Y0038863D03*
X0036882Y0041163D03*
X0033552Y0037763D03*
X0028682Y0037763D03*
X0036882Y0046763D03*
D61*
X0036867Y0041663D03*
X0036867Y0041230D03*
X0033537Y0039930D03*
X0033567Y0037830D03*
X0028697Y0037830D03*
X0028697Y0039930D03*
X0041397Y0039963D03*
X0046437Y0039930D03*
X0051537Y0038763D03*
X0051537Y0037763D03*
D62*
X0051602Y0038830D03*
X0051602Y0040063D03*
X0046432Y0037763D03*
X0041402Y0039930D03*
X0036902Y0047330D03*
X0061632Y0040063D03*
D63*
X0041402Y0037763D03*
X0031732Y0038130D03*
D64*
X0037567Y0037763D03*
X0043867Y0043163D03*
D65*
X0051552Y0038796D03*
X0056482Y0037796D03*
D66*
X0051517Y0037796D03*
D67*
X0046432Y0037796D03*
X0036902Y0047296D03*
X0028702Y0037796D03*
D68*
X0030517Y0038096D03*
X0040817Y0041096D03*
X0041417Y0039796D03*
X0041417Y0039696D03*
X0041417Y0039596D03*
X0041417Y0039496D03*
X0041417Y0039396D03*
X0041417Y0039296D03*
X0041417Y0039196D03*
X0041417Y0039096D03*
X0041417Y0038996D03*
X0041417Y0038896D03*
X0041417Y0038796D03*
X0041417Y0038696D03*
X0041417Y0038596D03*
X0041417Y0038496D03*
X0041417Y0038396D03*
X0041417Y0038296D03*
X0041417Y0038196D03*
X0041417Y0038096D03*
X0041417Y0037996D03*
X0041417Y0037896D03*
X0041417Y0037796D03*
X0044617Y0037996D03*
X0044617Y0038096D03*
X0044617Y0038196D03*
X0044617Y0038296D03*
X0044617Y0038396D03*
X0044617Y0038496D03*
X0044617Y0038596D03*
X0044617Y0038696D03*
X0044617Y0038796D03*
X0044617Y0038896D03*
X0044617Y0038996D03*
X0044617Y0039096D03*
X0044617Y0039196D03*
X0044617Y0039296D03*
X0044617Y0039396D03*
X0044617Y0039496D03*
X0044617Y0039596D03*
X0044617Y0039696D03*
X0048217Y0039696D03*
X0048217Y0039596D03*
X0048217Y0039496D03*
X0048217Y0039396D03*
X0048217Y0039296D03*
X0048217Y0039196D03*
X0048217Y0039096D03*
X0048217Y0038996D03*
X0048217Y0038896D03*
X0048217Y0038796D03*
X0048217Y0038696D03*
X0048217Y0038596D03*
X0048217Y0038496D03*
X0048217Y0038396D03*
X0048217Y0038296D03*
X0048217Y0038196D03*
X0048217Y0038096D03*
X0048217Y0037996D03*
D69*
X0046352Y0041896D03*
X0043882Y0043196D03*
X0037552Y0037796D03*
D70*
X0026967Y0037930D03*
X0041067Y0050063D03*
X0048167Y0039830D03*
X0048167Y0037930D03*
X0059867Y0037830D03*
X0059967Y0037930D03*
X0060467Y0038363D03*
X0060567Y0038463D03*
X0060667Y0038563D03*
X0060767Y0038630D03*
D71*
X0056482Y0037830D03*
X0056482Y0039930D03*
X0036882Y0041263D03*
X0036882Y0046863D03*
X0036882Y0047263D03*
D72*
X0051487Y0039930D03*
X0051487Y0039063D03*
X0051487Y0037830D03*
X0056487Y0037863D03*
X0061517Y0039063D03*
X0061517Y0039930D03*
X0053447Y0047430D03*
D73*
X0051517Y0039963D03*
X0051517Y0039030D03*
X0051517Y0038730D03*
X0046417Y0037830D03*
D74*
X0044617Y0038030D03*
X0044617Y0038063D03*
X0044617Y0038130D03*
X0044617Y0038163D03*
X0044617Y0038230D03*
X0044617Y0038263D03*
X0044617Y0038330D03*
X0044617Y0038363D03*
X0044617Y0038430D03*
X0044617Y0038463D03*
X0044617Y0038530D03*
X0044617Y0038563D03*
X0044617Y0038630D03*
X0044617Y0038663D03*
X0044617Y0038730D03*
X0044617Y0038763D03*
X0044617Y0038830D03*
X0044617Y0038863D03*
X0044617Y0038930D03*
X0044617Y0038963D03*
X0044617Y0039030D03*
X0044617Y0039063D03*
X0044617Y0039130D03*
X0044617Y0039163D03*
X0044617Y0039230D03*
X0044617Y0039263D03*
X0044617Y0039330D03*
X0044617Y0039363D03*
X0044617Y0039430D03*
X0044617Y0039463D03*
X0044617Y0039530D03*
X0044617Y0039563D03*
X0044617Y0039630D03*
X0044617Y0039663D03*
X0044617Y0039730D03*
X0041417Y0039730D03*
X0041417Y0039763D03*
X0041417Y0039830D03*
X0041417Y0039863D03*
X0041417Y0039663D03*
X0041417Y0039630D03*
X0041417Y0039563D03*
X0041417Y0039530D03*
X0041417Y0039463D03*
X0041417Y0039430D03*
X0041417Y0039363D03*
X0041417Y0039330D03*
X0041417Y0039263D03*
X0041417Y0039230D03*
X0041417Y0039163D03*
X0041417Y0039130D03*
X0041417Y0039063D03*
X0041417Y0039030D03*
X0041417Y0038963D03*
X0041417Y0038930D03*
X0041417Y0038863D03*
X0041417Y0038830D03*
X0041417Y0038763D03*
X0041417Y0038730D03*
X0041417Y0038663D03*
X0041417Y0038630D03*
X0041417Y0038563D03*
X0041417Y0038530D03*
X0041417Y0038463D03*
X0041417Y0038430D03*
X0041417Y0038363D03*
X0041417Y0038330D03*
X0041417Y0038263D03*
X0041417Y0038230D03*
X0041417Y0038163D03*
X0041417Y0038130D03*
X0041417Y0038063D03*
X0041417Y0038030D03*
X0041417Y0037963D03*
X0041417Y0037930D03*
X0041417Y0037863D03*
X0041417Y0037830D03*
X0048217Y0038030D03*
X0048217Y0038063D03*
X0048217Y0038130D03*
X0048217Y0038163D03*
X0048217Y0038230D03*
X0048217Y0038263D03*
X0048217Y0038330D03*
X0048217Y0038363D03*
X0048217Y0038430D03*
X0048217Y0038463D03*
X0048217Y0038530D03*
X0048217Y0038563D03*
X0048217Y0038630D03*
X0048217Y0038663D03*
X0048217Y0038730D03*
X0048217Y0038763D03*
X0048217Y0038830D03*
X0048217Y0038863D03*
X0048217Y0038930D03*
X0048217Y0038963D03*
X0048217Y0039030D03*
X0048217Y0039063D03*
X0048217Y0039130D03*
X0048217Y0039163D03*
X0048217Y0039230D03*
X0048217Y0039263D03*
X0048217Y0039330D03*
X0048217Y0039363D03*
X0048217Y0039430D03*
X0048217Y0039463D03*
X0048217Y0039530D03*
X0048217Y0039563D03*
X0048217Y0039630D03*
X0048217Y0039663D03*
X0048217Y0039730D03*
X0048217Y0039763D03*
X0030517Y0038063D03*
D75*
X0027552Y0042130D03*
X0037552Y0037830D03*
X0050452Y0046530D03*
D76*
X0043902Y0043630D03*
X0044702Y0039830D03*
X0044702Y0037930D03*
X0049702Y0037930D03*
X0049732Y0038630D03*
X0058232Y0037930D03*
X0059902Y0037863D03*
X0060132Y0038063D03*
X0060202Y0038130D03*
X0060232Y0038163D03*
X0060302Y0038230D03*
X0060332Y0038263D03*
X0060432Y0038330D03*
X0060532Y0038430D03*
X0060632Y0038530D03*
X0060802Y0038663D03*
X0059732Y0039130D03*
X0058232Y0039830D03*
X0037632Y0049130D03*
X0037632Y0049163D03*
X0037632Y0049230D03*
X0037632Y0049263D03*
X0037632Y0049330D03*
X0037632Y0049363D03*
X0037632Y0049430D03*
X0037632Y0049463D03*
X0037632Y0049530D03*
X0037632Y0049563D03*
X0037632Y0049630D03*
X0037632Y0049663D03*
X0037632Y0049730D03*
X0037632Y0049763D03*
X0037632Y0049830D03*
X0037632Y0049863D03*
X0037632Y0049930D03*
X0031802Y0039830D03*
X0030432Y0039830D03*
X0030432Y0039130D03*
X0030432Y0037930D03*
X0031802Y0037930D03*
D77*
X0036867Y0041330D03*
X0036867Y0041563D03*
X0036867Y0047163D03*
X0051467Y0037863D03*
D78*
X0046432Y0037863D03*
X0041402Y0040163D03*
X0028702Y0037863D03*
X0061532Y0039030D03*
X0061532Y0039963D03*
D79*
X0050197Y0042063D03*
X0037567Y0037863D03*
X0027437Y0041930D03*
D80*
X0033567Y0037863D03*
X0036867Y0041630D03*
X0036867Y0047230D03*
D81*
X0037632Y0049096D03*
X0037632Y0049196D03*
X0037632Y0049296D03*
X0037632Y0049396D03*
X0037632Y0049496D03*
X0037632Y0049596D03*
X0037632Y0049696D03*
X0037632Y0049796D03*
X0037632Y0049896D03*
X0059932Y0037896D03*
X0060502Y0038396D03*
X0060602Y0038496D03*
X0060732Y0038596D03*
D82*
X0058182Y0037896D03*
X0054782Y0037896D03*
X0049782Y0039096D03*
X0030382Y0039096D03*
D83*
X0049767Y0037896D03*
D84*
X0048132Y0037896D03*
X0044732Y0037896D03*
X0035232Y0037896D03*
X0030402Y0037896D03*
X0027002Y0037896D03*
X0049102Y0049996D03*
D85*
X0049087Y0049896D03*
X0049087Y0049796D03*
X0049087Y0049096D03*
X0041047Y0049096D03*
X0041047Y0049796D03*
X0041047Y0049896D03*
X0041047Y0049996D03*
X0031847Y0037896D03*
D86*
X0035287Y0037930D03*
X0035287Y0039830D03*
X0040817Y0041130D03*
X0046887Y0041130D03*
X0049717Y0039830D03*
X0054747Y0039830D03*
X0054747Y0037930D03*
X0059747Y0039830D03*
X0049087Y0049830D03*
X0049087Y0049863D03*
X0049087Y0049930D03*
X0049087Y0050030D03*
X0049087Y0050063D03*
X0041047Y0049963D03*
X0041047Y0049930D03*
X0041047Y0049863D03*
X0041047Y0049830D03*
X0026947Y0039830D03*
X0026987Y0038630D03*
D87*
X0026917Y0037963D03*
X0049717Y0039130D03*
X0060017Y0037963D03*
X0052517Y0049130D03*
X0052517Y0049163D03*
X0052517Y0049230D03*
X0052517Y0049263D03*
X0052517Y0049330D03*
X0052517Y0049363D03*
X0052517Y0049430D03*
X0052517Y0049463D03*
X0052517Y0049530D03*
X0052517Y0049563D03*
X0052517Y0049630D03*
X0052517Y0049663D03*
X0052517Y0049730D03*
X0052517Y0049763D03*
X0052517Y0049830D03*
X0052517Y0049863D03*
X0052517Y0049930D03*
D88*
X0049682Y0039796D03*
X0049682Y0038596D03*
X0044652Y0039796D03*
X0060052Y0037996D03*
X0027082Y0041096D03*
D89*
X0026897Y0038496D03*
X0026897Y0038396D03*
X0026897Y0038296D03*
X0026897Y0038196D03*
X0026897Y0038096D03*
X0026897Y0037996D03*
X0030497Y0037996D03*
X0031767Y0037996D03*
X0031767Y0039796D03*
X0030467Y0039796D03*
X0033167Y0047396D03*
X0027097Y0047396D03*
X0040837Y0047396D03*
X0041067Y0050096D03*
X0048197Y0039796D03*
X0054697Y0039796D03*
X0058267Y0039796D03*
X0059697Y0039796D03*
D90*
X0060367Y0038296D03*
X0060267Y0038196D03*
X0060167Y0038096D03*
X0033167Y0041096D03*
D91*
X0031732Y0039196D03*
X0031732Y0038096D03*
D92*
X0031767Y0038196D03*
D93*
X0030517Y0038196D03*
D94*
X0031752Y0038230D03*
X0040852Y0041030D03*
X0046152Y0049463D03*
X0046152Y0049530D03*
X0046152Y0049563D03*
X0049082Y0050163D03*
D95*
X0046832Y0041030D03*
X0031732Y0039130D03*
X0030502Y0038230D03*
D96*
X0031752Y0038263D03*
D97*
X0030497Y0038263D03*
X0033167Y0047463D03*
D98*
X0027082Y0047363D03*
X0030382Y0039863D03*
X0031852Y0039863D03*
X0044752Y0039863D03*
X0049782Y0039863D03*
X0049782Y0038663D03*
X0058182Y0039863D03*
D99*
X0059817Y0039863D03*
X0054817Y0039863D03*
X0048117Y0039863D03*
X0040817Y0047363D03*
X0044617Y0049363D03*
X0044617Y0049430D03*
X0044617Y0049463D03*
X0044617Y0049530D03*
X0044617Y0049563D03*
X0044617Y0049630D03*
X0044617Y0049663D03*
X0044617Y0049730D03*
X0044617Y0049763D03*
X0027017Y0039863D03*
X0027017Y0038663D03*
D100*
X0041802Y0042496D03*
X0062002Y0038696D03*
D101*
X0056487Y0039896D03*
X0051487Y0038696D03*
X0036887Y0046896D03*
D102*
X0036882Y0041030D03*
X0061882Y0038730D03*
D103*
X0028367Y0038730D03*
D104*
X0028452Y0038763D03*
X0036882Y0041863D03*
D105*
X0033532Y0040096D03*
X0028702Y0040096D03*
X0028532Y0038796D03*
X0046432Y0040096D03*
X0051732Y0040196D03*
D106*
X0061632Y0038896D03*
X0033532Y0039996D03*
X0028702Y0039996D03*
D107*
X0051637Y0040096D03*
X0051637Y0038896D03*
X0061667Y0040096D03*
D108*
X0028732Y0038896D03*
D109*
X0028702Y0039963D03*
X0033532Y0039963D03*
X0041402Y0040230D03*
X0046432Y0039963D03*
X0061602Y0040030D03*
X0061602Y0038930D03*
D110*
X0056487Y0039963D03*
X0053487Y0041030D03*
X0051587Y0038930D03*
D111*
X0051552Y0038963D03*
X0061582Y0038963D03*
X0036882Y0046830D03*
D112*
X0036867Y0046630D03*
X0028867Y0038963D03*
D113*
X0061552Y0038996D03*
D114*
X0061567Y0039996D03*
X0051537Y0039996D03*
X0051537Y0038996D03*
X0041397Y0040196D03*
D115*
X0028952Y0038996D03*
X0056482Y0040096D03*
D116*
X0043867Y0042863D03*
X0041837Y0042530D03*
X0029137Y0039063D03*
D117*
X0044617Y0049396D03*
X0044617Y0049496D03*
X0044617Y0049596D03*
X0044617Y0049696D03*
X0044617Y0049796D03*
X0059817Y0039096D03*
D118*
X0049132Y0049296D03*
X0049132Y0049396D03*
X0049132Y0049496D03*
X0046002Y0049396D03*
X0046002Y0049696D03*
X0046002Y0049796D03*
X0031732Y0039096D03*
D119*
X0026902Y0039496D03*
D120*
X0026902Y0039530D03*
D121*
X0026882Y0039563D03*
X0027082Y0047430D03*
X0040852Y0047430D03*
X0046852Y0041063D03*
X0049082Y0050130D03*
D122*
X0049102Y0049963D03*
X0035232Y0039863D03*
X0027102Y0041130D03*
D123*
X0041402Y0040096D03*
X0061502Y0039896D03*
D124*
X0051467Y0039896D03*
X0036867Y0047196D03*
D125*
X0033532Y0039896D03*
X0028702Y0039896D03*
X0041402Y0039996D03*
X0046432Y0039896D03*
D126*
X0037567Y0039896D03*
D127*
X0037567Y0039930D03*
X0043867Y0043230D03*
X0027567Y0042163D03*
D128*
X0032652Y0046230D03*
X0037552Y0039963D03*
D129*
X0056482Y0039996D03*
D130*
X0046417Y0039996D03*
D131*
X0037567Y0039996D03*
D132*
X0041402Y0040030D03*
X0041402Y0040063D03*
X0041402Y0040130D03*
D133*
X0036882Y0041063D03*
X0036882Y0041830D03*
X0036882Y0046663D03*
X0056482Y0040063D03*
D134*
X0061737Y0040163D03*
X0046437Y0040063D03*
X0043867Y0042730D03*
X0033537Y0040063D03*
X0028697Y0040063D03*
D135*
X0028687Y0040163D03*
X0033547Y0040163D03*
X0041787Y0042463D03*
X0045887Y0042463D03*
X0046417Y0040163D03*
X0056487Y0040163D03*
X0029647Y0049130D03*
X0029647Y0049163D03*
X0029647Y0049230D03*
X0029647Y0049263D03*
X0029647Y0049330D03*
X0029647Y0049363D03*
X0029647Y0049430D03*
X0029647Y0049463D03*
X0029647Y0049530D03*
X0029647Y0049563D03*
D136*
X0051717Y0040163D03*
D137*
X0046287Y0041963D03*
X0041387Y0041963D03*
X0037547Y0040163D03*
X0032587Y0046130D03*
X0027687Y0042363D03*
X0047617Y0048230D03*
X0047617Y0048263D03*
X0047617Y0048330D03*
X0047617Y0048363D03*
X0047617Y0048430D03*
X0047617Y0048463D03*
X0047617Y0048530D03*
D138*
X0061767Y0040196D03*
D139*
X0056487Y0040196D03*
X0046417Y0040196D03*
X0033547Y0040196D03*
X0028687Y0040196D03*
D140*
X0027637Y0042296D03*
X0037567Y0040196D03*
X0041337Y0041896D03*
D141*
X0061802Y0040230D03*
D142*
X0056482Y0040230D03*
X0041552Y0042163D03*
D143*
X0051767Y0040230D03*
D144*
X0046432Y0040230D03*
X0033532Y0040230D03*
X0032402Y0045763D03*
D145*
X0032387Y0045730D03*
X0027887Y0042763D03*
X0028687Y0040230D03*
X0039387Y0048230D03*
X0039387Y0048263D03*
X0039387Y0048330D03*
X0039387Y0048363D03*
X0039387Y0048430D03*
X0039387Y0048463D03*
X0039387Y0048530D03*
X0050747Y0048530D03*
X0050747Y0048463D03*
X0050747Y0048430D03*
X0050747Y0048363D03*
X0050747Y0048330D03*
X0050747Y0048263D03*
X0050747Y0048230D03*
D146*
X0046432Y0040263D03*
X0033532Y0040263D03*
D147*
X0037587Y0040263D03*
X0046487Y0041730D03*
X0050287Y0046463D03*
D148*
X0060032Y0041030D03*
D149*
X0043782Y0049463D03*
X0043782Y0049530D03*
X0043782Y0049563D03*
X0033182Y0041030D03*
X0027082Y0041030D03*
D150*
X0060032Y0041063D03*
D151*
X0053437Y0041063D03*
X0036867Y0041430D03*
X0036867Y0041463D03*
X0036867Y0047030D03*
D152*
X0060302Y0046596D03*
X0060302Y0041896D03*
X0060032Y0041096D03*
D153*
X0053397Y0041096D03*
D154*
X0036867Y0041096D03*
D155*
X0060017Y0041130D03*
X0060017Y0047363D03*
D156*
X0053352Y0041130D03*
D157*
X0046897Y0041163D03*
X0033167Y0041130D03*
D158*
X0060017Y0041163D03*
X0060187Y0041830D03*
D159*
X0053332Y0041163D03*
D160*
X0040817Y0041163D03*
D161*
X0033147Y0041163D03*
D162*
X0027102Y0041163D03*
X0027102Y0047330D03*
X0040832Y0047330D03*
D163*
X0060017Y0041196D03*
D164*
X0053302Y0041196D03*
X0053332Y0047296D03*
D165*
X0046902Y0041196D03*
X0033902Y0049096D03*
X0033902Y0049196D03*
X0033902Y0049296D03*
X0033902Y0049396D03*
X0033902Y0049496D03*
X0033902Y0049596D03*
X0033902Y0049696D03*
X0033902Y0049796D03*
X0033902Y0049896D03*
X0033902Y0049996D03*
X0033902Y0050096D03*
X0033902Y0050196D03*
X0033902Y0050296D03*
X0027102Y0047296D03*
X0027102Y0041196D03*
D166*
X0040817Y0041196D03*
X0040817Y0047296D03*
D167*
X0036867Y0041696D03*
X0036867Y0041196D03*
D168*
X0033152Y0041196D03*
D169*
X0060032Y0041230D03*
X0060102Y0041730D03*
X0060102Y0046763D03*
D170*
X0053297Y0047263D03*
X0053267Y0041230D03*
D171*
X0046882Y0041230D03*
X0043882Y0043530D03*
X0033152Y0041230D03*
D172*
X0040817Y0041230D03*
X0040817Y0047263D03*
D173*
X0046867Y0047263D03*
X0033167Y0047263D03*
X0027097Y0047263D03*
X0027097Y0041230D03*
D174*
X0060047Y0041263D03*
X0060047Y0047230D03*
D175*
X0053252Y0041263D03*
D176*
X0046887Y0041263D03*
X0040817Y0047230D03*
X0033147Y0041263D03*
D177*
X0040832Y0041263D03*
X0027102Y0047163D03*
D178*
X0027102Y0047230D03*
X0027102Y0041263D03*
D179*
X0060032Y0041296D03*
D180*
X0053217Y0041296D03*
D181*
X0055282Y0041996D03*
X0055282Y0042096D03*
X0055282Y0042196D03*
X0055282Y0042296D03*
X0055282Y0042396D03*
X0055282Y0042496D03*
X0055282Y0042596D03*
X0055282Y0042696D03*
X0055282Y0042796D03*
X0055282Y0042896D03*
X0055282Y0042996D03*
X0055282Y0043096D03*
X0055282Y0043196D03*
X0055282Y0043296D03*
X0055282Y0043396D03*
X0055282Y0043496D03*
X0055282Y0043596D03*
X0055282Y0043696D03*
X0055282Y0043796D03*
X0055282Y0043896D03*
X0055282Y0043996D03*
X0055282Y0044096D03*
X0055282Y0044196D03*
X0055282Y0044296D03*
X0055282Y0044396D03*
X0055282Y0044496D03*
X0055282Y0044596D03*
X0055282Y0044696D03*
X0055282Y0044796D03*
X0055282Y0044896D03*
X0055282Y0044996D03*
X0055282Y0045096D03*
X0055282Y0045196D03*
X0055282Y0045296D03*
X0055282Y0045396D03*
X0055282Y0045496D03*
X0055282Y0045596D03*
X0055282Y0045696D03*
X0055282Y0045796D03*
X0055282Y0045896D03*
X0055282Y0045996D03*
X0055282Y0046096D03*
X0055282Y0046196D03*
X0055282Y0046296D03*
X0055282Y0046396D03*
X0055282Y0046496D03*
X0049252Y0045496D03*
X0049252Y0045396D03*
X0049252Y0045296D03*
X0049252Y0045196D03*
X0049252Y0045096D03*
X0049252Y0044996D03*
X0049252Y0044896D03*
X0049252Y0044796D03*
X0049252Y0044696D03*
X0049252Y0044596D03*
X0049252Y0044496D03*
X0049252Y0044396D03*
X0049252Y0044296D03*
X0049252Y0044196D03*
X0049252Y0044096D03*
X0049252Y0043996D03*
X0049252Y0043896D03*
X0049252Y0043796D03*
X0049252Y0043696D03*
X0049252Y0043596D03*
X0049252Y0043496D03*
X0049252Y0043396D03*
X0049252Y0043296D03*
X0049252Y0043196D03*
X0049252Y0043096D03*
X0049252Y0042996D03*
X0049282Y0042896D03*
X0049352Y0042796D03*
X0046852Y0042796D03*
X0046852Y0042696D03*
X0046852Y0042596D03*
X0046852Y0042896D03*
X0046852Y0042996D03*
X0046852Y0043096D03*
X0046852Y0043196D03*
X0046852Y0043296D03*
X0046852Y0043396D03*
X0046852Y0043496D03*
X0046852Y0043596D03*
X0046852Y0043696D03*
X0046852Y0043796D03*
X0046852Y0043896D03*
X0046852Y0043996D03*
X0046852Y0044096D03*
X0046852Y0044196D03*
X0046852Y0044296D03*
X0046852Y0044396D03*
X0046852Y0044496D03*
X0046852Y0044596D03*
X0046852Y0044696D03*
X0046852Y0044796D03*
X0046852Y0044896D03*
X0046852Y0044996D03*
X0046852Y0045096D03*
X0046852Y0045196D03*
X0046852Y0045296D03*
X0046852Y0045396D03*
X0046852Y0045496D03*
X0046852Y0045596D03*
X0046852Y0045696D03*
X0046852Y0045796D03*
X0046852Y0045896D03*
X0043882Y0043496D03*
X0046852Y0041296D03*
X0036882Y0041996D03*
X0036882Y0042096D03*
X0036882Y0042196D03*
X0036882Y0042296D03*
X0036882Y0042396D03*
X0036882Y0042496D03*
X0036882Y0042596D03*
X0036882Y0042696D03*
X0036882Y0042796D03*
X0036882Y0042896D03*
X0036882Y0042996D03*
X0036882Y0043096D03*
X0036882Y0043196D03*
X0036882Y0043296D03*
X0036882Y0043396D03*
X0036882Y0043496D03*
X0036882Y0043596D03*
X0036882Y0043696D03*
X0036882Y0043796D03*
X0036882Y0043896D03*
X0036882Y0043996D03*
X0036882Y0044096D03*
X0036882Y0044196D03*
X0036882Y0044296D03*
X0036882Y0044396D03*
X0036882Y0044496D03*
X0036882Y0044596D03*
X0036882Y0044696D03*
X0036882Y0044796D03*
X0036882Y0044896D03*
X0036882Y0044996D03*
X0036882Y0045096D03*
X0036882Y0045196D03*
X0036882Y0045296D03*
X0036882Y0045396D03*
X0036882Y0045496D03*
X0036882Y0045596D03*
X0036882Y0045696D03*
X0036882Y0045796D03*
X0036882Y0045896D03*
X0036882Y0045996D03*
X0036882Y0046096D03*
X0036882Y0046196D03*
X0036882Y0046296D03*
X0036882Y0046396D03*
X0036882Y0046496D03*
X0033152Y0043896D03*
X0033152Y0043796D03*
X0033152Y0043696D03*
X0033152Y0043596D03*
X0033152Y0043496D03*
X0033152Y0043396D03*
X0033152Y0043296D03*
X0033152Y0043196D03*
X0033152Y0043096D03*
X0033152Y0042996D03*
X0033152Y0042896D03*
X0033152Y0042796D03*
X0033152Y0042696D03*
X0033152Y0042596D03*
X0033152Y0042496D03*
X0033152Y0042396D03*
X0033152Y0042296D03*
X0033152Y0042196D03*
X0033152Y0042096D03*
X0033152Y0041996D03*
X0033152Y0041896D03*
X0033152Y0041796D03*
X0033152Y0041696D03*
X0033152Y0041596D03*
X0033152Y0041496D03*
X0033152Y0041396D03*
X0063052Y0041996D03*
X0063052Y0042096D03*
X0063052Y0042196D03*
X0063052Y0042296D03*
X0063052Y0042396D03*
X0063052Y0042496D03*
X0063052Y0042596D03*
X0063052Y0042696D03*
X0063052Y0042796D03*
X0063052Y0042896D03*
X0063052Y0042996D03*
X0063052Y0043096D03*
X0063052Y0043196D03*
X0063052Y0043296D03*
X0063052Y0043396D03*
X0063052Y0043496D03*
X0063052Y0043596D03*
X0063052Y0043696D03*
X0063052Y0044696D03*
X0063052Y0044796D03*
X0063052Y0044896D03*
X0063052Y0044996D03*
X0063052Y0045096D03*
X0063052Y0045196D03*
X0063052Y0045296D03*
X0063052Y0045396D03*
X0063052Y0045496D03*
X0063052Y0045596D03*
X0063052Y0045696D03*
X0063052Y0045796D03*
X0063052Y0045896D03*
X0063052Y0045996D03*
X0063052Y0046096D03*
X0063052Y0046196D03*
X0063052Y0046296D03*
X0063052Y0046396D03*
X0063052Y0046496D03*
D182*
X0049367Y0045696D03*
X0040837Y0045296D03*
X0040837Y0045196D03*
X0040837Y0045096D03*
X0040837Y0044996D03*
X0040837Y0044896D03*
X0040837Y0044796D03*
X0040837Y0044696D03*
X0040837Y0044596D03*
X0040837Y0044496D03*
X0040837Y0044396D03*
X0040837Y0044296D03*
X0040837Y0044196D03*
X0040837Y0044096D03*
X0040837Y0043996D03*
X0040837Y0043896D03*
X0040837Y0043796D03*
X0040837Y0043696D03*
X0040837Y0043596D03*
X0040837Y0043496D03*
X0040837Y0043396D03*
X0040837Y0043296D03*
X0040837Y0043196D03*
X0040837Y0043096D03*
X0040837Y0042996D03*
X0040837Y0042896D03*
X0040837Y0042796D03*
X0040837Y0042696D03*
X0040837Y0042596D03*
X0040867Y0041296D03*
X0033137Y0043996D03*
X0033137Y0044096D03*
X0033137Y0044196D03*
X0033137Y0044296D03*
X0033137Y0044396D03*
X0033137Y0044496D03*
X0033137Y0044596D03*
X0033137Y0044696D03*
X0033137Y0044796D03*
X0033137Y0044896D03*
X0033137Y0044996D03*
X0033137Y0045096D03*
X0033137Y0045196D03*
X0033137Y0045296D03*
X0033137Y0045396D03*
X0033137Y0045496D03*
X0027137Y0043396D03*
X0027137Y0043296D03*
X0027137Y0043196D03*
X0027137Y0043096D03*
X0027137Y0042996D03*
D183*
X0036867Y0041596D03*
X0036867Y0041296D03*
D184*
X0033147Y0041296D03*
X0033147Y0047196D03*
X0040817Y0047196D03*
X0027117Y0041296D03*
D185*
X0060052Y0041330D03*
X0060052Y0041563D03*
X0060052Y0046930D03*
X0060052Y0046963D03*
X0060052Y0047030D03*
X0060052Y0047063D03*
X0060052Y0047130D03*
X0060052Y0047163D03*
D186*
X0053202Y0047163D03*
X0053202Y0041330D03*
D187*
X0046817Y0041330D03*
X0033117Y0047130D03*
D188*
X0033087Y0047063D03*
X0027187Y0041430D03*
X0040887Y0041330D03*
X0043887Y0043463D03*
X0046787Y0041363D03*
X0049517Y0042563D03*
X0049487Y0045863D03*
D189*
X0049352Y0045663D03*
X0049282Y0045563D03*
X0049282Y0045530D03*
X0049252Y0045463D03*
X0049252Y0045430D03*
X0049252Y0045363D03*
X0049252Y0045330D03*
X0049252Y0045263D03*
X0049252Y0045230D03*
X0049252Y0045163D03*
X0049252Y0045130D03*
X0049252Y0045063D03*
X0049252Y0045030D03*
X0049252Y0044963D03*
X0049252Y0044930D03*
X0049252Y0044863D03*
X0049252Y0044830D03*
X0049252Y0044763D03*
X0049252Y0044730D03*
X0049252Y0044663D03*
X0049252Y0044630D03*
X0049252Y0044563D03*
X0049252Y0044530D03*
X0049252Y0044463D03*
X0049252Y0044430D03*
X0049252Y0044363D03*
X0049252Y0044330D03*
X0049252Y0044263D03*
X0049252Y0044230D03*
X0049252Y0044163D03*
X0049252Y0044130D03*
X0049252Y0044063D03*
X0049252Y0044030D03*
X0049252Y0043963D03*
X0049252Y0043930D03*
X0049252Y0043863D03*
X0049252Y0043830D03*
X0049252Y0043763D03*
X0049252Y0043730D03*
X0049252Y0043663D03*
X0049252Y0043630D03*
X0049252Y0043563D03*
X0049252Y0043530D03*
X0049252Y0043463D03*
X0049252Y0043430D03*
X0049252Y0043363D03*
X0049252Y0043330D03*
X0049252Y0043263D03*
X0049252Y0043230D03*
X0049252Y0043163D03*
X0049252Y0043130D03*
X0049252Y0043063D03*
X0049252Y0043030D03*
X0046852Y0043030D03*
X0046852Y0043063D03*
X0046852Y0043130D03*
X0046852Y0043163D03*
X0046852Y0043230D03*
X0046852Y0043263D03*
X0046852Y0043330D03*
X0046852Y0043363D03*
X0046852Y0043430D03*
X0046852Y0043463D03*
X0046852Y0043530D03*
X0046852Y0043563D03*
X0046852Y0043630D03*
X0046852Y0043663D03*
X0046852Y0043730D03*
X0046852Y0043763D03*
X0046852Y0043830D03*
X0046852Y0043863D03*
X0046852Y0043930D03*
X0046852Y0043963D03*
X0046852Y0044030D03*
X0046852Y0044063D03*
X0046852Y0044130D03*
X0046852Y0044163D03*
X0046852Y0044230D03*
X0046852Y0044263D03*
X0046852Y0044330D03*
X0046852Y0044363D03*
X0046852Y0044430D03*
X0046852Y0044463D03*
X0046852Y0044530D03*
X0046852Y0044563D03*
X0046852Y0044630D03*
X0046852Y0044663D03*
X0046852Y0044730D03*
X0046852Y0044763D03*
X0046852Y0044830D03*
X0046852Y0044863D03*
X0046852Y0044930D03*
X0046852Y0044963D03*
X0046852Y0045030D03*
X0046852Y0045063D03*
X0046852Y0045130D03*
X0046852Y0045163D03*
X0046852Y0045230D03*
X0046852Y0045263D03*
X0046852Y0045330D03*
X0046852Y0045363D03*
X0046852Y0045430D03*
X0046852Y0045463D03*
X0046852Y0045530D03*
X0046852Y0045563D03*
X0046852Y0045630D03*
X0046852Y0045663D03*
X0046852Y0045730D03*
X0046852Y0045763D03*
X0046852Y0045830D03*
X0046852Y0045863D03*
X0046852Y0045930D03*
X0046852Y0045963D03*
X0046852Y0047130D03*
X0046852Y0042963D03*
X0046852Y0042930D03*
X0046852Y0042863D03*
X0046852Y0042830D03*
X0046852Y0042763D03*
X0046852Y0042730D03*
X0046852Y0042663D03*
X0046852Y0042630D03*
X0046852Y0042563D03*
X0055282Y0042563D03*
X0055282Y0042530D03*
X0055282Y0042463D03*
X0055282Y0042430D03*
X0055282Y0042363D03*
X0055282Y0042330D03*
X0055282Y0042263D03*
X0055282Y0042230D03*
X0055282Y0042163D03*
X0055282Y0042130D03*
X0055282Y0042063D03*
X0055282Y0042030D03*
X0055282Y0041963D03*
X0055282Y0041930D03*
X0055282Y0042630D03*
X0055282Y0042663D03*
X0055282Y0042730D03*
X0055282Y0042763D03*
X0055282Y0042830D03*
X0055282Y0042863D03*
X0055282Y0042930D03*
X0055282Y0042963D03*
X0055282Y0043030D03*
X0055282Y0043063D03*
X0055282Y0043130D03*
X0055282Y0043163D03*
X0055282Y0043230D03*
X0055282Y0043263D03*
X0055282Y0043330D03*
X0055282Y0043363D03*
X0055282Y0043430D03*
X0055282Y0043463D03*
X0055282Y0043530D03*
X0055282Y0043563D03*
X0055282Y0043630D03*
X0055282Y0043663D03*
X0055282Y0043730D03*
X0055282Y0043763D03*
X0055282Y0043830D03*
X0055282Y0043863D03*
X0055282Y0043930D03*
X0055282Y0043963D03*
X0055282Y0044030D03*
X0055282Y0044063D03*
X0055282Y0044130D03*
X0055282Y0044163D03*
X0055282Y0044230D03*
X0055282Y0044263D03*
X0055282Y0044330D03*
X0055282Y0044363D03*
X0055282Y0044430D03*
X0055282Y0044463D03*
X0055282Y0044530D03*
X0055282Y0044563D03*
X0055282Y0044630D03*
X0055282Y0044663D03*
X0055282Y0044730D03*
X0055282Y0044763D03*
X0055282Y0044830D03*
X0055282Y0044863D03*
X0055282Y0044930D03*
X0055282Y0044963D03*
X0055282Y0045030D03*
X0055282Y0045063D03*
X0055282Y0045130D03*
X0055282Y0045163D03*
X0055282Y0045230D03*
X0055282Y0045263D03*
X0055282Y0045330D03*
X0055282Y0045363D03*
X0055282Y0045430D03*
X0055282Y0045463D03*
X0055282Y0045530D03*
X0055282Y0045563D03*
X0055282Y0045630D03*
X0055282Y0045663D03*
X0055282Y0045730D03*
X0055282Y0045763D03*
X0055282Y0045830D03*
X0055282Y0045863D03*
X0055282Y0045930D03*
X0055282Y0045963D03*
X0055282Y0046030D03*
X0055282Y0046063D03*
X0055282Y0046130D03*
X0055282Y0046163D03*
X0055282Y0046230D03*
X0055282Y0046263D03*
X0055282Y0046330D03*
X0055282Y0046363D03*
X0055282Y0046430D03*
X0055282Y0046463D03*
X0055282Y0046530D03*
X0055282Y0046563D03*
X0063052Y0046563D03*
X0063052Y0046530D03*
X0063052Y0046463D03*
X0063052Y0046430D03*
X0063052Y0046363D03*
X0063052Y0046330D03*
X0063052Y0046263D03*
X0063052Y0046230D03*
X0063052Y0046163D03*
X0063052Y0046130D03*
X0063052Y0046063D03*
X0063052Y0046030D03*
X0063052Y0045963D03*
X0063052Y0045930D03*
X0063052Y0045863D03*
X0063052Y0045830D03*
X0063052Y0045763D03*
X0063052Y0045730D03*
X0063052Y0045663D03*
X0063052Y0045630D03*
X0063052Y0045563D03*
X0063052Y0045530D03*
X0063052Y0045463D03*
X0063052Y0045430D03*
X0063052Y0045363D03*
X0063052Y0045330D03*
X0063052Y0045263D03*
X0063052Y0045230D03*
X0063052Y0045163D03*
X0063052Y0045130D03*
X0063052Y0045063D03*
X0063052Y0045030D03*
X0063052Y0044963D03*
X0063052Y0044930D03*
X0063052Y0044863D03*
X0063052Y0044830D03*
X0063052Y0044763D03*
X0063052Y0044730D03*
X0063052Y0043763D03*
X0063052Y0043730D03*
X0063052Y0043663D03*
X0063052Y0043630D03*
X0063052Y0043563D03*
X0063052Y0043530D03*
X0063052Y0043463D03*
X0063052Y0043430D03*
X0063052Y0043363D03*
X0063052Y0043330D03*
X0063052Y0043263D03*
X0063052Y0043230D03*
X0063052Y0043163D03*
X0063052Y0043130D03*
X0063052Y0043063D03*
X0063052Y0043030D03*
X0063052Y0042963D03*
X0063052Y0042930D03*
X0063052Y0042863D03*
X0063052Y0042830D03*
X0063052Y0042763D03*
X0063052Y0042730D03*
X0063052Y0042663D03*
X0063052Y0042630D03*
X0063052Y0042563D03*
X0063052Y0042530D03*
X0063052Y0042463D03*
X0063052Y0042430D03*
X0063052Y0042363D03*
X0063052Y0042330D03*
X0063052Y0042263D03*
X0063052Y0042230D03*
X0063052Y0042163D03*
X0063052Y0042130D03*
X0063052Y0042063D03*
X0063052Y0042030D03*
X0063052Y0041963D03*
X0063052Y0041930D03*
X0036882Y0041930D03*
X0036882Y0041963D03*
X0036882Y0042030D03*
X0036882Y0042063D03*
X0036882Y0042130D03*
X0036882Y0042163D03*
X0036882Y0042230D03*
X0036882Y0042263D03*
X0036882Y0042330D03*
X0036882Y0042363D03*
X0036882Y0042430D03*
X0036882Y0042463D03*
X0036882Y0042530D03*
X0036882Y0042563D03*
X0036882Y0042630D03*
X0036882Y0042663D03*
X0036882Y0042730D03*
X0036882Y0042763D03*
X0036882Y0042830D03*
X0036882Y0042863D03*
X0036882Y0042930D03*
X0036882Y0042963D03*
X0036882Y0043030D03*
X0036882Y0043063D03*
X0036882Y0043130D03*
X0036882Y0043163D03*
X0036882Y0043230D03*
X0036882Y0043263D03*
X0036882Y0043330D03*
X0036882Y0043363D03*
X0036882Y0043430D03*
X0036882Y0043463D03*
X0036882Y0043530D03*
X0036882Y0043563D03*
X0036882Y0043630D03*
X0036882Y0043663D03*
X0036882Y0043730D03*
X0036882Y0043763D03*
X0036882Y0043830D03*
X0036882Y0043863D03*
X0036882Y0043930D03*
X0036882Y0043963D03*
X0036882Y0044030D03*
X0036882Y0044063D03*
X0036882Y0044130D03*
X0036882Y0044163D03*
X0036882Y0044230D03*
X0036882Y0044263D03*
X0036882Y0044330D03*
X0036882Y0044363D03*
X0036882Y0044430D03*
X0036882Y0044463D03*
X0036882Y0044530D03*
X0036882Y0044563D03*
X0036882Y0044630D03*
X0036882Y0044663D03*
X0036882Y0044730D03*
X0036882Y0044763D03*
X0036882Y0044830D03*
X0036882Y0044863D03*
X0036882Y0044930D03*
X0036882Y0044963D03*
X0036882Y0045030D03*
X0036882Y0045063D03*
X0036882Y0045130D03*
X0036882Y0045163D03*
X0036882Y0045230D03*
X0036882Y0045263D03*
X0036882Y0045330D03*
X0036882Y0045363D03*
X0036882Y0045430D03*
X0036882Y0045463D03*
X0036882Y0045530D03*
X0036882Y0045563D03*
X0036882Y0045630D03*
X0036882Y0045663D03*
X0036882Y0045730D03*
X0036882Y0045763D03*
X0036882Y0045830D03*
X0036882Y0045863D03*
X0036882Y0045930D03*
X0036882Y0045963D03*
X0036882Y0046030D03*
X0036882Y0046063D03*
X0036882Y0046130D03*
X0036882Y0046163D03*
X0036882Y0046230D03*
X0036882Y0046263D03*
X0036882Y0046330D03*
X0036882Y0046363D03*
X0036882Y0046430D03*
X0036882Y0046463D03*
X0036882Y0046530D03*
X0036882Y0046563D03*
X0033152Y0047163D03*
X0033152Y0043930D03*
X0033152Y0043863D03*
X0033152Y0043830D03*
X0033152Y0043763D03*
X0033152Y0043730D03*
X0033152Y0043663D03*
X0033152Y0043630D03*
X0033152Y0043563D03*
X0033152Y0043530D03*
X0033152Y0043463D03*
X0033152Y0043430D03*
X0033152Y0043363D03*
X0033152Y0043330D03*
X0033152Y0043263D03*
X0033152Y0043230D03*
X0033152Y0043163D03*
X0033152Y0043130D03*
X0033152Y0043063D03*
X0033152Y0043030D03*
X0033152Y0042963D03*
X0033152Y0042930D03*
X0033152Y0042863D03*
X0033152Y0042830D03*
X0033152Y0042763D03*
X0033152Y0042730D03*
X0033152Y0042663D03*
X0033152Y0042630D03*
X0033152Y0042563D03*
X0033152Y0042530D03*
X0033152Y0042463D03*
X0033152Y0042430D03*
X0033152Y0042363D03*
X0033152Y0042330D03*
X0033152Y0042263D03*
X0033152Y0042230D03*
X0033152Y0042163D03*
X0033152Y0042130D03*
X0033152Y0042063D03*
X0033152Y0042030D03*
X0033152Y0041963D03*
X0033152Y0041930D03*
X0033152Y0041863D03*
X0033152Y0041830D03*
X0033152Y0041763D03*
X0033152Y0041730D03*
X0033152Y0041663D03*
X0033152Y0041630D03*
X0033152Y0041563D03*
X0033152Y0041530D03*
X0033152Y0041463D03*
X0033152Y0041430D03*
X0033152Y0041363D03*
X0033152Y0041330D03*
D190*
X0027117Y0041330D03*
X0027117Y0043463D03*
X0027117Y0043530D03*
X0027117Y0043563D03*
X0027117Y0043630D03*
X0027117Y0043663D03*
X0027117Y0043730D03*
X0027117Y0043763D03*
X0027117Y0043830D03*
X0027117Y0043863D03*
X0027117Y0043930D03*
X0027117Y0043963D03*
X0027117Y0044030D03*
X0027117Y0044063D03*
X0027117Y0044130D03*
X0027117Y0044163D03*
X0027117Y0044230D03*
X0027117Y0044263D03*
X0027117Y0044330D03*
X0027117Y0044363D03*
X0027117Y0044430D03*
X0027117Y0044463D03*
X0027117Y0044530D03*
X0027117Y0044563D03*
X0027117Y0044630D03*
X0027117Y0044663D03*
X0027117Y0044730D03*
X0027117Y0044763D03*
X0027117Y0044830D03*
X0027117Y0044863D03*
X0027117Y0044930D03*
X0027117Y0044963D03*
X0027117Y0045030D03*
X0027117Y0045063D03*
X0027117Y0045130D03*
X0027117Y0045163D03*
X0027117Y0045230D03*
X0027117Y0045263D03*
X0027117Y0045330D03*
X0027117Y0045363D03*
X0027117Y0045430D03*
X0027117Y0045463D03*
X0027117Y0045530D03*
X0027117Y0045563D03*
X0027117Y0045630D03*
X0027117Y0045663D03*
X0027117Y0045730D03*
X0027117Y0045763D03*
X0027117Y0045830D03*
X0027117Y0045863D03*
X0027117Y0045930D03*
X0027117Y0045963D03*
X0027117Y0046030D03*
X0027117Y0046063D03*
X0027117Y0046130D03*
X0027117Y0046163D03*
X0027117Y0046230D03*
X0027117Y0046263D03*
X0027117Y0046330D03*
X0027117Y0046363D03*
X0027117Y0046430D03*
X0027117Y0046463D03*
X0027117Y0046530D03*
X0027117Y0046563D03*
X0027117Y0046630D03*
X0027117Y0046663D03*
X0027117Y0046730D03*
X0027117Y0046763D03*
X0027117Y0046830D03*
X0027117Y0046863D03*
X0027117Y0046930D03*
X0027117Y0046963D03*
X0027117Y0047030D03*
X0027117Y0047063D03*
X0027117Y0047130D03*
X0040817Y0047130D03*
X0040817Y0047163D03*
X0040817Y0047063D03*
X0040817Y0047030D03*
X0040817Y0046963D03*
X0040817Y0046930D03*
X0040817Y0046863D03*
X0040817Y0046830D03*
X0040817Y0046763D03*
X0040817Y0046730D03*
X0040817Y0046663D03*
X0040817Y0046630D03*
X0040817Y0046563D03*
X0040817Y0046530D03*
X0040817Y0046463D03*
X0040817Y0046430D03*
X0040817Y0046363D03*
X0040817Y0046330D03*
X0040817Y0046263D03*
X0040817Y0046230D03*
X0040817Y0046163D03*
X0040817Y0046130D03*
X0040817Y0046063D03*
X0040817Y0046030D03*
X0040817Y0045963D03*
X0040817Y0045930D03*
X0040817Y0045863D03*
X0040817Y0045830D03*
X0040817Y0045763D03*
X0040817Y0045730D03*
X0040817Y0045663D03*
X0040817Y0045630D03*
X0040817Y0045563D03*
X0040817Y0045530D03*
X0040817Y0045463D03*
X0040817Y0045430D03*
X0049317Y0045630D03*
D191*
X0060037Y0041530D03*
X0060037Y0041463D03*
X0060037Y0041430D03*
X0060037Y0041363D03*
D192*
X0053152Y0041363D03*
D193*
X0049532Y0045930D03*
X0040902Y0041363D03*
X0027202Y0041463D03*
D194*
X0036882Y0041530D03*
X0036882Y0041363D03*
X0036882Y0046930D03*
X0036882Y0046963D03*
X0036882Y0047063D03*
X0036882Y0047130D03*
D195*
X0033137Y0045463D03*
X0033137Y0045430D03*
X0033137Y0045363D03*
X0033137Y0045330D03*
X0033137Y0045263D03*
X0033137Y0045230D03*
X0033137Y0045163D03*
X0033137Y0045130D03*
X0033137Y0045063D03*
X0033137Y0045030D03*
X0033137Y0044963D03*
X0033137Y0044930D03*
X0033137Y0044863D03*
X0033137Y0044830D03*
X0033137Y0044763D03*
X0033137Y0044730D03*
X0033137Y0044663D03*
X0033137Y0044630D03*
X0033137Y0044563D03*
X0033137Y0044530D03*
X0033137Y0044463D03*
X0033137Y0044430D03*
X0033137Y0044363D03*
X0033137Y0044330D03*
X0033137Y0044263D03*
X0033137Y0044230D03*
X0033137Y0044163D03*
X0033137Y0044130D03*
X0033137Y0044063D03*
X0033137Y0044030D03*
X0033137Y0043963D03*
X0027137Y0043430D03*
X0027137Y0043363D03*
X0027137Y0043330D03*
X0027137Y0043263D03*
X0027137Y0043230D03*
X0027137Y0043163D03*
X0027137Y0043130D03*
X0027137Y0043063D03*
X0027137Y0043030D03*
X0027137Y0041363D03*
X0040837Y0042563D03*
X0040837Y0042630D03*
X0040837Y0042663D03*
X0040837Y0042730D03*
X0040837Y0042763D03*
X0040837Y0042830D03*
X0040837Y0042863D03*
X0040837Y0042930D03*
X0040837Y0042963D03*
X0040837Y0043030D03*
X0040837Y0043063D03*
X0040837Y0043130D03*
X0040837Y0043163D03*
X0040837Y0043230D03*
X0040837Y0043263D03*
X0040837Y0043330D03*
X0040837Y0043363D03*
X0040837Y0043430D03*
X0040837Y0043463D03*
X0040837Y0043530D03*
X0040837Y0043563D03*
X0040837Y0043630D03*
X0040837Y0043663D03*
X0040837Y0043730D03*
X0040837Y0043763D03*
X0040837Y0043830D03*
X0040837Y0043863D03*
X0040837Y0043930D03*
X0040837Y0043963D03*
X0040837Y0044030D03*
X0040837Y0044063D03*
X0040837Y0044130D03*
X0040837Y0044163D03*
X0040837Y0044230D03*
X0040837Y0044263D03*
X0040837Y0044330D03*
X0040837Y0044363D03*
X0040837Y0044430D03*
X0040837Y0044463D03*
X0040837Y0044530D03*
X0040837Y0044563D03*
X0040837Y0044630D03*
X0040837Y0044663D03*
X0040837Y0044730D03*
X0040837Y0044763D03*
X0040837Y0044830D03*
X0040837Y0044863D03*
X0040837Y0044930D03*
X0040837Y0044963D03*
X0040837Y0045030D03*
X0040837Y0045063D03*
X0040837Y0045130D03*
X0040837Y0045163D03*
X0040837Y0045230D03*
X0040837Y0045263D03*
X0040837Y0045330D03*
X0040837Y0045363D03*
X0049397Y0045730D03*
X0049397Y0045763D03*
X0049267Y0042963D03*
X0049267Y0042930D03*
X0049297Y0042863D03*
X0049337Y0042830D03*
X0049367Y0042763D03*
X0049397Y0042730D03*
D196*
X0060037Y0041496D03*
X0060037Y0041396D03*
D197*
X0053117Y0041396D03*
X0053117Y0047096D03*
D198*
X0046767Y0041396D03*
D199*
X0040937Y0041396D03*
X0031267Y0045296D03*
X0030837Y0044896D03*
X0030397Y0044496D03*
X0029967Y0044096D03*
X0062837Y0048196D03*
X0062837Y0048296D03*
X0062837Y0048396D03*
X0062837Y0048496D03*
D200*
X0036867Y0046996D03*
X0036867Y0041396D03*
D201*
X0027152Y0041396D03*
D202*
X0053082Y0041430D03*
X0053082Y0047063D03*
D203*
X0049637Y0046030D03*
X0049637Y0042463D03*
X0049667Y0042430D03*
X0046737Y0041430D03*
X0033037Y0046963D03*
X0030867Y0044930D03*
X0030767Y0044830D03*
X0030367Y0044463D03*
X0030337Y0044430D03*
X0029897Y0044030D03*
X0029467Y0043630D03*
X0029037Y0043230D03*
X0027237Y0041530D03*
X0062837Y0048230D03*
X0062837Y0048263D03*
X0062837Y0048330D03*
X0062837Y0048363D03*
X0062837Y0048430D03*
X0062837Y0048463D03*
X0062837Y0048530D03*
D204*
X0049682Y0046063D03*
X0043882Y0043430D03*
X0040952Y0041430D03*
X0031452Y0045463D03*
X0031352Y0045363D03*
X0031182Y0045230D03*
X0031082Y0045130D03*
X0030982Y0045030D03*
X0030782Y0044863D03*
X0030682Y0044763D03*
X0030652Y0044730D03*
X0030582Y0044663D03*
X0030552Y0044630D03*
X0030482Y0044563D03*
X0030452Y0044530D03*
X0030252Y0044363D03*
X0030152Y0044263D03*
X0030052Y0044163D03*
X0029952Y0044063D03*
X0029782Y0043930D03*
X0029682Y0043830D03*
X0029582Y0043730D03*
X0029382Y0043563D03*
X0029352Y0043530D03*
X0029282Y0043463D03*
X0029252Y0043430D03*
X0029182Y0043363D03*
X0029152Y0043330D03*
X0029082Y0043263D03*
X0028952Y0043163D03*
X0028852Y0043063D03*
X0027252Y0041563D03*
D205*
X0053052Y0041463D03*
X0053052Y0047030D03*
D206*
X0049732Y0042363D03*
X0046702Y0041463D03*
D207*
X0049787Y0042330D03*
X0049747Y0046130D03*
X0040987Y0041463D03*
X0032987Y0046863D03*
X0027287Y0048230D03*
X0027287Y0048263D03*
X0027287Y0048330D03*
X0027287Y0048363D03*
X0027287Y0048430D03*
X0027287Y0048463D03*
X0027287Y0048530D03*
X0027287Y0041630D03*
D208*
X0053017Y0041496D03*
X0053017Y0046996D03*
D209*
X0046687Y0041496D03*
X0043887Y0043396D03*
X0027287Y0048196D03*
X0027287Y0048296D03*
X0027287Y0048396D03*
X0027287Y0048496D03*
D210*
X0027317Y0041696D03*
X0041017Y0041496D03*
D211*
X0036882Y0041496D03*
X0036882Y0047096D03*
D212*
X0027217Y0041496D03*
X0049617Y0045996D03*
D213*
X0053002Y0041530D03*
D214*
X0049882Y0046230D03*
X0046652Y0041530D03*
D215*
X0041037Y0041530D03*
X0049937Y0046263D03*
X0032937Y0046763D03*
X0027337Y0041730D03*
D216*
X0052967Y0041563D03*
X0052967Y0046930D03*
D217*
X0046617Y0041563D03*
X0032917Y0046730D03*
D218*
X0041067Y0041563D03*
D219*
X0060052Y0041596D03*
X0060052Y0046896D03*
X0060052Y0046996D03*
X0060052Y0047096D03*
D220*
X0052932Y0046896D03*
X0052932Y0041596D03*
D221*
X0046602Y0041596D03*
X0032902Y0046696D03*
D222*
X0041102Y0041596D03*
X0050132Y0042096D03*
D223*
X0027267Y0041596D03*
D224*
X0060067Y0041630D03*
X0060067Y0041663D03*
X0060067Y0046830D03*
X0060067Y0046863D03*
D225*
X0052902Y0046863D03*
X0052902Y0041630D03*
D226*
X0046567Y0041630D03*
X0043867Y0043330D03*
D227*
X0044917Y0042630D03*
X0041117Y0041630D03*
D228*
X0052882Y0041663D03*
D229*
X0046552Y0041663D03*
X0044882Y0042663D03*
X0032852Y0046630D03*
D230*
X0041152Y0041663D03*
D231*
X0049802Y0046163D03*
X0027302Y0041663D03*
D232*
X0060087Y0041696D03*
X0060087Y0046796D03*
D233*
X0052852Y0046796D03*
X0052852Y0041696D03*
D234*
X0046517Y0041696D03*
D235*
X0050347Y0041996D03*
X0041187Y0041696D03*
X0032787Y0046496D03*
X0027487Y0041996D03*
D236*
X0052817Y0041730D03*
X0052817Y0046763D03*
D237*
X0041202Y0041730D03*
X0027502Y0042030D03*
D238*
X0036867Y0041730D03*
D239*
X0060117Y0041763D03*
X0060117Y0046730D03*
D240*
X0052802Y0041763D03*
D241*
X0046452Y0041763D03*
X0043882Y0043263D03*
X0032752Y0046430D03*
D242*
X0041237Y0041763D03*
D243*
X0043882Y0043363D03*
X0027352Y0041763D03*
D244*
X0060152Y0041796D03*
X0060052Y0047296D03*
D245*
X0052767Y0046696D03*
X0052767Y0041796D03*
D246*
X0046437Y0041796D03*
X0032737Y0046396D03*
X0027537Y0042096D03*
D247*
X0041252Y0041796D03*
D248*
X0043847Y0042696D03*
X0036887Y0041796D03*
X0036887Y0046696D03*
D249*
X0027367Y0041796D03*
D250*
X0052732Y0041830D03*
X0052732Y0046663D03*
D251*
X0046402Y0041830D03*
X0032702Y0046330D03*
D252*
X0032887Y0046663D03*
X0027387Y0041830D03*
X0042647Y0042563D03*
X0042747Y0042630D03*
X0042787Y0042663D03*
X0050087Y0042130D03*
D253*
X0060237Y0041863D03*
D254*
X0060017Y0047463D03*
X0052717Y0046630D03*
X0052717Y0041863D03*
D255*
X0046367Y0041863D03*
X0042467Y0048230D03*
X0042467Y0048263D03*
X0042467Y0048330D03*
X0042467Y0048363D03*
X0042467Y0048430D03*
X0042467Y0048463D03*
X0042467Y0048530D03*
X0032667Y0046263D03*
D256*
X0027602Y0042230D03*
X0041302Y0041863D03*
X0050532Y0041930D03*
D257*
X0050102Y0046363D03*
X0045032Y0042563D03*
X0027402Y0041863D03*
D258*
X0052702Y0041896D03*
D259*
X0032837Y0046596D03*
X0027437Y0041896D03*
D260*
X0046317Y0041930D03*
D261*
X0050417Y0041963D03*
X0027517Y0042063D03*
D262*
X0027467Y0041963D03*
X0050267Y0042030D03*
D263*
X0046267Y0041996D03*
X0032567Y0046096D03*
D264*
X0041417Y0041996D03*
D265*
X0041437Y0042030D03*
X0046237Y0042030D03*
X0032537Y0046030D03*
X0027737Y0042463D03*
D266*
X0046217Y0042063D03*
D267*
X0041467Y0042063D03*
X0027767Y0042530D03*
D268*
X0046187Y0042096D03*
D269*
X0041502Y0042096D03*
X0027802Y0042596D03*
D270*
X0032452Y0045863D03*
X0046152Y0042130D03*
D271*
X0041517Y0042130D03*
X0027817Y0042630D03*
D272*
X0050032Y0042163D03*
X0050032Y0046330D03*
D273*
X0046137Y0042163D03*
X0043867Y0043063D03*
X0032437Y0045830D03*
X0027837Y0042663D03*
D274*
X0049967Y0042196D03*
D275*
X0046102Y0042196D03*
D276*
X0041567Y0042196D03*
D277*
X0032687Y0046296D03*
X0027587Y0042196D03*
D278*
X0049917Y0042230D03*
D279*
X0046067Y0042230D03*
D280*
X0049867Y0042263D03*
X0032967Y0046830D03*
D281*
X0041617Y0042263D03*
D282*
X0027617Y0042263D03*
D283*
X0049832Y0042296D03*
X0049832Y0046196D03*
D284*
X0046017Y0042296D03*
D285*
X0041652Y0042296D03*
D286*
X0045987Y0042330D03*
X0032287Y0045563D03*
X0027987Y0042930D03*
D287*
X0041667Y0042330D03*
X0043867Y0042963D03*
D288*
X0045967Y0042363D03*
X0035767Y0048230D03*
X0035767Y0048263D03*
X0035767Y0048330D03*
X0035767Y0048363D03*
X0035767Y0048430D03*
X0035767Y0048463D03*
X0035767Y0048530D03*
X0032267Y0045530D03*
D289*
X0028002Y0042963D03*
X0041702Y0042363D03*
X0054402Y0048230D03*
X0054402Y0048263D03*
X0054402Y0048330D03*
X0054402Y0048363D03*
X0054402Y0048430D03*
X0054402Y0048463D03*
X0054402Y0048530D03*
D290*
X0049682Y0042396D03*
X0031482Y0045496D03*
X0031382Y0045396D03*
X0031152Y0045196D03*
X0031052Y0045096D03*
X0030952Y0044996D03*
X0030282Y0044396D03*
X0030182Y0044296D03*
X0030082Y0044196D03*
X0029852Y0043996D03*
X0029752Y0043896D03*
X0029652Y0043796D03*
X0029552Y0043696D03*
X0028982Y0043196D03*
X0028882Y0043096D03*
X0028782Y0042996D03*
D291*
X0041737Y0042396D03*
X0045937Y0042396D03*
D292*
X0027702Y0042396D03*
D293*
X0045902Y0042430D03*
X0060532Y0049130D03*
X0060532Y0049163D03*
X0060532Y0049230D03*
X0060532Y0049263D03*
X0060532Y0049330D03*
X0060532Y0049363D03*
X0060532Y0049430D03*
X0060532Y0049463D03*
X0060532Y0049530D03*
X0060532Y0049563D03*
D294*
X0041752Y0042430D03*
D295*
X0027717Y0042430D03*
D296*
X0033052Y0046996D03*
X0049582Y0042496D03*
D297*
X0049567Y0042530D03*
X0049567Y0045963D03*
X0033067Y0047030D03*
D298*
X0045817Y0042530D03*
D299*
X0032487Y0045930D03*
X0027787Y0042563D03*
D300*
X0033102Y0047096D03*
X0049502Y0042596D03*
D301*
X0050152Y0046396D03*
X0044982Y0042596D03*
D302*
X0042687Y0042596D03*
D303*
X0049467Y0042630D03*
D304*
X0049452Y0042663D03*
X0049452Y0045830D03*
D305*
X0049417Y0045796D03*
X0049417Y0042696D03*
D306*
X0027852Y0042696D03*
D307*
X0027867Y0042730D03*
X0043867Y0043030D03*
D308*
X0043867Y0042796D03*
D309*
X0027902Y0042796D03*
D310*
X0027937Y0042830D03*
X0032337Y0045663D03*
D311*
X0027952Y0042863D03*
D312*
X0043867Y0042896D03*
D313*
X0027967Y0042896D03*
D314*
X0043867Y0042996D03*
D315*
X0033017Y0046930D03*
X0031417Y0045430D03*
X0031317Y0045330D03*
X0031217Y0045263D03*
X0031117Y0045163D03*
X0031017Y0045063D03*
X0030917Y0044963D03*
X0030217Y0044330D03*
X0030117Y0044230D03*
X0030017Y0044130D03*
X0029817Y0043963D03*
X0029717Y0043863D03*
X0029617Y0043763D03*
X0029517Y0043663D03*
X0028917Y0043130D03*
X0028817Y0043030D03*
D316*
X0043867Y0043096D03*
D317*
X0043882Y0043296D03*
D318*
X0049717Y0046096D03*
X0030717Y0044796D03*
X0030617Y0044696D03*
X0030517Y0044596D03*
X0029417Y0043596D03*
X0029317Y0043496D03*
X0029217Y0043396D03*
X0029117Y0043296D03*
D319*
X0027117Y0043496D03*
X0027117Y0043596D03*
X0027117Y0043696D03*
X0027117Y0043796D03*
X0027117Y0043896D03*
X0027117Y0043996D03*
X0027117Y0044096D03*
X0027117Y0044196D03*
X0027117Y0044296D03*
X0027117Y0044396D03*
X0027117Y0044496D03*
X0027117Y0044596D03*
X0027117Y0044696D03*
X0027117Y0044796D03*
X0027117Y0044896D03*
X0027117Y0044996D03*
X0027117Y0045096D03*
X0027117Y0045196D03*
X0027117Y0045296D03*
X0027117Y0045396D03*
X0027117Y0045496D03*
X0027117Y0045596D03*
X0027117Y0045696D03*
X0027117Y0045796D03*
X0027117Y0045896D03*
X0027117Y0045996D03*
X0027117Y0046096D03*
X0027117Y0046196D03*
X0027117Y0046296D03*
X0027117Y0046396D03*
X0027117Y0046496D03*
X0027117Y0046596D03*
X0027117Y0046696D03*
X0027117Y0046796D03*
X0027117Y0046896D03*
X0027117Y0046996D03*
X0027117Y0047096D03*
X0040817Y0047096D03*
X0040817Y0046996D03*
X0040817Y0046896D03*
X0040817Y0046796D03*
X0040817Y0046696D03*
X0040817Y0046596D03*
X0040817Y0046496D03*
X0040817Y0046396D03*
X0040817Y0046296D03*
X0040817Y0046196D03*
X0040817Y0046096D03*
X0040817Y0045996D03*
X0040817Y0045896D03*
X0040817Y0045796D03*
X0040817Y0045696D03*
X0040817Y0045596D03*
X0040817Y0045496D03*
X0040817Y0045396D03*
X0049317Y0045596D03*
D320*
X0043902Y0043563D03*
X0033902Y0049130D03*
X0033902Y0049163D03*
X0033902Y0049230D03*
X0033902Y0049263D03*
X0033902Y0049330D03*
X0033902Y0049363D03*
X0033902Y0049430D03*
X0033902Y0049463D03*
X0033902Y0049530D03*
X0033902Y0049563D03*
X0033902Y0049630D03*
X0033902Y0049663D03*
X0033902Y0049730D03*
X0033902Y0049763D03*
X0033902Y0049830D03*
X0033902Y0049863D03*
X0033902Y0049930D03*
X0033902Y0049963D03*
X0033902Y0050030D03*
X0033902Y0050063D03*
X0033902Y0050130D03*
X0033902Y0050163D03*
X0033902Y0050230D03*
X0033902Y0050263D03*
D321*
X0043897Y0043596D03*
D322*
X0043902Y0043696D03*
D323*
X0061052Y0043796D03*
D324*
X0060987Y0043830D03*
D325*
X0060952Y0043863D03*
X0060952Y0044630D03*
D326*
X0060902Y0043896D03*
D327*
X0060887Y0043930D03*
X0060887Y0044563D03*
D328*
X0060867Y0044530D03*
X0060867Y0043963D03*
D329*
X0060852Y0043996D03*
X0060852Y0044496D03*
D330*
X0060837Y0044463D03*
X0060837Y0044030D03*
D331*
X0060817Y0044063D03*
X0060817Y0044430D03*
D332*
X0060817Y0044396D03*
X0060817Y0044096D03*
D333*
X0060802Y0044130D03*
X0060802Y0044163D03*
X0060802Y0044230D03*
X0060802Y0044263D03*
X0060802Y0044330D03*
X0060802Y0044363D03*
D334*
X0060802Y0044296D03*
X0060802Y0044196D03*
D335*
X0060917Y0044596D03*
D336*
X0061002Y0044663D03*
D337*
X0032302Y0045596D03*
D338*
X0032317Y0045630D03*
D339*
X0032352Y0045696D03*
D340*
X0032417Y0045796D03*
D341*
X0049517Y0045896D03*
D342*
X0032467Y0045896D03*
D343*
X0032502Y0045963D03*
D344*
X0046867Y0045996D03*
X0046867Y0046096D03*
X0046867Y0046196D03*
X0046867Y0046296D03*
X0046867Y0046396D03*
X0046867Y0046496D03*
X0046867Y0046596D03*
X0046867Y0046696D03*
X0046867Y0046796D03*
X0046867Y0046896D03*
X0046867Y0046996D03*
X0046867Y0047096D03*
X0046867Y0047196D03*
D345*
X0032517Y0045996D03*
D346*
X0046867Y0046030D03*
X0046867Y0046063D03*
X0046867Y0046130D03*
X0046867Y0046163D03*
X0046867Y0046230D03*
X0046867Y0046263D03*
X0046867Y0046330D03*
X0046867Y0046363D03*
X0046867Y0046430D03*
X0046867Y0046463D03*
X0046867Y0046530D03*
X0046867Y0046563D03*
X0046867Y0046630D03*
X0046867Y0046663D03*
X0046867Y0046730D03*
X0046867Y0046763D03*
X0046867Y0046830D03*
X0046867Y0046863D03*
X0046867Y0046930D03*
X0046867Y0046963D03*
X0046867Y0047030D03*
X0046867Y0047063D03*
X0046867Y0047163D03*
D347*
X0057832Y0048230D03*
X0057832Y0048263D03*
X0057832Y0048330D03*
X0057832Y0048363D03*
X0057832Y0048430D03*
X0057832Y0048463D03*
X0057832Y0048530D03*
X0032602Y0046163D03*
D348*
X0032617Y0046196D03*
D349*
X0049982Y0046296D03*
D350*
X0032717Y0046363D03*
D351*
X0032817Y0046563D03*
X0050217Y0046430D03*
D352*
X0032767Y0046463D03*
D353*
X0050367Y0046496D03*
D354*
X0032802Y0046530D03*
D355*
X0050567Y0046563D03*
D356*
X0052682Y0046596D03*
D357*
X0036882Y0046596D03*
D358*
X0060217Y0046630D03*
D359*
X0060167Y0046663D03*
D360*
X0060137Y0046696D03*
D361*
X0052782Y0046730D03*
D362*
X0032952Y0046796D03*
D363*
X0052867Y0046830D03*
D364*
X0033002Y0046896D03*
D365*
X0052982Y0046963D03*
D366*
X0053167Y0047130D03*
D367*
X0060067Y0047196D03*
D368*
X0053232Y0047196D03*
D369*
X0027102Y0047196D03*
D370*
X0053267Y0047230D03*
D371*
X0046867Y0047230D03*
X0033167Y0047230D03*
D372*
X0060052Y0047263D03*
D373*
X0056267Y0049096D03*
X0056267Y0049196D03*
X0056267Y0049296D03*
X0056267Y0049396D03*
X0056267Y0049496D03*
X0056267Y0049596D03*
X0056267Y0049696D03*
X0056267Y0049796D03*
X0056267Y0049896D03*
X0056267Y0049996D03*
X0056267Y0050096D03*
X0056267Y0050196D03*
X0056267Y0050296D03*
X0046867Y0047296D03*
X0033167Y0047296D03*
D374*
X0060032Y0047330D03*
D375*
X0053347Y0047330D03*
D376*
X0046882Y0047330D03*
X0033152Y0047330D03*
D377*
X0053367Y0047363D03*
D378*
X0046867Y0047363D03*
X0041067Y0050030D03*
X0033167Y0047363D03*
D379*
X0036917Y0047363D03*
D380*
X0060017Y0047396D03*
D381*
X0053402Y0047396D03*
D382*
X0036917Y0047396D03*
D383*
X0060017Y0047430D03*
D384*
X0046867Y0047463D03*
X0040837Y0047463D03*
D385*
X0049082Y0049163D03*
X0027082Y0047463D03*
D386*
X0040837Y0047496D03*
X0045297Y0049396D03*
X0045297Y0049496D03*
X0045297Y0049596D03*
X0045297Y0049696D03*
X0045297Y0049796D03*
X0046367Y0049396D03*
X0046367Y0049296D03*
X0046367Y0049196D03*
X0046367Y0049096D03*
X0046367Y0048996D03*
X0046367Y0048896D03*
X0046367Y0048796D03*
X0046367Y0048696D03*
X0046367Y0048596D03*
D387*
X0048652Y0049196D03*
X0048652Y0049296D03*
X0048652Y0049396D03*
X0048652Y0049496D03*
X0048652Y0049596D03*
X0048652Y0049696D03*
X0048852Y0048996D03*
X0048852Y0048896D03*
X0048852Y0048796D03*
X0048852Y0048696D03*
X0048852Y0048596D03*
X0052182Y0048596D03*
X0052182Y0048696D03*
X0052182Y0048796D03*
X0052182Y0048896D03*
X0052182Y0048996D03*
X0052852Y0048996D03*
X0052852Y0048896D03*
X0052852Y0048796D03*
X0052852Y0048696D03*
X0052852Y0048596D03*
X0055952Y0048596D03*
X0055952Y0048696D03*
X0055952Y0048796D03*
X0055952Y0048896D03*
X0055952Y0048996D03*
X0059052Y0048996D03*
X0059052Y0048896D03*
X0059052Y0048796D03*
X0059052Y0048696D03*
X0059052Y0048596D03*
X0059452Y0048596D03*
X0059452Y0048496D03*
X0059452Y0048396D03*
X0059452Y0048296D03*
X0059452Y0048196D03*
X0059452Y0048696D03*
X0059452Y0048796D03*
X0059452Y0048896D03*
X0059452Y0048996D03*
X0060852Y0048996D03*
X0060852Y0048896D03*
X0060852Y0048796D03*
X0060852Y0048696D03*
X0060852Y0048596D03*
X0060852Y0048496D03*
X0060852Y0048396D03*
X0060852Y0048296D03*
X0060852Y0048196D03*
X0061282Y0048196D03*
X0061282Y0048296D03*
X0061282Y0048396D03*
X0061282Y0048496D03*
X0061282Y0048596D03*
X0061282Y0048696D03*
X0061282Y0048796D03*
X0061282Y0048896D03*
X0061282Y0048996D03*
X0061682Y0048996D03*
X0061682Y0048896D03*
X0061682Y0048796D03*
X0061682Y0048696D03*
X0061682Y0048596D03*
X0061682Y0048496D03*
X0061682Y0048396D03*
X0061682Y0048296D03*
X0061682Y0048196D03*
X0062052Y0048596D03*
X0062052Y0048696D03*
X0062052Y0048796D03*
X0062052Y0048896D03*
X0062052Y0048996D03*
X0041082Y0049696D03*
X0037952Y0048996D03*
X0037952Y0048896D03*
X0037952Y0048796D03*
X0037952Y0048696D03*
X0037952Y0048596D03*
X0037652Y0048596D03*
X0037652Y0048496D03*
X0037652Y0048396D03*
X0037652Y0048296D03*
X0037652Y0048196D03*
X0037652Y0048696D03*
X0037652Y0048796D03*
X0037652Y0048896D03*
X0037652Y0048996D03*
X0033552Y0048996D03*
X0033552Y0048896D03*
X0033552Y0048796D03*
X0033552Y0048696D03*
X0033552Y0048596D03*
X0031152Y0048596D03*
X0031152Y0048696D03*
X0031152Y0048796D03*
X0031152Y0048896D03*
X0031152Y0048996D03*
X0030252Y0048996D03*
X0030252Y0048896D03*
X0030252Y0048796D03*
X0030252Y0048696D03*
X0030252Y0048596D03*
X0030252Y0048496D03*
X0030252Y0048396D03*
X0030252Y0048296D03*
X0030252Y0048196D03*
X0029782Y0048196D03*
X0029782Y0048296D03*
X0029782Y0048396D03*
X0029782Y0048496D03*
X0029782Y0048596D03*
X0029782Y0048696D03*
X0029782Y0048796D03*
X0029782Y0048896D03*
X0029782Y0048996D03*
D388*
X0029317Y0048996D03*
X0029317Y0048896D03*
X0029317Y0048796D03*
X0029317Y0048696D03*
X0029317Y0048596D03*
X0029317Y0048496D03*
X0029317Y0048396D03*
X0029317Y0048296D03*
X0029317Y0048196D03*
X0028917Y0048196D03*
X0028917Y0048296D03*
X0028917Y0048396D03*
X0028917Y0048496D03*
X0028917Y0048596D03*
X0028917Y0048696D03*
X0028917Y0048796D03*
X0028917Y0048896D03*
X0028917Y0048996D03*
X0028517Y0048996D03*
X0028517Y0048896D03*
X0028517Y0048796D03*
X0028517Y0048696D03*
X0028517Y0048596D03*
X0028517Y0048496D03*
X0028517Y0048396D03*
X0028517Y0048296D03*
X0028517Y0048196D03*
X0028117Y0048596D03*
X0028117Y0048696D03*
X0028117Y0048796D03*
X0028117Y0048896D03*
X0028117Y0048996D03*
X0030717Y0048996D03*
X0030717Y0048896D03*
X0030717Y0048796D03*
X0030717Y0048696D03*
X0030717Y0048596D03*
X0030717Y0048496D03*
X0030717Y0048396D03*
X0030717Y0048296D03*
X0030717Y0048196D03*
X0034217Y0048596D03*
X0034217Y0048696D03*
X0034217Y0048796D03*
X0034217Y0048896D03*
X0034217Y0048996D03*
X0037317Y0048996D03*
X0037317Y0048896D03*
X0037317Y0048796D03*
X0037317Y0048696D03*
X0037317Y0048596D03*
X0040617Y0049196D03*
X0040617Y0049296D03*
X0040617Y0049396D03*
X0040617Y0049496D03*
X0040617Y0049596D03*
X0040617Y0049696D03*
X0040817Y0048996D03*
X0040817Y0048896D03*
X0040817Y0048796D03*
X0040817Y0048696D03*
X0040817Y0048596D03*
X0041317Y0048596D03*
X0041317Y0048696D03*
X0041317Y0048796D03*
X0041317Y0048896D03*
X0041317Y0048996D03*
X0043617Y0048996D03*
X0043617Y0048896D03*
X0043617Y0048796D03*
X0043617Y0048696D03*
X0043617Y0048596D03*
X0043617Y0049096D03*
X0043617Y0049196D03*
X0043617Y0049296D03*
X0043617Y0049396D03*
X0049317Y0048996D03*
X0049317Y0048896D03*
X0049317Y0048796D03*
X0049317Y0048696D03*
X0049317Y0048596D03*
X0052517Y0048596D03*
X0052517Y0048496D03*
X0052517Y0048396D03*
X0052517Y0048296D03*
X0052517Y0048196D03*
X0052517Y0048696D03*
X0052517Y0048796D03*
X0052517Y0048896D03*
X0052517Y0048996D03*
X0056617Y0048996D03*
X0056617Y0048896D03*
X0056617Y0048796D03*
X0056617Y0048696D03*
X0056617Y0048596D03*
X0059917Y0048596D03*
X0059917Y0048496D03*
X0059917Y0048396D03*
X0059917Y0048296D03*
X0059917Y0048196D03*
X0060417Y0048196D03*
X0060417Y0048296D03*
X0060417Y0048396D03*
X0060417Y0048496D03*
X0060417Y0048596D03*
X0060417Y0048696D03*
X0060417Y0048796D03*
X0060417Y0048896D03*
X0060417Y0048996D03*
X0059917Y0048996D03*
X0059917Y0048896D03*
X0059917Y0048796D03*
X0059917Y0048696D03*
D389*
X0057832Y0048496D03*
X0057832Y0048396D03*
X0057832Y0048296D03*
X0057832Y0048196D03*
D390*
X0054402Y0048196D03*
X0054402Y0048296D03*
X0054402Y0048396D03*
X0054402Y0048496D03*
D391*
X0050747Y0048496D03*
X0050747Y0048396D03*
X0050747Y0048296D03*
X0050747Y0048196D03*
X0039387Y0048196D03*
X0039387Y0048296D03*
X0039387Y0048396D03*
X0039387Y0048496D03*
D392*
X0042467Y0048496D03*
X0042467Y0048396D03*
X0042467Y0048296D03*
X0042467Y0048196D03*
D393*
X0035767Y0048196D03*
X0035767Y0048296D03*
X0035767Y0048396D03*
X0035767Y0048496D03*
D394*
X0032352Y0048496D03*
X0032352Y0048396D03*
X0032352Y0048296D03*
X0032352Y0048196D03*
D395*
X0033552Y0048563D03*
X0033552Y0048630D03*
X0033552Y0048663D03*
X0033552Y0048730D03*
X0033552Y0048763D03*
X0033552Y0048830D03*
X0033552Y0048863D03*
X0033552Y0048930D03*
X0033552Y0048963D03*
X0033552Y0049030D03*
X0033552Y0049063D03*
X0031152Y0049063D03*
X0031152Y0049030D03*
X0031152Y0048963D03*
X0031152Y0048930D03*
X0031152Y0048863D03*
X0031152Y0048830D03*
X0031152Y0048763D03*
X0031152Y0048730D03*
X0031152Y0048663D03*
X0031152Y0048630D03*
X0031152Y0048563D03*
X0030252Y0048563D03*
X0030252Y0048530D03*
X0030252Y0048463D03*
X0030252Y0048430D03*
X0030252Y0048363D03*
X0030252Y0048330D03*
X0030252Y0048263D03*
X0030252Y0048230D03*
X0030252Y0048630D03*
X0030252Y0048663D03*
X0030252Y0048730D03*
X0030252Y0048763D03*
X0030252Y0048830D03*
X0030252Y0048863D03*
X0030252Y0048930D03*
X0030252Y0048963D03*
X0030252Y0049030D03*
X0030252Y0049063D03*
X0029782Y0049063D03*
X0029782Y0049030D03*
X0029782Y0048963D03*
X0029782Y0048930D03*
X0029782Y0048863D03*
X0029782Y0048830D03*
X0029782Y0048763D03*
X0029782Y0048730D03*
X0029782Y0048663D03*
X0029782Y0048630D03*
X0029782Y0048563D03*
X0029782Y0048530D03*
X0029782Y0048463D03*
X0029782Y0048430D03*
X0029782Y0048363D03*
X0029782Y0048330D03*
X0029782Y0048263D03*
X0029782Y0048230D03*
X0037652Y0048230D03*
X0037652Y0048263D03*
X0037652Y0048330D03*
X0037652Y0048363D03*
X0037652Y0048430D03*
X0037652Y0048463D03*
X0037652Y0048530D03*
X0037652Y0048563D03*
X0037652Y0048630D03*
X0037652Y0048663D03*
X0037652Y0048730D03*
X0037652Y0048763D03*
X0037652Y0048830D03*
X0037652Y0048863D03*
X0037652Y0048930D03*
X0037652Y0048963D03*
X0037652Y0049030D03*
X0037652Y0049063D03*
X0037952Y0049063D03*
X0037952Y0049030D03*
X0037952Y0048963D03*
X0037952Y0048930D03*
X0037952Y0048863D03*
X0037952Y0048830D03*
X0037952Y0048763D03*
X0037952Y0048730D03*
X0037952Y0048663D03*
X0037952Y0048630D03*
X0037952Y0048563D03*
X0041182Y0049763D03*
X0048652Y0049763D03*
X0048652Y0049730D03*
X0048652Y0049663D03*
X0048652Y0049630D03*
X0048652Y0049563D03*
X0048652Y0049530D03*
X0048652Y0049463D03*
X0048652Y0049430D03*
X0048652Y0049363D03*
X0048652Y0049330D03*
X0048652Y0049263D03*
X0048652Y0049230D03*
X0048652Y0049163D03*
X0048652Y0049130D03*
X0048852Y0049063D03*
X0048852Y0049030D03*
X0048852Y0048963D03*
X0048852Y0048930D03*
X0048852Y0048863D03*
X0048852Y0048830D03*
X0048852Y0048763D03*
X0048852Y0048730D03*
X0048852Y0048663D03*
X0048852Y0048630D03*
X0048852Y0048563D03*
X0049152Y0049730D03*
X0049182Y0049763D03*
X0052182Y0049063D03*
X0052182Y0049030D03*
X0052182Y0048963D03*
X0052182Y0048930D03*
X0052182Y0048863D03*
X0052182Y0048830D03*
X0052182Y0048763D03*
X0052182Y0048730D03*
X0052182Y0048663D03*
X0052182Y0048630D03*
X0052182Y0048563D03*
X0052852Y0048563D03*
X0052852Y0048630D03*
X0052852Y0048663D03*
X0052852Y0048730D03*
X0052852Y0048763D03*
X0052852Y0048830D03*
X0052852Y0048863D03*
X0052852Y0048930D03*
X0052852Y0048963D03*
X0052852Y0049030D03*
X0052852Y0049063D03*
X0055952Y0049063D03*
X0055952Y0049030D03*
X0055952Y0048963D03*
X0055952Y0048930D03*
X0055952Y0048863D03*
X0055952Y0048830D03*
X0055952Y0048763D03*
X0055952Y0048730D03*
X0055952Y0048663D03*
X0055952Y0048630D03*
X0055952Y0048563D03*
X0059052Y0048563D03*
X0059052Y0048630D03*
X0059052Y0048663D03*
X0059052Y0048730D03*
X0059052Y0048763D03*
X0059052Y0048830D03*
X0059052Y0048863D03*
X0059052Y0048930D03*
X0059052Y0048963D03*
X0059052Y0049030D03*
X0059052Y0049063D03*
X0059452Y0049063D03*
X0059452Y0049030D03*
X0059452Y0048963D03*
X0059452Y0048930D03*
X0059452Y0048863D03*
X0059452Y0048830D03*
X0059452Y0048763D03*
X0059452Y0048730D03*
X0059452Y0048663D03*
X0059452Y0048630D03*
X0059452Y0048563D03*
X0059452Y0048530D03*
X0059452Y0048463D03*
X0059452Y0048430D03*
X0059452Y0048363D03*
X0059452Y0048330D03*
X0059452Y0048263D03*
X0059452Y0048230D03*
X0060852Y0048230D03*
X0060852Y0048263D03*
X0060852Y0048330D03*
X0060852Y0048363D03*
X0060852Y0048430D03*
X0060852Y0048463D03*
X0060852Y0048530D03*
X0060852Y0048563D03*
X0060852Y0048630D03*
X0060852Y0048663D03*
X0060852Y0048730D03*
X0060852Y0048763D03*
X0060852Y0048830D03*
X0060852Y0048863D03*
X0060852Y0048930D03*
X0060852Y0048963D03*
X0060852Y0049030D03*
X0060852Y0049063D03*
X0061282Y0049063D03*
X0061282Y0049030D03*
X0061282Y0048963D03*
X0061282Y0048930D03*
X0061282Y0048863D03*
X0061282Y0048830D03*
X0061282Y0048763D03*
X0061282Y0048730D03*
X0061282Y0048663D03*
X0061282Y0048630D03*
X0061282Y0048563D03*
X0061282Y0048530D03*
X0061282Y0048463D03*
X0061282Y0048430D03*
X0061282Y0048363D03*
X0061282Y0048330D03*
X0061282Y0048263D03*
X0061282Y0048230D03*
X0061682Y0048230D03*
X0061682Y0048263D03*
X0061682Y0048330D03*
X0061682Y0048363D03*
X0061682Y0048430D03*
X0061682Y0048463D03*
X0061682Y0048530D03*
X0061682Y0048563D03*
X0061682Y0048630D03*
X0061682Y0048663D03*
X0061682Y0048730D03*
X0061682Y0048763D03*
X0061682Y0048830D03*
X0061682Y0048863D03*
X0061682Y0048930D03*
X0061682Y0048963D03*
X0061682Y0049030D03*
X0061682Y0049063D03*
X0062052Y0049063D03*
X0062052Y0049030D03*
X0062052Y0048963D03*
X0062052Y0048930D03*
X0062052Y0048863D03*
X0062052Y0048830D03*
X0062052Y0048763D03*
X0062052Y0048730D03*
X0062052Y0048663D03*
X0062052Y0048630D03*
D396*
X0060417Y0048630D03*
X0060417Y0048663D03*
X0060417Y0048730D03*
X0060417Y0048763D03*
X0060417Y0048830D03*
X0060417Y0048863D03*
X0060417Y0048930D03*
X0060417Y0048963D03*
X0060417Y0049030D03*
X0060417Y0049063D03*
X0059917Y0049063D03*
X0059917Y0049030D03*
X0059917Y0048963D03*
X0059917Y0048930D03*
X0059917Y0048863D03*
X0059917Y0048830D03*
X0059917Y0048763D03*
X0059917Y0048730D03*
X0059917Y0048663D03*
X0059917Y0048630D03*
X0059917Y0048563D03*
X0059917Y0048530D03*
X0059917Y0048463D03*
X0059917Y0048430D03*
X0059917Y0048363D03*
X0059917Y0048330D03*
X0059917Y0048263D03*
X0059917Y0048230D03*
X0060417Y0048230D03*
X0060417Y0048263D03*
X0060417Y0048330D03*
X0060417Y0048363D03*
X0060417Y0048430D03*
X0060417Y0048463D03*
X0060417Y0048530D03*
X0060417Y0048563D03*
X0056617Y0048563D03*
X0056617Y0048630D03*
X0056617Y0048663D03*
X0056617Y0048730D03*
X0056617Y0048763D03*
X0056617Y0048830D03*
X0056617Y0048863D03*
X0056617Y0048930D03*
X0056617Y0048963D03*
X0056617Y0049030D03*
X0056617Y0049063D03*
X0052517Y0049063D03*
X0052517Y0049030D03*
X0052517Y0048963D03*
X0052517Y0048930D03*
X0052517Y0048863D03*
X0052517Y0048830D03*
X0052517Y0048763D03*
X0052517Y0048730D03*
X0052517Y0048663D03*
X0052517Y0048630D03*
X0052517Y0048563D03*
X0052517Y0048530D03*
X0052517Y0048463D03*
X0052517Y0048430D03*
X0052517Y0048363D03*
X0052517Y0048330D03*
X0052517Y0048263D03*
X0052517Y0048230D03*
X0049317Y0048563D03*
X0049317Y0048630D03*
X0049317Y0048663D03*
X0049317Y0048730D03*
X0049317Y0048763D03*
X0049317Y0048830D03*
X0049317Y0048863D03*
X0049317Y0048930D03*
X0049317Y0048963D03*
X0049317Y0049030D03*
X0049317Y0049063D03*
X0043617Y0049063D03*
X0043617Y0049030D03*
X0043617Y0048963D03*
X0043617Y0048930D03*
X0043617Y0048863D03*
X0043617Y0048830D03*
X0043617Y0048763D03*
X0043617Y0048730D03*
X0043617Y0048663D03*
X0043617Y0048630D03*
X0043617Y0048563D03*
X0043617Y0049130D03*
X0043617Y0049163D03*
X0043617Y0049230D03*
X0043617Y0049263D03*
X0043617Y0049330D03*
X0043617Y0049363D03*
X0043617Y0049430D03*
X0041317Y0049063D03*
X0041317Y0049030D03*
X0041317Y0048963D03*
X0041317Y0048930D03*
X0041317Y0048863D03*
X0041317Y0048830D03*
X0041317Y0048763D03*
X0041317Y0048730D03*
X0041317Y0048663D03*
X0041317Y0048630D03*
X0041317Y0048563D03*
X0040817Y0048563D03*
X0040817Y0048630D03*
X0040817Y0048663D03*
X0040817Y0048730D03*
X0040817Y0048763D03*
X0040817Y0048830D03*
X0040817Y0048863D03*
X0040817Y0048930D03*
X0040817Y0048963D03*
X0040817Y0049030D03*
X0040817Y0049063D03*
X0040617Y0049130D03*
X0040617Y0049163D03*
X0040617Y0049230D03*
X0040617Y0049263D03*
X0040617Y0049330D03*
X0040617Y0049363D03*
X0040617Y0049430D03*
X0040617Y0049463D03*
X0040617Y0049530D03*
X0040617Y0049563D03*
X0040617Y0049630D03*
X0040617Y0049663D03*
X0040617Y0049730D03*
X0040617Y0049763D03*
X0041117Y0049730D03*
X0037317Y0049063D03*
X0037317Y0049030D03*
X0037317Y0048963D03*
X0037317Y0048930D03*
X0037317Y0048863D03*
X0037317Y0048830D03*
X0037317Y0048763D03*
X0037317Y0048730D03*
X0037317Y0048663D03*
X0037317Y0048630D03*
X0037317Y0048563D03*
X0034217Y0048563D03*
X0034217Y0048630D03*
X0034217Y0048663D03*
X0034217Y0048730D03*
X0034217Y0048763D03*
X0034217Y0048830D03*
X0034217Y0048863D03*
X0034217Y0048930D03*
X0034217Y0048963D03*
X0034217Y0049030D03*
X0034217Y0049063D03*
X0030717Y0049063D03*
X0030717Y0049030D03*
X0030717Y0048963D03*
X0030717Y0048930D03*
X0030717Y0048863D03*
X0030717Y0048830D03*
X0030717Y0048763D03*
X0030717Y0048730D03*
X0030717Y0048663D03*
X0030717Y0048630D03*
X0030717Y0048563D03*
X0030717Y0048530D03*
X0030717Y0048463D03*
X0030717Y0048430D03*
X0030717Y0048363D03*
X0030717Y0048330D03*
X0030717Y0048263D03*
X0030717Y0048230D03*
X0029317Y0048230D03*
X0029317Y0048263D03*
X0029317Y0048330D03*
X0029317Y0048363D03*
X0029317Y0048430D03*
X0029317Y0048463D03*
X0029317Y0048530D03*
X0029317Y0048563D03*
X0029317Y0048630D03*
X0029317Y0048663D03*
X0029317Y0048730D03*
X0029317Y0048763D03*
X0029317Y0048830D03*
X0029317Y0048863D03*
X0029317Y0048930D03*
X0029317Y0048963D03*
X0029317Y0049030D03*
X0029317Y0049063D03*
X0028917Y0049063D03*
X0028917Y0049030D03*
X0028917Y0048963D03*
X0028917Y0048930D03*
X0028917Y0048863D03*
X0028917Y0048830D03*
X0028917Y0048763D03*
X0028917Y0048730D03*
X0028917Y0048663D03*
X0028917Y0048630D03*
X0028917Y0048563D03*
X0028917Y0048530D03*
X0028917Y0048463D03*
X0028917Y0048430D03*
X0028917Y0048363D03*
X0028917Y0048330D03*
X0028917Y0048263D03*
X0028917Y0048230D03*
X0028517Y0048230D03*
X0028517Y0048263D03*
X0028517Y0048330D03*
X0028517Y0048363D03*
X0028517Y0048430D03*
X0028517Y0048463D03*
X0028517Y0048530D03*
X0028517Y0048563D03*
X0028517Y0048630D03*
X0028517Y0048663D03*
X0028517Y0048730D03*
X0028517Y0048763D03*
X0028517Y0048830D03*
X0028517Y0048863D03*
X0028517Y0048930D03*
X0028517Y0048963D03*
X0028517Y0049030D03*
X0028517Y0049063D03*
X0028117Y0049063D03*
X0028117Y0049030D03*
X0028117Y0048963D03*
X0028117Y0048930D03*
X0028117Y0048863D03*
X0028117Y0048830D03*
X0028117Y0048763D03*
X0028117Y0048730D03*
X0028117Y0048663D03*
X0028117Y0048630D03*
X0028117Y0048563D03*
D397*
X0049067Y0049663D03*
X0062067Y0048563D03*
D398*
X0046367Y0048563D03*
X0046367Y0048630D03*
X0046367Y0048663D03*
X0046367Y0048730D03*
X0046367Y0048763D03*
X0046367Y0048830D03*
X0046367Y0048863D03*
X0046367Y0048930D03*
X0046367Y0048963D03*
X0046367Y0049030D03*
X0046367Y0049063D03*
X0046367Y0049130D03*
X0046367Y0049163D03*
X0046367Y0049230D03*
X0046367Y0049263D03*
X0046367Y0049330D03*
X0046367Y0049363D03*
X0046367Y0049430D03*
X0045297Y0049430D03*
X0045297Y0049463D03*
X0045297Y0049530D03*
X0045297Y0049563D03*
X0045297Y0049630D03*
X0045297Y0049663D03*
X0045297Y0049730D03*
X0045297Y0049763D03*
X0045297Y0049363D03*
D399*
X0060532Y0049396D03*
X0060532Y0049296D03*
X0060532Y0049196D03*
X0060532Y0049096D03*
X0060532Y0049496D03*
X0060532Y0049596D03*
D400*
X0056267Y0049630D03*
X0056267Y0049663D03*
X0056267Y0049730D03*
X0056267Y0049763D03*
X0056267Y0049830D03*
X0056267Y0049863D03*
X0056267Y0049930D03*
X0056267Y0049963D03*
X0056267Y0050030D03*
X0056267Y0050063D03*
X0056267Y0050130D03*
X0056267Y0050163D03*
X0056267Y0050230D03*
X0056267Y0050263D03*
X0056267Y0049563D03*
X0056267Y0049530D03*
X0056267Y0049463D03*
X0056267Y0049430D03*
X0056267Y0049363D03*
X0056267Y0049330D03*
X0056267Y0049263D03*
X0056267Y0049230D03*
X0056267Y0049163D03*
X0056267Y0049130D03*
D401*
X0049487Y0049130D03*
X0049487Y0049163D03*
X0049487Y0049230D03*
X0049487Y0049263D03*
X0049487Y0049330D03*
X0049487Y0049363D03*
X0049487Y0049430D03*
X0049487Y0049463D03*
X0049487Y0049530D03*
X0049487Y0049563D03*
X0049487Y0049630D03*
X0049487Y0049663D03*
X0049487Y0049730D03*
X0049487Y0049763D03*
X0049047Y0049630D03*
X0041447Y0049630D03*
X0041447Y0049663D03*
X0041447Y0049730D03*
X0041447Y0049763D03*
X0041447Y0049563D03*
X0041447Y0049530D03*
X0041447Y0049463D03*
X0041447Y0049430D03*
X0041447Y0049363D03*
X0041447Y0049330D03*
X0041447Y0049263D03*
X0041447Y0049230D03*
X0041447Y0049163D03*
X0041447Y0049130D03*
X0041047Y0049663D03*
D402*
X0041067Y0049163D03*
X0041067Y0049130D03*
X0049067Y0049130D03*
D403*
X0049487Y0049196D03*
X0049487Y0049296D03*
X0049487Y0049396D03*
X0049487Y0049496D03*
X0049487Y0049596D03*
X0049487Y0049696D03*
X0041447Y0049696D03*
X0041447Y0049596D03*
X0041447Y0049496D03*
X0041447Y0049396D03*
X0041447Y0049296D03*
X0041447Y0049196D03*
D404*
X0041097Y0049596D03*
X0049097Y0049196D03*
D405*
X0041082Y0049196D03*
D406*
X0041117Y0049230D03*
X0041117Y0049263D03*
X0041117Y0049330D03*
X0041117Y0049363D03*
X0041117Y0049430D03*
X0041117Y0049463D03*
X0041117Y0049530D03*
X0041117Y0049563D03*
X0049117Y0049230D03*
D407*
X0044067Y0049230D03*
D408*
X0046002Y0049363D03*
X0046002Y0049430D03*
X0046002Y0049630D03*
X0046002Y0049663D03*
X0046002Y0049730D03*
X0046002Y0049763D03*
X0049132Y0049563D03*
X0049132Y0049530D03*
X0049132Y0049463D03*
X0049132Y0049430D03*
X0049132Y0049363D03*
X0049132Y0049330D03*
X0049132Y0049263D03*
X0041032Y0049630D03*
D409*
X0041117Y0049496D03*
X0041117Y0049396D03*
X0041117Y0049296D03*
X0049117Y0049596D03*
D410*
X0044002Y0049330D03*
D411*
X0045617Y0049363D03*
X0045617Y0049430D03*
X0045617Y0049463D03*
X0045617Y0049530D03*
X0045617Y0049563D03*
X0045617Y0049630D03*
X0045617Y0049663D03*
X0045617Y0049730D03*
X0045617Y0049763D03*
D412*
X0043932Y0049763D03*
X0043932Y0049730D03*
X0043932Y0049663D03*
X0043932Y0049630D03*
X0043932Y0049430D03*
X0043932Y0049363D03*
D413*
X0043932Y0049396D03*
X0043932Y0049696D03*
X0043932Y0049796D03*
X0049102Y0049696D03*
D414*
X0046152Y0049596D03*
X0046152Y0049496D03*
D415*
X0043782Y0049496D03*
X0043782Y0049596D03*
D416*
X0041067Y0050130D03*
M02*
