G75*
%MOIN*%
%OFA0B0*%
%FSLAX25Y25*%
%IPPOS*%
%LPD*%
%AMOC8*
5,1,8,0,0,1.08239X$1,22.5*
%
%ADD10R,0.06693X0.07480*%
%ADD11C,0.03937*%
%ADD12R,0.03937X0.04331*%
%ADD13R,0.04331X0.03937*%
%ADD14R,0.08000X0.08000*%
%ADD15C,0.08000*%
%ADD16C,0.07400*%
%ADD17R,0.06299X0.07874*%
%ADD18R,0.07098X0.06299*%
%ADD19R,0.03150X0.03150*%
%ADD20C,0.01969*%
%ADD21C,0.01200*%
%ADD22C,0.03181*%
D10*
X0017794Y0041269D03*
X0037873Y0041269D03*
X0037873Y0076703D03*
X0017794Y0076703D03*
D11*
X0037298Y0107183D03*
X0028202Y0041077D03*
D12*
X0052512Y0087562D03*
X0059205Y0087562D03*
D13*
X0066182Y0087507D03*
X0072874Y0087507D03*
X0049123Y0045648D03*
X0049123Y0038956D03*
D14*
X0024173Y0097826D03*
D15*
X0037953Y0097826D03*
D16*
X0052113Y0098380D03*
X0062113Y0098380D03*
X0072113Y0098380D03*
D17*
X0068808Y0078469D03*
X0058808Y0078469D03*
X0058808Y0040910D03*
X0068808Y0040910D03*
D18*
X0049199Y0052643D03*
X0049199Y0063840D03*
D19*
X0014167Y0094903D03*
X0014167Y0100808D03*
D20*
X0037873Y0041269D02*
X0040187Y0038956D01*
X0049123Y0038956D01*
X0049123Y0045648D02*
X0049123Y0048303D01*
X0053825Y0048303D01*
X0058808Y0043321D01*
X0058808Y0040910D01*
X0049123Y0048303D02*
X0049123Y0052567D01*
X0049199Y0052643D01*
X0037873Y0076703D02*
X0037953Y0076783D01*
X0037953Y0097826D01*
X0024173Y0097826D02*
X0024173Y0083082D01*
X0017794Y0076703D01*
X0052113Y0087960D02*
X0052512Y0087562D01*
X0052512Y0084765D01*
X0058808Y0078469D01*
X0059205Y0087562D02*
X0059494Y0087851D01*
X0059494Y0093173D01*
X0062113Y0095792D01*
X0062113Y0098380D01*
X0052113Y0098380D02*
X0052113Y0087960D01*
X0052512Y0087562D02*
X0052526Y0087576D01*
X0068808Y0078469D02*
X0072874Y0082535D01*
X0072874Y0087507D01*
X0072113Y0088269D01*
X0072113Y0098380D01*
X0072526Y0087856D02*
X0072874Y0087507D01*
D21*
X0066182Y0087507D02*
X0066182Y0086149D01*
X0063887Y0083855D01*
X0063887Y0073406D01*
X0068835Y0068459D01*
X0069102Y0068459D01*
X0069573Y0067988D01*
X0063202Y0069624D02*
X0063107Y0069719D01*
X0063107Y0069719D01*
X0058808Y0074018D01*
X0058808Y0078469D01*
X0049199Y0063840D02*
X0048290Y0062931D01*
X0029920Y0062931D01*
X0022329Y0052240D02*
X0022329Y0045805D01*
X0017794Y0041269D01*
X0059704Y0054944D02*
X0059763Y0054885D01*
X0059763Y0054768D01*
X0068808Y0045723D01*
X0068808Y0040910D01*
X0018975Y0087748D02*
X0018910Y0087814D01*
X0018910Y0088081D01*
X0014167Y0092824D01*
X0014167Y0094903D01*
X0014167Y0100808D02*
X0016640Y0103281D01*
X0016640Y0104801D01*
D22*
X0016640Y0104801D03*
X0018975Y0087748D03*
X0029920Y0062931D03*
X0022329Y0052240D03*
X0059704Y0054944D03*
X0069573Y0067988D03*
X0063202Y0069624D03*
M02*
