G75*
%MOIN*%
%OFA0B0*%
%FSLAX25Y25*%
%IPPOS*%
%LPD*%
%AMOC8*
5,1,8,0,0,1.08239X$1,22.5*
%
%ADD10C,0.00600*%
%ADD11R,0.08000X0.08000*%
%ADD12C,0.08000*%
%ADD13C,0.07400*%
%ADD14R,0.02500X0.05000*%
%ADD15C,0.03181*%
%ADD16C,0.01200*%
%ADD17C,0.01600*%
D10*
X0037242Y0034002D02*
X0037809Y0033435D01*
X0038943Y0033435D01*
X0039511Y0034002D01*
X0037242Y0036270D01*
X0037242Y0034002D01*
X0037242Y0036270D02*
X0037809Y0036838D01*
X0038943Y0036838D01*
X0039511Y0036270D01*
X0039511Y0034002D01*
X0040785Y0034002D02*
X0040785Y0033435D01*
X0041352Y0033435D01*
X0041352Y0034002D01*
X0040785Y0034002D01*
X0042767Y0033435D02*
X0045035Y0033435D01*
X0043901Y0033435D02*
X0043901Y0036838D01*
X0045035Y0035703D01*
X0046450Y0034569D02*
X0046450Y0036838D01*
X0048718Y0036838D02*
X0048718Y0034569D01*
X0047584Y0033435D01*
X0046450Y0034569D01*
D11*
X0024173Y0097826D03*
D12*
X0037953Y0097826D03*
D13*
X0052113Y0098380D03*
X0062113Y0098380D03*
X0072113Y0098380D03*
D14*
X0065286Y0078260D03*
X0062086Y0078260D03*
D15*
X0063202Y0069624D03*
X0069573Y0067988D03*
X0059704Y0054944D03*
X0029920Y0062931D03*
X0022329Y0052240D03*
X0018975Y0087748D03*
X0016640Y0104801D03*
D16*
X0016535Y0104907D01*
X0015929Y0104907D01*
X0015929Y0104906D01*
X0015870Y0104759D01*
X0015512Y0103421D01*
X0015512Y0066401D01*
X0024536Y0057377D01*
X0024536Y0054944D01*
X0022211Y0052619D01*
X0022211Y0052358D01*
X0022329Y0052240D01*
X0024536Y0054944D02*
X0059704Y0054944D01*
X0069573Y0067988D02*
X0065636Y0071925D01*
X0065636Y0078171D01*
X0062086Y0078260D02*
X0062086Y0070740D01*
X0063202Y0069624D01*
X0029920Y0062931D02*
X0029856Y0062995D01*
X0029834Y0062995D01*
X0018975Y0073854D01*
X0018975Y0087748D01*
D17*
X0065286Y0078260D02*
X0065547Y0078260D01*
X0065636Y0078171D01*
M02*
