G75*
%MOIN*%
%OFA0B0*%
%FSLAX25Y25*%
%IPPOS*%
%LPD*%
%AMOC8*
5,1,8,0,0,1.08239X$1,22.5*
%
%ADD10R,0.07493X0.08280*%
%ADD11C,0.01969*%
%ADD12R,0.04737X0.05131*%
%ADD13R,0.05131X0.04737*%
%ADD14C,0.08200*%
%ADD15R,0.07099X0.08674*%
%ADD16R,0.03950X0.03950*%
%ADD17C,0.16611*%
%ADD18C,0.07900*%
D10*
X0017794Y0044436D03*
X0037873Y0044436D03*
X0037873Y0079869D03*
X0017794Y0079869D03*
D11*
X0011399Y0036684D02*
X0011401Y0036576D01*
X0011407Y0036468D01*
X0011417Y0036361D01*
X0011430Y0036254D01*
X0011448Y0036148D01*
X0011470Y0036042D01*
X0011495Y0035937D01*
X0011524Y0035833D01*
X0011557Y0035731D01*
X0011594Y0035629D01*
X0011634Y0035529D01*
X0011678Y0035431D01*
X0011726Y0035334D01*
X0011777Y0035239D01*
X0011831Y0035146D01*
X0011889Y0035055D01*
X0011950Y0034966D01*
X0012015Y0034879D01*
X0012082Y0034795D01*
X0012153Y0034713D01*
X0012226Y0034634D01*
X0012302Y0034558D01*
X0012381Y0034485D01*
X0012463Y0034414D01*
X0012547Y0034347D01*
X0012634Y0034282D01*
X0012723Y0034221D01*
X0012814Y0034163D01*
X0012907Y0034109D01*
X0013002Y0034058D01*
X0013099Y0034010D01*
X0013197Y0033966D01*
X0013297Y0033926D01*
X0013399Y0033889D01*
X0013501Y0033856D01*
X0013605Y0033827D01*
X0013710Y0033802D01*
X0013816Y0033780D01*
X0013922Y0033762D01*
X0014029Y0033749D01*
X0014136Y0033739D01*
X0014244Y0033733D01*
X0014352Y0033731D01*
X0014460Y0033733D01*
X0014568Y0033739D01*
X0014675Y0033749D01*
X0014782Y0033762D01*
X0014888Y0033780D01*
X0014994Y0033802D01*
X0015099Y0033827D01*
X0015203Y0033856D01*
X0015305Y0033889D01*
X0015407Y0033926D01*
X0015507Y0033966D01*
X0015605Y0034010D01*
X0015702Y0034058D01*
X0015797Y0034109D01*
X0015890Y0034163D01*
X0015981Y0034221D01*
X0016070Y0034282D01*
X0016157Y0034347D01*
X0016241Y0034414D01*
X0016323Y0034485D01*
X0016402Y0034558D01*
X0016478Y0034634D01*
X0016551Y0034713D01*
X0016622Y0034795D01*
X0016689Y0034879D01*
X0016754Y0034966D01*
X0016815Y0035055D01*
X0016873Y0035146D01*
X0016927Y0035239D01*
X0016978Y0035334D01*
X0017026Y0035431D01*
X0017070Y0035529D01*
X0017110Y0035629D01*
X0017147Y0035731D01*
X0017180Y0035833D01*
X0017209Y0035937D01*
X0017234Y0036042D01*
X0017256Y0036148D01*
X0017274Y0036254D01*
X0017287Y0036361D01*
X0017297Y0036468D01*
X0017303Y0036576D01*
X0017305Y0036684D01*
X0017303Y0036792D01*
X0017297Y0036900D01*
X0017287Y0037007D01*
X0017274Y0037114D01*
X0017256Y0037220D01*
X0017234Y0037326D01*
X0017209Y0037431D01*
X0017180Y0037535D01*
X0017147Y0037637D01*
X0017110Y0037739D01*
X0017070Y0037839D01*
X0017026Y0037937D01*
X0016978Y0038034D01*
X0016927Y0038129D01*
X0016873Y0038222D01*
X0016815Y0038313D01*
X0016754Y0038402D01*
X0016689Y0038489D01*
X0016622Y0038573D01*
X0016551Y0038655D01*
X0016478Y0038734D01*
X0016402Y0038810D01*
X0016323Y0038883D01*
X0016241Y0038954D01*
X0016157Y0039021D01*
X0016070Y0039086D01*
X0015981Y0039147D01*
X0015890Y0039205D01*
X0015797Y0039259D01*
X0015702Y0039310D01*
X0015605Y0039358D01*
X0015507Y0039402D01*
X0015407Y0039442D01*
X0015305Y0039479D01*
X0015203Y0039512D01*
X0015099Y0039541D01*
X0014994Y0039566D01*
X0014888Y0039588D01*
X0014782Y0039606D01*
X0014675Y0039619D01*
X0014568Y0039629D01*
X0014460Y0039635D01*
X0014352Y0039637D01*
X0014244Y0039635D01*
X0014136Y0039629D01*
X0014029Y0039619D01*
X0013922Y0039606D01*
X0013816Y0039588D01*
X0013710Y0039566D01*
X0013605Y0039541D01*
X0013501Y0039512D01*
X0013399Y0039479D01*
X0013297Y0039442D01*
X0013197Y0039402D01*
X0013099Y0039358D01*
X0013002Y0039310D01*
X0012907Y0039259D01*
X0012814Y0039205D01*
X0012723Y0039147D01*
X0012634Y0039086D01*
X0012547Y0039021D01*
X0012463Y0038954D01*
X0012381Y0038883D01*
X0012302Y0038810D01*
X0012226Y0038734D01*
X0012153Y0038655D01*
X0012082Y0038573D01*
X0012015Y0038489D01*
X0011950Y0038402D01*
X0011889Y0038313D01*
X0011831Y0038222D01*
X0011777Y0038129D01*
X0011726Y0038034D01*
X0011678Y0037937D01*
X0011634Y0037839D01*
X0011594Y0037739D01*
X0011557Y0037637D01*
X0011524Y0037535D01*
X0011495Y0037431D01*
X0011470Y0037326D01*
X0011448Y0037220D01*
X0011430Y0037114D01*
X0011417Y0037007D01*
X0011407Y0036900D01*
X0011401Y0036792D01*
X0011399Y0036684D01*
X0087602Y0111311D02*
X0087604Y0111203D01*
X0087610Y0111095D01*
X0087620Y0110988D01*
X0087633Y0110881D01*
X0087651Y0110775D01*
X0087673Y0110669D01*
X0087698Y0110564D01*
X0087727Y0110460D01*
X0087760Y0110358D01*
X0087797Y0110256D01*
X0087837Y0110156D01*
X0087881Y0110058D01*
X0087929Y0109961D01*
X0087980Y0109866D01*
X0088034Y0109773D01*
X0088092Y0109682D01*
X0088153Y0109593D01*
X0088218Y0109506D01*
X0088285Y0109422D01*
X0088356Y0109340D01*
X0088429Y0109261D01*
X0088505Y0109185D01*
X0088584Y0109112D01*
X0088666Y0109041D01*
X0088750Y0108974D01*
X0088837Y0108909D01*
X0088926Y0108848D01*
X0089017Y0108790D01*
X0089110Y0108736D01*
X0089205Y0108685D01*
X0089302Y0108637D01*
X0089400Y0108593D01*
X0089500Y0108553D01*
X0089602Y0108516D01*
X0089704Y0108483D01*
X0089808Y0108454D01*
X0089913Y0108429D01*
X0090019Y0108407D01*
X0090125Y0108389D01*
X0090232Y0108376D01*
X0090339Y0108366D01*
X0090447Y0108360D01*
X0090555Y0108358D01*
X0090663Y0108360D01*
X0090771Y0108366D01*
X0090878Y0108376D01*
X0090985Y0108389D01*
X0091091Y0108407D01*
X0091197Y0108429D01*
X0091302Y0108454D01*
X0091406Y0108483D01*
X0091508Y0108516D01*
X0091610Y0108553D01*
X0091710Y0108593D01*
X0091808Y0108637D01*
X0091905Y0108685D01*
X0092000Y0108736D01*
X0092093Y0108790D01*
X0092184Y0108848D01*
X0092273Y0108909D01*
X0092360Y0108974D01*
X0092444Y0109041D01*
X0092526Y0109112D01*
X0092605Y0109185D01*
X0092681Y0109261D01*
X0092754Y0109340D01*
X0092825Y0109422D01*
X0092892Y0109506D01*
X0092957Y0109593D01*
X0093018Y0109682D01*
X0093076Y0109773D01*
X0093130Y0109866D01*
X0093181Y0109961D01*
X0093229Y0110058D01*
X0093273Y0110156D01*
X0093313Y0110256D01*
X0093350Y0110358D01*
X0093383Y0110460D01*
X0093412Y0110564D01*
X0093437Y0110669D01*
X0093459Y0110775D01*
X0093477Y0110881D01*
X0093490Y0110988D01*
X0093500Y0111095D01*
X0093506Y0111203D01*
X0093508Y0111311D01*
X0093506Y0111419D01*
X0093500Y0111527D01*
X0093490Y0111634D01*
X0093477Y0111741D01*
X0093459Y0111847D01*
X0093437Y0111953D01*
X0093412Y0112058D01*
X0093383Y0112162D01*
X0093350Y0112264D01*
X0093313Y0112366D01*
X0093273Y0112466D01*
X0093229Y0112564D01*
X0093181Y0112661D01*
X0093130Y0112756D01*
X0093076Y0112849D01*
X0093018Y0112940D01*
X0092957Y0113029D01*
X0092892Y0113116D01*
X0092825Y0113200D01*
X0092754Y0113282D01*
X0092681Y0113361D01*
X0092605Y0113437D01*
X0092526Y0113510D01*
X0092444Y0113581D01*
X0092360Y0113648D01*
X0092273Y0113713D01*
X0092184Y0113774D01*
X0092093Y0113832D01*
X0092000Y0113886D01*
X0091905Y0113937D01*
X0091808Y0113985D01*
X0091710Y0114029D01*
X0091610Y0114069D01*
X0091508Y0114106D01*
X0091406Y0114139D01*
X0091302Y0114168D01*
X0091197Y0114193D01*
X0091091Y0114215D01*
X0090985Y0114233D01*
X0090878Y0114246D01*
X0090771Y0114256D01*
X0090663Y0114262D01*
X0090555Y0114264D01*
X0090447Y0114262D01*
X0090339Y0114256D01*
X0090232Y0114246D01*
X0090125Y0114233D01*
X0090019Y0114215D01*
X0089913Y0114193D01*
X0089808Y0114168D01*
X0089704Y0114139D01*
X0089602Y0114106D01*
X0089500Y0114069D01*
X0089400Y0114029D01*
X0089302Y0113985D01*
X0089205Y0113937D01*
X0089110Y0113886D01*
X0089017Y0113832D01*
X0088926Y0113774D01*
X0088837Y0113713D01*
X0088750Y0113648D01*
X0088666Y0113581D01*
X0088584Y0113510D01*
X0088505Y0113437D01*
X0088429Y0113361D01*
X0088356Y0113282D01*
X0088285Y0113200D01*
X0088218Y0113116D01*
X0088153Y0113029D01*
X0088092Y0112940D01*
X0088034Y0112849D01*
X0087980Y0112756D01*
X0087929Y0112661D01*
X0087881Y0112564D01*
X0087837Y0112466D01*
X0087797Y0112366D01*
X0087760Y0112264D01*
X0087727Y0112162D01*
X0087698Y0112058D01*
X0087673Y0111953D01*
X0087651Y0111847D01*
X0087633Y0111741D01*
X0087620Y0111634D01*
X0087610Y0111527D01*
X0087604Y0111419D01*
X0087602Y0111311D01*
D12*
X0094833Y0099681D03*
X0101526Y0099681D03*
X0101526Y0091610D03*
X0094833Y0091610D03*
D13*
X0052444Y0049200D03*
X0052444Y0042507D03*
D14*
X0058035Y0095362D03*
X0068035Y0095362D03*
X0078035Y0095362D03*
D15*
X0072592Y0080846D03*
X0062592Y0080846D03*
X0094469Y0078307D03*
X0094437Y0060644D03*
X0072592Y0043287D03*
X0062592Y0043287D03*
D16*
X0095226Y0106081D03*
X0101132Y0106081D03*
D17*
X0097728Y0120914D03*
X0097229Y0042863D03*
D18*
X0077255Y0104017D02*
X0077255Y0111117D01*
X0057570Y0111117D02*
X0057570Y0104017D01*
X0037633Y0103962D02*
X0037633Y0111062D01*
X0017948Y0111062D02*
X0017948Y0103962D01*
M02*
